<?xml version="1.0" standalone="no"?>
<!DOCTYPE svg PUBLIC "-//W3C//DTD SVG 1.1//EN" "http://www.w3.org/Graphics/SVG/1.1/DTD/svg11.dtd" >
<svg xmlns="http://www.w3.org/2000/svg" xmlns:xlink="http://www.w3.org/1999/xlink" version="1.1">
<metadata></metadata>
<defs>
<font id="roundedregular" horiz-adv-x="417" >
<font-face units-per-em="2048" ascent="1638" descent="-410" />
<missing-glyph horiz-adv-x="512" />
<glyph horiz-adv-x="0" />
<glyph horiz-adv-x="682" />
<glyph unicode=" "  horiz-adv-x="512" />
<glyph unicode="&#x09;" horiz-adv-x="512" />
<glyph unicode="&#xa0;" horiz-adv-x="512" />
<glyph unicode="!" horiz-adv-x="606" d="M199 92q0 43 30.5 74t73.5 31t74 -31t31 -74t-31 -73.5t-74 -30.5t-73.5 30.5t-30.5 73.5zM213 487v887q0 44 24.5 70t65.5 26t65.5 -26t24.5 -70v-887q0 -44 -24.5 -70t-65.5 -26t-65.5 26t-24.5 70z" />
<glyph unicode="&#x22;" horiz-adv-x="684" d="M113 1104v278q0 42 21.5 65t62.5 23t62.5 -23t21.5 -65v-278q0 -42 -21.5 -65t-62.5 -23t-62.5 23t-21.5 65zM403 1104v278q0 42 21.5 65t62.5 23t62.5 -23t21.5 -65v-278q0 -42 -21.5 -65t-62.5 -23t-62.5 23t-21.5 65z" />
<glyph unicode="#" horiz-adv-x="1097" d="M29 510q0 32 23 50t61 18h143l43 303h-125q-38 0 -61 17.5t-23 49.5t23 50t61 18h143l54 381q9 73 78 73q34 0 51.5 -18.5t17.5 -50.5q0 -28 -8 -80l-2 -6l-41 -299h244l53 381q9 73 78 73q34 0 51.5 -18.5t17.5 -50.5q0 -28 -8 -80l-2 -6l-41 -299h125q38 0 61 -18 t23 -50t-23 -49.5t-61 -17.5h-143l-43 -303h125q38 0 61 -18t23 -50t-23 -50t-61 -18h-144l-53 -381q-5 -38 -23 -55.5t-55 -17.5q-34 0 -51.5 18.5t-17.5 50.5q0 15 10 80v6l41 299h-244l-53 -381q-5 -38 -23 -55.5t-55 -17.5q-34 0 -52 18.5t-18 50.5q0 9 11 80v6l41 299 h-125q-38 0 -61 18t-23 50zM406 578h243l43 303h-243z" />
<glyph unicode="$" horiz-adv-x="985" d="M43 170q0 36 20 61t52 25t94 -39q67 -39 118 -56.5t119 -17.5v568l-8 2q-93 23 -149 50.5t-115 72.5q-117 93 -117 260q0 62 27.5 124.5t76.5 115t123.5 89.5t161.5 45v97q0 43 43 43t43 -43v-97q121 -9 220 -59q94 -49 94 -111q0 -32 -23 -55.5t-55 -23.5q-34 0 -86 34 q-73 48 -150 60v-449l9 -2q107 -39 165 -66.5t111 -68.5q125 -97 125 -280q0 -173 -111 -302q-109 -127 -299 -151v-105q0 -43 -43 -43t-43 43v97q-99 0 -194 27.5t-152 70t-57 84.5zM250 1108q0 -75 47.5 -123t148.5 -86v416q-88 -11 -142 -67t-54 -140zM532 154 q102 20 160 97.5t58 188.5q0 88 -54 144t-164 96v-526z" />
<glyph unicode="%" horiz-adv-x="1517" d="M86 1124q0 145 82 246q81 100 229 100q149 0 230 -100q82 -101 82 -246q0 -144 -82 -245t-230 -101q-147 0 -229 101t-82 245zM221 1124q0 -101 45 -168t131 -67t131 67t45 168t-45 168.5t-131 67.5t-131 -67.5t-45 -168.5zM399 27q0 23 29 92l545 1306q24 62 71 62 q33 0 52.5 -16.5t19.5 -38.5q0 -25 -29 -93l-544 -1306q-24 -62 -76 -62q-30 0 -49 16t-19 40zM809 334q0 145 82 246q81 100 229 100q149 0 230 -100q82 -101 82 -246t-82 -246q-81 -100 -230 -100q-148 0 -229 100q-82 101 -82 246zM944 334q0 -101 45 -168.5t131 -67.5 t131 67.5t45 168.5t-45 168t-131 67t-131 -67t-45 -168z" />
<glyph unicode="&#x26;" horiz-adv-x="1366" d="M74 412q0 168 78 272q73 97 247 205q-161 164 -161 285q0 149 95 222.5t261 73.5q131 0 225 -73t94 -185q0 -121 -65.5 -203t-196.5 -155l326 -385l12 16q25 32 82 123q44 74 69.5 102.5t51.5 28.5q33 0 54.5 -16.5t21.5 -44.5q0 -99 -191 -328l178 -211q37 -43 37 -78 q0 -32 -21 -52.5t-52 -20.5q-45 0 -70 32l-176 203q-187 -235 -451 -235q-121 0 -222 50t-163.5 148t-62.5 226zM254 432q0 -124 75.5 -200t209.5 -76q94 0 171 43t162 143l-372 430q-134 -77 -190 -155.5t-56 -184.5zM418 1178q0 -41 30 -88.5t101 -118.5l4 -4 q192 111 192 215q0 67 -47.5 106t-117.5 39q-71 0 -116.5 -39.5t-45.5 -109.5z" />
<glyph unicode="'" d="M125 1104v278q0 42 21.5 65t62.5 23t62.5 -23t21.5 -65v-278q0 -42 -21.5 -65t-62.5 -23t-62.5 23t-21.5 65z" />
<glyph unicode="(" horiz-adv-x="493" d="M133 651q0 212 31 414t88 350q19 47 39.5 69.5t50.5 22.5q34 0 53 -16.5t19 -42.5q0 -23 -19 -78l-10 -31q-84 -253 -84 -688t84 -688l10 -31q19 -55 19 -77q0 -26 -19 -43t-53 -17q-30 0 -50.5 22.5t-39.5 69.5q-57 148 -88 350t-31 414z" />
<glyph unicode=")" horiz-adv-x="493" d="M80 -145q0 25 18 77l11 31q84 253 84 688t-84 688l-11 31q-18 53 -18 78q0 26 19 42.5t53 16.5q30 0 50.5 -22.5t39.5 -69.5q56 -148 87 -349.5t31 -414.5t-31 -414.5t-87 -349.5q-19 -47 -39.5 -69.5t-50.5 -22.5q-34 0 -53 17t-19 43z" />
<glyph unicode="*" horiz-adv-x="798" d="M78 967q0 25 9 39.5t38 25.5l182 76l-182 76q-29 11 -38 25.5t-9 39.5q0 29 20.5 49.5t51.5 20.5q22 0 47.5 -16t78.5 -60q12 -10 72 -57q0 38 -12 121q-10 75 -10 92q0 32 19.5 51.5t53.5 19.5q35 0 54.5 -20t19.5 -51q0 -17 -10 -92q-12 -82 -12 -121q50 39 71 57 q53 43 79 59.5t48 16.5q31 0 51.5 -20.5t20.5 -49.5q0 -25 -9 -39.5t-38 -25.5l-182 -76l182 -76q29 -11 38 -25.5t9 -39.5q0 -29 -20.5 -49.5t-51.5 -20.5q-22 0 -48.5 16t-78.5 60q-21 18 -71 57q0 -38 12 -121q10 -75 10 -92q0 -32 -20 -52t-54 -20t-53.5 20t-19.5 52 q0 17 10 92q12 83 12 121q-60 -47 -72 -57q-54 -44 -79.5 -60t-46.5 -16q-31 0 -51.5 20.5t-20.5 49.5z" />
<glyph unicode="+" horiz-adv-x="1228" d="M96 518q0 41 23 62.5t65 21.5h346v346q0 42 21.5 65t62.5 23t62.5 -23t21.5 -65v-346h346q42 0 65.5 -21.5t23.5 -62.5t-23.5 -62.5t-65.5 -21.5h-346v-346q0 -42 -21.5 -65t-62.5 -23t-62.5 23t-21.5 65v346h-346q-42 0 -65 21.5t-23 62.5z" />
<glyph unicode="," horiz-adv-x="512" d="M45 -180q0 31 23 76l114 225q20 39 41.5 57.5t55.5 18.5q33 0 57 -23t24 -55q0 -33 -22 -76l-115 -225q-20 -40 -41.5 -58t-54.5 -18t-57.5 23t-24.5 55z" />
<glyph unicode="-" horiz-adv-x="720" d="M72 549q0 32 23 55t55 23h421q32 0 55 -23t23 -55t-23 -55t-55 -23h-421q-32 0 -55 23t-23 55z" />
<glyph unicode="." horiz-adv-x="512" d="M152 92q0 43 30.5 74t73.5 31t73.5 -31t30.5 -74t-30.5 -73.5t-73.5 -30.5t-73.5 30.5t-30.5 73.5z" />
<glyph unicode="/" horiz-adv-x="833" d="M41 63q0 22 29 91l559 1255q25 61 84 61q36 0 58 -20t22 -55q0 -21 -29 -90l-559 -1256q-25 -61 -84 -61q-36 0 -58 20t-22 55z" />
<glyph unicode="0" horiz-adv-x="1097" d="M68 729q0 170 37.5 310.5t103 234t153 145t187.5 51.5t187.5 -51.5t153 -145t103 -234t37.5 -310.5t-37.5 -310.5t-103 -234t-153 -145t-187.5 -51.5t-187.5 51.5t-153 145t-103 234t-37.5 310.5zM260 729q0 -283 79 -434.5t210 -151.5t210 151.5t79 434.5t-79 434.5 t-210 151.5t-210 -151.5t-79 -434.5z" />
<glyph unicode="1" horiz-adv-x="720" d="M70 1380q0 32 22.5 55t54.5 23h314q31 0 43 -9.5t12 -39.5v-1325q0 -44 -24.5 -70t-65.5 -26t-65.5 26t-24.5 70v1219h-189q-32 0 -54.5 22.5t-22.5 54.5z" />
<glyph unicode="2" horiz-adv-x="1097" d="M104 1014q0 93 31.5 175t89 145t147 99.5t197.5 36.5q173 0 283.5 -108t110.5 -254q0 -87 -21 -154.5t-80 -146.5l-489 -651h553q32 0 55 -23t23 -55t-23 -55t-55 -23h-707q-48 0 -73 21t-25 53q0 28 39 82l504 673q106 141 106 258q0 99 -66 163.5t-165 64.5 q-122 0 -194.5 -92.5t-72.5 -237.5q0 -41 -22 -61.5t-57 -20.5q-89 0 -89 111z" />
<glyph unicode="3" horiz-adv-x="1097" d="M84 324q0 46 21.5 73t54.5 27q70 0 100 -94q63 -187 246 -187q121 0 199 78q77 80 77 193q0 154 -75 217q-61 55 -179 55q-110 0 -110 78q0 57 94 78q109 25 157 80t48 155q0 105 -57 171.5t-150 66.5q-96 0 -147.5 -57.5t-59.5 -155.5q-4 -50 -25 -67t-61 -17 q-37 0 -59.5 23.5t-22.5 60.5q0 152 105 260t278 108q171 0 275 -110q104 -107 104 -266q0 -96 -44.5 -178t-127.5 -132q120 -36 185 -130.5t65 -223.5q0 -203 -135 -326q-132 -116 -330 -116q-83 0 -155.5 23.5t-120.5 60.5t-83 82.5t-51 89t-16 80.5z" />
<glyph unicode="4" horiz-adv-x="1097" d="M25 438q0 32 45 105l516 846q28 44 60 62.5t81 18.5q64 0 100.5 -38t36.5 -111v-791h92q32 0 55 -22.5t23 -54.5t-23 -55t-55 -23h-92v-291q0 -44 -24.5 -70t-65.5 -26t-65.5 26t-24.5 70v291h-582q-41 0 -59 15.5t-18 47.5zM250 530h434v748h-4z" />
<glyph unicode="5" horiz-adv-x="1097" d="M90 229q0 32 18 55t48 23q29 0 88 -47q67 -55 122 -79.5t136 -24.5q125 0 203 90q75 90 75 225q0 141 -65.5 225t-186.5 84q-87 0 -180 -37q-46 -18 -67 -18q-30 0 -46 15t-16 40q0 16 10 94q1 5 2 14.5t2 12.5l76 510q4 26 19.5 36.5t48.5 10.5h506q32 0 55 -23t23 -55 t-23 -54.5t-55 -22.5h-416l-59 -396q80 41 192 41q108 0 194.5 -63t132.5 -163.5t46 -215.5q0 -237 -127 -379q-127 -139 -346 -139q-82 0 -160.5 25t-131.5 62t-85.5 78.5t-32.5 75.5z" />
<glyph unicode="6" horiz-adv-x="1097" d="M106 489q0 120 30.5 238t79.5 215t117.5 190t136.5 163.5t144 134.5q45 40 84 40q27 0 50.5 -24.5t23.5 -59.5q0 -20 -14.5 -39t-57.5 -57q-87 -76 -165 -174q-76 -95 -148 -231h4q108 57 232 57q114 0 199 -66.5t127 -174t42 -238.5t-57 -239.5t-160 -172t-229 -63.5 q-190 0 -314.5 141.5t-124.5 359.5zM287 471q0 -142 66 -228.5t190 -86.5t190 86.5t66 228.5q0 152 -64.5 233.5t-191.5 81.5q-124 0 -190 -86.5t-66 -228.5z" />
<glyph unicode="7" horiz-adv-x="1024" d="M57 1380q0 32 23 55t55 23h739q93 0 93 -57q0 -28 -35 -109l-545 -1239q-29 -65 -108 -65q-25 0 -46.5 19.5t-21.5 49.5q0 32 29 97l510 1144v5h-615q-32 0 -55 22.5t-23 54.5z" />
<glyph unicode="8" horiz-adv-x="1097" d="M102 449q0 135 71.5 235t193.5 129q-102 64 -146.5 137.5t-44.5 186.5q0 157 111 245q110 88 262 88t262 -88q111 -88 111 -245q0 -113 -44.5 -186.5t-146.5 -137.5q122 -29 193 -129t71 -235q0 -91 -30.5 -174t-86.5 -147t-141.5 -102t-187.5 -38t-188 38t-141.5 102.5 t-86.5 147.5t-31 173zM295 440q0 -132 73 -214.5t181 -82.5t181 82.5t73 214.5q0 122 -68 205q-68 86 -186 86q-119 0 -187 -86q-67 -82 -67 -205zM344 1102q0 -97 56 -156t149 -59t149 59t56 156q0 95 -56 154t-149 59t-149 -59t-56 -154z" />
<glyph unicode="9" horiz-adv-x="1097" d="M106 995q0 131 57.5 239.5t160 172t229.5 63.5q191 0 314.5 -141.5t123.5 -359.5q0 -120 -30.5 -238t-79.5 -214.5t-117.5 -190t-136.5 -163.5t-144 -134q-46 -41 -84 -41q-26 0 -49.5 24.5t-23.5 59.5q0 20 14.5 39.5t56.5 56.5q89 77 164 172q79 99 150 233h-4 q-108 -57 -232 -57q-113 0 -198 66.5t-128 174t-43 238.5zM299 987q0 -152 64.5 -233.5t191.5 -81.5q123 0 189.5 87.5t66.5 227.5q0 142 -66 229t-190 87t-190 -87t-66 -229z" />
<glyph unicode=":" horiz-adv-x="512" d="M152 92q0 43 30.5 74t73.5 31t73.5 -31t30.5 -74t-30.5 -73.5t-73.5 -30.5t-73.5 30.5t-30.5 73.5zM152 780q0 43 30.5 74t73.5 31t73.5 -31t30.5 -74t-30.5 -73.5t-73.5 -30.5t-73.5 30.5t-30.5 73.5z" />
<glyph unicode=";" horiz-adv-x="512" d="M45 -180q0 31 23 76l114 225q20 39 41.5 57.5t55.5 18.5q33 0 57 -23t24 -55q0 -33 -22 -76l-115 -225q-20 -40 -41.5 -58t-54.5 -18t-57.5 23t-24.5 55zM152 780q0 43 30.5 74t73.5 31t73.5 -31t30.5 -74t-30.5 -73.5t-73.5 -30.5t-73.5 30.5t-30.5 73.5z" />
<glyph unicode="&#x3c;" horiz-adv-x="1228" d="M94 518q0 30 17.5 51.5t56.5 42.5l799 400l8 4q67 33 92 33q27 0 47.5 -22t20.5 -54q0 -27 -15 -43t-51 -35l-762 -377l762 -377q36 -19 51 -35t15 -43q0 -30 -20.5 -52.5t-47.5 -22.5t-92 32l-8 5l-799 399q-39 21 -56.5 42.5t-17.5 51.5z" />
<glyph unicode="=" horiz-adv-x="1228" d="M96 305q0 41 23 62.5t65 21.5h860q42 0 65.5 -21.5t23.5 -62.5t-23.5 -62.5t-65.5 -21.5h-860q-42 0 -65 21.5t-23 62.5zM96 731q0 41 23 62.5t65 21.5h860q42 0 65.5 -21.5t23.5 -62.5t-23.5 -62.5t-65.5 -21.5h-860q-42 0 -65 21.5t-23 62.5z" />
<glyph unicode="&#x3e;" horiz-adv-x="1228" d="M94 63q0 27 15 43t51 35l762 377l-762 377q-36 19 -51 35t-15 43q0 32 20.5 54t47.5 22t92 -33l8 -4l799 -400q39 -21 56.5 -42.5t17.5 -51.5t-17.5 -51.5t-56.5 -42.5l-799 -399l-8 -5q-63 -32 -92 -32q-27 0 -47.5 22.5t-20.5 52.5z" />
<glyph unicode="?" horiz-adv-x="909" d="M37 1161q2 86 62.5 158t151 111.5t185.5 39.5q187 0 311.5 -107t124.5 -269q0 -159 -92 -264t-252 -138v-205q0 -44 -24.5 -70t-65.5 -26t-65.5 26t-24.5 70v232v44t6 29.5t12 22t25.5 14.5t39.5 13.5t61 13.5q188 42 188 221q0 102 -66.5 164t-171.5 62 q-89 0 -147.5 -39t-89.5 -129q-21 -68 -80 -68q-38 0 -63.5 26t-24.5 68zM334 92q0 43 30.5 74t73.5 31t74 -31t31 -74t-31 -73.5t-74 -30.5t-73.5 30.5t-30.5 73.5z" />
<glyph unicode="@" horiz-adv-x="1638" d="M74 729q0 153 62 291t166.5 236t247 156t298.5 58q194 0 357.5 -77t261.5 -217.5t98 -315.5q0 -110 -34 -205.5t-88.5 -160.5t-122.5 -112t-135.5 -69t-127.5 -22q-123 0 -144 117h-4q-46 -51 -110 -84t-125 -33q-133 0 -221 94t-88 227q0 98 34.5 193.5t94 170.5 t147 121t186.5 46q166 0 240 -154l27 82q18 59 82 59q28 0 46.5 -11.5t18.5 -33.5q0 -19 -16 -73l-127 -439q-17 -66 -17 -84q0 -59 58 -59q98 0 184 126t86 280q0 113 -46 208.5t-123.5 158t-178.5 97.5t-213 35q-130 0 -245 -47.5t-197 -129t-129.5 -193.5t-47.5 -236 q0 -173 83.5 -312t229 -216.5t324.5 -77.5q136 0 225 37.5t191 120.5q52 40 76 53.5t51 13.5q48 0 51 -47q2 -40 -57.5 -95t-148 -103t-199.5 -82t-203 -33q-213 2 -391.5 99.5t-282.5 267.5t-104 374zM545 631q0 -79 49 -132t119 -53q68 0 124 43t88 107t49 128t17 116 q0 147 -153 147q-69 0 -126.5 -33t-93 -86t-54.5 -114.5t-19 -122.5z" />
<glyph unicode="A" horiz-adv-x="1253" d="M20 63q0 9 21 78q1 2 1.5 5t1 5t1.5 3l453 1206q40 110 129 110t129 -110l452 -1206q1 -1 1.5 -3t1 -5t1.5 -5q21 -69 21 -78q0 -35 -24 -55t-62 -20q-63 0 -88 67l-94 262h-676l-94 -262q-25 -67 -89 -67q-38 0 -62 20t-24 55zM344 473h565l-280 789h-4z" />
<glyph unicode="B" horiz-adv-x="1099" d="M119 98v1262q0 46 24 72t72 26h317q91 0 167.5 -30.5t125 -80t75 -111t26.5 -126.5q0 -117 -55.5 -203t-147.5 -116v-5q136 -15 223 -116q92 -103 92 -244q0 -180 -129 -303q-126 -123 -348 -123h-346q-48 0 -72 26.5t-24 71.5zM299 156h254q134 0 219.5 74.5t85.5 195.5 q0 118 -81 193t-216 75h-262v-538zM299 842h205q111 0 176 65.5t65 169.5q0 105 -60 165.5t-175 60.5h-211v-461z" />
<glyph unicode="C" horiz-adv-x="1214" d="M63 729q0 146 43 278.5t122.5 236t205 165t279.5 61.5q88 0 169 -22t135 -55t86 -69.5t32 -66.5q0 -37 -21 -61.5t-53 -24.5q-19 0 -36 10t-50 36q-63 50 -120 74t-142 24q-114 0 -203.5 -50t-143.5 -134.5t-82 -187t-28 -214.5q0 -88 17 -171.5t53 -159t87.5 -132 t126 -90t162.5 -33.5q85 0 147.5 21.5t145.5 68.5q71 41 99 41q32 0 51.5 -23t19.5 -61q0 -46 -62 -92.5t-171 -78t-230 -31.5t-225 40t-179 109.5t-128.5 163.5t-80 202.5t-26.5 225.5z" />
<glyph unicode="D" horiz-adv-x="1290" d="M129 98v1262q0 46 24 72t72 26h355q155 0 280 -57t204 -156.5t121 -229t42 -278.5q0 -218 -74 -384t-216 -259.5t-333 -93.5h-379q-48 0 -72 26.5t-24 71.5zM309 156h258q121 0 213 47t146.5 129t81 184t26.5 221q0 95 -17 178t-54.5 154.5t-92.5 123t-135.5 81 t-179.5 29.5h-246v-1147z" />
<glyph unicode="E" horiz-adv-x="909" d="M119 98v1262q0 46 24 72t72 26h518q42 0 65 -21.5t23 -62.5t-23 -62.5t-65 -21.5h-434v-477h395q42 0 65 -21.5t23 -62.5t-23 -62.5t-65 -21.5h-395v-477h434q42 0 65 -21.5t23 -62.5t-23 -62.5t-65 -21.5h-518q-48 0 -72 26.5t-24 71.5z" />
<glyph unicode="F" horiz-adv-x="833" d="M119 84v1276q0 46 24 72t72 26h512q42 0 65 -21.5t23 -62.5t-23 -62.5t-65 -21.5h-428v-477h379q42 0 65 -21.5t23 -62.5t-23 -62.5t-65 -21.5h-379v-561q0 -44 -24.5 -70t-65.5 -26t-65.5 26t-24.5 70z" />
<glyph unicode="G" horiz-adv-x="1366" d="M63 729q0 117 26 225.5t80.5 202.5t132 163.5t187.5 109.5t240 40q103 0 199 -24.5t160 -60.5t102.5 -76t38.5 -72q0 -37 -24.5 -61.5t-61.5 -24.5q-22 0 -43 11t-62 40q-83 59 -152 86t-169 27q-93 0 -170 -33t-130 -89.5t-90 -132t-54 -159t-17 -172.5q0 -90 16.5 -173 t53.5 -159t91 -132t133 -89t175 -33q98 0 180.5 40t133 104.5t78.5 141t28 153.5v86h-254q-42 0 -65 21.5t-23 62.5t23 62.5t65 21.5h303q73 0 102 -32t29 -116q0 -116 -18 -215t-62.5 -190.5t-114 -155t-178.5 -101.5t-250 -38q-120 0 -224 40t-179.5 110.5t-129 164 t-80 202t-26.5 224.5z" />
<glyph unicode="H" horiz-adv-x="1366" d="M119 96v1266q0 108 90 108t90 -108v-553h768v553q0 108 90 108t90 -108v-1266q0 -108 -90 -108t-90 108v557h-768v-557q0 -108 -90 -108t-90 108z" />
<glyph unicode="I" d="M119 84v1290q0 44 24.5 70t65.5 26t65.5 -26t24.5 -70v-1290q0 -44 -24.5 -70t-65.5 -26t-65.5 26t-24.5 70z" />
<glyph unicode="J" horiz-adv-x="757" d="M-14 152q0 35 19 55t52 20q38 0 80 -32q40 -28 73 -40t89 -12q160 0 160 209v1022q0 44 24.5 70t65.5 26t65.5 -26t24.5 -70v-1003q0 -383 -354 -383q-39 0 -89 12t-97.5 32t-80 52.5t-32.5 67.5z" />
<glyph unicode="K" horiz-adv-x="1175" d="M119 84v1290q0 44 24.5 70t65.5 26t65.5 -26t24.5 -70v-532l625 571q34 33 54 45t44 12q35 0 56.5 -21t21.5 -56q0 -30 -8 -47t-29 -35l-598 -539l653 -631q37 -34 37 -73q0 -33 -26 -56.5t-62 -23.5q-47 0 -88 39l-680 667v-610q0 -44 -24.5 -70t-65.5 -26t-65.5 26 t-24.5 70z" />
<glyph unicode="L" horiz-adv-x="796" d="M119 98v1276q0 44 24.5 70t65.5 26t65.5 -26t24.5 -70v-1206h385q42 0 65 -21.5t23 -62.5t-23 -62.5t-65 -21.5h-469q-48 0 -72 26.5t-24 71.5z" />
<glyph unicode="M" horiz-adv-x="1708" d="M59 80q0 10 11 82l198 1171q23 137 142 137q56 0 86 -21.5t45 -72.5l311 -1067h4l311 1067q15 51 45.5 72.5t85.5 21.5q119 0 142 -137l198 -1171q11 -72 11 -82q0 -92 -84 -92q-86 0 -97 78l-170 1171h-4l-348 -1176q-12 -40 -33.5 -56.5t-58.5 -16.5t-58.5 16.5 t-33.5 56.5l-348 1176h-4l-170 -1171q-11 -78 -97 -78q-84 0 -84 92z" />
<glyph unicode="N" horiz-adv-x="1368" d="M119 84v1280q0 106 82 106q38 0 63 -19t64 -75l737 -1059h4v1057q0 44 24.5 70t65.5 26t65.5 -26t24.5 -70v-1280q0 -106 -82 -106q-38 0 -63 19t-64 75l-737 1059h-4v-1057q0 -44 -24.5 -70t-65.5 -26t-65.5 26t-24.5 70z" />
<glyph unicode="O" horiz-adv-x="1404" d="M63 729q0 145 43.5 277.5t122.5 236.5t202 165.5t271 61.5t271 -61.5t202 -165.5t122.5 -236.5t43.5 -277.5t-43.5 -277.5t-122.5 -236.5t-202 -165.5t-271 -61.5t-271 61.5t-202 165.5t-122.5 236.5t-43.5 277.5zM256 729q0 -89 15.5 -172t50 -159t85.5 -132 t126.5 -89.5t168.5 -33.5t169.5 33.5t127.5 89.5t85.5 132t49.5 159t15 172t-15 172t-49.5 159t-85.5 132t-127.5 89.5t-169.5 33.5t-168.5 -33.5t-126.5 -89.5t-85.5 -132t-50 -159t-15.5 -172z" />
<glyph unicode="P" horiz-adv-x="1062" d="M119 84v1276q0 46 24 72t72 26h356q212 0 342.5 -131.5t130.5 -327.5q0 -190 -134.5 -322t-331.5 -132h-279v-461q0 -44 -24.5 -70t-65.5 -26t-65.5 26t-24.5 70zM299 700h266q132 0 215 86q84 87 84 213q0 58 -18 111t-53.5 97t-96.5 70t-139 26h-258v-603z" />
<glyph unicode="Q" horiz-adv-x="1402" d="M63 729q0 145 43.5 277.5t122.5 236.5t202 165.5t271 61.5t271 -61.5t202 -165.5t122.5 -236.5t43.5 -277.5q0 -263 -127 -461l152 -149q35 -35 35 -72q0 -32 -22 -54t-56 -22q-37 0 -70 33l-143 141q-165 -157 -408 -157q-148 0 -271 61.5t-202 165.5t-122.5 236.5 t-43.5 277.5zM256 729q0 -89 15.5 -172t50 -159t85.5 -132t126.5 -89.5t168.5 -33.5q177 0 291 117l-121 119q-36 36 -36 67q0 36 22 59t57 23q36 0 68 -32l100 -99q66 147 66 332q0 89 -15 172t-49.5 159t-85.5 132t-127.5 89.5t-169.5 33.5t-168.5 -33.5t-126.5 -89.5 t-85.5 -132t-50 -159t-15.5 -172z" />
<glyph unicode="R" horiz-adv-x="1062" d="M119 84v1276q0 46 24 72t72 26h334q116 0 217.5 -48t165 -139.5t63.5 -205.5q0 -105 -30.5 -185t-85 -128.5t-125 -73.5t-156.5 -27l-78 -2l465 -510q35 -38 35 -82q0 -29 -23.5 -49t-58.5 -20q-44 0 -82 41l-557 610v-555q0 -44 -24.5 -70t-65.5 -26t-65.5 26t-24.5 70z M299 784h246q141 0 205.5 64t64.5 205q0 106 -76.5 178t-197.5 72h-242v-519z" />
<glyph unicode="S" horiz-adv-x="985" d="M43 164q0 40 20 66t56 26q23 0 82 -35q70 -40 125.5 -59t124.5 -19q134 0 217 86q82 85 82 211q0 103 -91 168q-66 47 -215 97q-107 37 -162 62t-106 64q-119 92 -119 265q0 66 30.5 132t84.5 120t137 88t178 34q139 0 249 -51t110 -119q0 -32 -23 -55.5t-55 -23.5 q-35 0 -84 32q-47 32 -91.5 47t-111.5 15q-101 0 -166 -57.5t-65 -149.5t84 -156q64 -41 207 -90q108 -39 166 -66.5t110 -68.5q125 -97 125 -278q0 -93 -33.5 -176t-95 -146.5t-156 -101t-208.5 -37.5q-99 0 -192 22.5t-153.5 64t-60.5 89.5z" />
<glyph unicode="T" horiz-adv-x="909" d="M4 1374q0 41 23 62.5t65 21.5h725q42 0 65 -21.5t23 -62.5t-23 -62.5t-65 -21.5h-272v-1206q0 -44 -24.5 -70t-65.5 -26t-65.5 26t-24.5 70v1206h-273q-42 0 -65 21.5t-23 62.5z" />
<glyph unicode="U" horiz-adv-x="1368" d="M119 578v796q0 44 24.5 70t65.5 26t65.5 -26t24.5 -70v-866q0 -169 105 -267t280 -98t280 98t105 267v866q0 44 24.5 70t65.5 26t65.5 -26t24.5 -70v-796q0 -137 -33.5 -243t-87.5 -170.5t-130 -105.5t-152 -56t-162 -15t-162 15t-152 56t-130 105.5t-87.5 170.5 t-33.5 243z" />
<glyph unicode="V" horiz-adv-x="1138" d="M8 1397q0 30 22.5 51.5t57.5 21.5q45 0 67 -24.5t42 -85.5l2 -6l368 -1063h4l369 1063l2 6q21 64 42.5 87t66.5 23q36 0 57.5 -21.5t21.5 -51.5q0 -33 -12 -70l-444 -1241q-20 -54 -42 -76t-63 -22t-62.5 22t-41.5 76l-445 1241q-12 37 -12 70z" />
<glyph unicode="W" horiz-adv-x="1708" d="M51 1389q0 35 22.5 58t59.5 23q86 0 98 -84l191 -1165h4l336 1178q21 71 92 71t92 -71l336 -1178h4l191 1165q12 84 98 84q37 0 59.5 -23t22.5 -58t-10 -93l-222 -1190q-11 -59 -40.5 -88.5t-88.5 -29.5t-90 24t-51 94l-299 1070h-4l-299 -1070q-20 -70 -51 -94t-90 -24 t-88.5 29.5t-40.5 88.5l-222 1190q-10 58 -10 93z" />
<glyph unicode="X" horiz-adv-x="1216" d="M18 63q0 29 29 74l457 645l-381 539q-29 43 -29 74q0 32 23.5 53.5t56.5 21.5q28 0 48 -11.5t44 -45.5l342 -500l342 500q24 34 44 45.5t48 11.5q33 0 56.5 -21.5t23.5 -53.5t-28 -74l-381 -539l456 -645q29 -45 29 -74q0 -30 -24.5 -52.5t-57.5 -22.5q-26 0 -46 11.5 t-44 45.5l-418 596l-418 -596q-24 -34 -44 -45.5t-46 -11.5q-31 0 -56.5 22.5t-25.5 52.5z" />
<glyph unicode="Y" horiz-adv-x="1024" d="M2 1397q0 32 23.5 52.5t58.5 20.5q56 0 90 -57l338 -551l338 551q34 57 90 57q35 0 58.5 -20.5t23.5 -52.5q0 -26 -29 -76l-391 -637v-600q0 -44 -24.5 -70t-65.5 -26t-65.5 26t-24.5 70v600l-391 637q-29 50 -29 76z" />
<glyph unicode="Z" horiz-adv-x="1138" d="M49 82q0 43 35 96l750 1125h-662q-88 0 -88 77q0 78 88 78h797q42 0 68 -18t26 -45q0 -29 -8.5 -51.5t-36.5 -63.5l-752 -1124h735q89 0 89 -78t-89 -78h-845q-107 0 -107 82z" />
<glyph unicode="[" horiz-adv-x="493" d="M156 -70v1442q0 46 24 72t72 26h141q32 0 55 -22.5t23 -54.5t-23 -55t-55 -23h-69v-1327h69q32 0 55 -23t23 -55t-23 -55t-55 -23h-141q-48 0 -72 26t-24 72z" />
<glyph unicode="\" horiz-adv-x="833" d="M41 1395q0 35 22 55t58 20q59 0 84 -61l559 -1255q29 -69 29 -91q0 -35 -22 -55t-58 -20q-59 0 -84 61l-559 1256q-29 69 -29 90z" />
<glyph unicode="]" horiz-adv-x="493" d="M23 -90q0 32 22.5 55t54.5 23h70v1327h-70q-32 0 -54.5 23t-22.5 55t22.5 54.5t54.5 22.5h142q48 0 72 -26t24 -72v-1442q0 -46 -24 -72t-72 -26h-142q-32 0 -54.5 23t-22.5 55z" />
<glyph unicode="^" horiz-adv-x="1228" d="M115 659q0 32 28 78l7 11l358 638q25 45 48 64.5t58 19.5t58.5 -20t48.5 -64l358 -638l6 -11q29 -48 29 -78q0 -29 -22 -48t-54 -19q-31 0 -50.5 18.5t-47.5 75.5l-4 8l-322 596l-321 -596l-4 -8q-27 -56 -47.5 -75t-51.5 -19q-32 0 -53.5 19t-21.5 48z" />
<glyph unicode="_" horiz-adv-x="1024" d="M-59 -205q0 51 59 51h1024q59 0 59 -51t-59 -51h-1024q-59 0 -59 51z" />
<glyph unicode="`" d="M-18 1434q0 32 21.5 59t55.5 27q25 0 70 -19l236 -96q71 -30 71 -76q0 -32 -21.5 -59t-56.5 -27q-24 0 -69 19l-236 96q-71 28 -71 76z" />
<glyph unicode="a" horiz-adv-x="1138" d="M72 545q0 110 33 210t93 177.5t151.5 123.5t201.5 46q89 0 159.5 -35.5t137.5 -110.5h4v58q0 41 25 64.5t59 23.5q33 0 58.5 -24t25.5 -64v-938q0 -40 -25.5 -64t-58.5 -24q-34 0 -59 23.5t-25 64.5v76h-4q-114 -164 -297 -164q-110 0 -201.5 46t-151.5 123.5t-93 177.5 t-33 210zM252 545q0 -76 17 -145t51.5 -128t94 -94t136.5 -35t136.5 35t94 94t51.5 128t17 145t-17 145t-51.5 127.5t-94 93.5t-136.5 35t-136.5 -35t-94 -93.5t-51.5 -127.5t-17 -145z" />
<glyph unicode="b" horiz-adv-x="1138" d="M127 84v1401q0 44 24.5 70t65.5 26t65.5 -26t24.5 -70v-531h4q44 64 121 106t170 42q140 0 248 -79t162.5 -204.5t54.5 -273.5t-54.5 -273.5t-162.5 -204.5t-248 -79q-215 0 -291 149h-4v-53q0 -44 -24.5 -70t-65.5 -26t-65.5 26t-24.5 70zM289 545q0 -76 17 -145 t51.5 -128t94 -94t136.5 -35t136.5 35t94 94t51.5 128t17 145t-17 145t-51.5 127.5t-94 93.5t-136.5 35t-136.5 -35t-94 -93.5t-51.5 -127.5t-17 -145z" />
<glyph unicode="c" horiz-adv-x="909" d="M72 545q0 112 31.5 211.5t91 177t154.5 123t214 45.5q131 0 212 -39.5t81 -97.5q0 -30 -22 -53t-52 -23q-28 0 -77 22q-39 19 -68.5 27t-73.5 8q-78 0 -139.5 -35.5t-98 -94t-55 -128t-18.5 -143.5t18.5 -143.5t55 -128.5t98 -94.5t139.5 -35.5q79 0 152 39q48 23 65 23 q70 0 70 -76q0 -58 -80 -99.5t-207 -41.5q-119 0 -214 45.5t-154.5 123t-91 177t-31.5 211.5z" />
<glyph unicode="d" horiz-adv-x="1138" d="M72 545q0 147 55 273t162.5 205t247.5 79q93 0 169.5 -42t120.5 -106h4v531q0 44 25 70t66 26t65.5 -26t24.5 -70v-1401q0 -44 -24.5 -70t-65.5 -26t-66 26t-25 70v53h-4q-76 -149 -290 -149q-140 0 -248 79t-162.5 204.5t-54.5 273.5zM252 545q0 -76 17 -145t51.5 -128 t94 -94t136.5 -35t136.5 35t94 94t51.5 128t17 145t-17 145t-51.5 127.5t-94 93.5t-136.5 35t-136.5 -35t-94 -93.5t-51.5 -127.5t-17 -145z" />
<glyph unicode="e" horiz-adv-x="1064" d="M53 545q0 112 35 213t97.5 177.5t155.5 121.5t202 45q106 0 195.5 -45.5t148.5 -120.5t92 -170t33 -195q0 -51 -22.5 -73.5t-78.5 -22.5h-678q0 -145 88 -238.5t234 -93.5q95 0 158.5 25.5t134.5 81.5q53 41 76 41q27 0 46 -22t19 -58q0 -44 -64.5 -96t-168 -89.5 t-203.5 -37.5q-124 0 -221.5 45t-157.5 123t-90.5 177t-30.5 212zM233 610h598q0 62 -18.5 120.5t-53 107.5t-90.5 78.5t-126 29.5q-79 0 -139.5 -28t-96 -76.5t-54 -106.5t-20.5 -125z" />
<glyph unicode="f" horiz-adv-x="530" d="M12 1012q0 78 90 78h74v256q0 112 66 173.5t174 61.5h55q40 0 71 -22t31 -56q0 -78 -98 -78h-45q-74 0 -74 -71v-264h113q90 0 90 -78t-90 -78h-113v-850q0 -44 -24.5 -70t-65.5 -26t-65.5 26t-24.5 70v850h-74q-90 0 -90 78z" />
<glyph unicode="g" horiz-adv-x="1138" d="M72 545q0 110 33 210t93 177.5t151.5 123.5t201.5 46q79 0 157.5 -40.5t118.5 -96.5h4v49q0 43 27 65.5t70 22.5q33 0 58.5 -24t25.5 -64v-936q0 -238 -135 -379t-357 -141q-90 0 -188.5 30.5t-164 77t-65.5 90.5q0 35 20 59.5t56 24.5q33 0 103 -43q72 -44 127 -64 t127 -20q80 0 139.5 29t92.5 78.5t48.5 106.5t15.5 122v94h-4q-43 -73 -115 -114t-161 -41q-110 0 -201.5 46t-151.5 123.5t-93 177.5t-33 210zM252 545q0 -76 17 -145t51.5 -128t94 -94t136.5 -35t136.5 35t94 94t51.5 128t17 145t-17 145t-51.5 127.5t-94 93.5t-136.5 35 t-136.5 -35t-94 -93.5t-51.5 -127.5t-17 -145z" />
<glyph unicode="h" horiz-adv-x="1101" d="M119 84v1401q0 44 24.5 70t65.5 26t65.5 -26t24.5 -70v-522l4 -5q112 144 301 144q69 0 134 -23.5t121 -70.5t90 -130t34 -190v-604q0 -44 -24.5 -70t-65.5 -26t-65.5 26t-24.5 70v594q0 127 -73 197.5t-179 70.5t-179 -70.5t-73 -197.5v-594q0 -44 -24.5 -70t-65.5 -26 t-65.5 26t-24.5 70z" />
<glyph unicode="i" d="M98 1360q0 44 33.5 77t77.5 33t77 -33t33 -77t-33 -77.5t-77 -33.5t-77.5 33.5t-33.5 77.5zM119 84v922q0 44 24.5 70t65.5 26t65.5 -26t24.5 -70v-922q0 -44 -24.5 -70t-65.5 -26t-65.5 26t-24.5 70z" />
<glyph unicode="j" d="M98 1360q0 44 33.5 77t77.5 33t77 -33t33 -77t-33 -77.5t-77 -33.5t-77.5 33.5t-33.5 77.5zM119 -346v1352q0 44 24.5 70t65.5 26t65.5 -26t24.5 -70v-1352q0 -44 -24.5 -70t-65.5 -26t-65.5 26t-24.5 70z" />
<glyph unicode="k" horiz-adv-x="948" d="M119 84v1401q0 44 24.5 70t65.5 26t65.5 -26t24.5 -70v-768l393 330q68 55 103 55t55 -22t20 -58q0 -42 -45 -78l-409 -323l475 -469q43 -43 43 -93q0 -30 -22.5 -50.5t-53.5 -20.5t-51 10t-53 45l-455 475v-434q0 -44 -24.5 -70t-65.5 -26t-65.5 26t-24.5 70z" />
<glyph unicode="l" d="M119 84v1401q0 44 24.5 70t65.5 26t65.5 -26t24.5 -70v-1401q0 -44 -24.5 -70t-65.5 -26t-65.5 26t-24.5 70z" />
<glyph unicode="m" horiz-adv-x="1708" d="M119 84v922q0 44 24.5 70t65.5 26t65.5 -26t24.5 -70v-33l4 -4q49 66 111 99.5t164 33.5q192 0 299 -184q64 94 143.5 139t189.5 45q69 0 134 -23.5t121 -70.5t90 -130t34 -190v-604q0 -44 -24.5 -70t-65.5 -26t-65.5 26t-24.5 70v610q0 118 -61.5 185t-171.5 67 q-108 0 -170 -67.5t-62 -184.5v-610q0 -44 -24.5 -70t-65.5 -26t-65.5 26t-24.5 70v610q0 117 -62 184.5t-172 67.5q-108 0 -169.5 -67.5t-61.5 -184.5v-610q0 -44 -24.5 -70t-65.5 -26t-65.5 26t-24.5 70z" />
<glyph unicode="n" horiz-adv-x="1101" d="M119 84v922q0 44 24.5 70t65.5 26t65.5 -26t24.5 -70v-43l4 -5q112 144 301 144q69 0 134 -23.5t121 -70.5t90 -130t34 -190v-604q0 -44 -24.5 -70t-65.5 -26t-65.5 26t-24.5 70v594q0 127 -73 197.5t-179 70.5t-179 -70.5t-73 -197.5v-594q0 -44 -24.5 -70t-65.5 -26 t-65.5 26t-24.5 70z" />
<glyph unicode="o" horiz-adv-x="1101" d="M72 545q0 110 33 210t93 177.5t151.5 123.5t201.5 46t201.5 -46t151.5 -123.5t93 -177.5t33 -210t-33 -210t-93 -177.5t-151.5 -123.5t-201.5 -46t-201.5 46t-151.5 123.5t-93 177.5t-33 210zM252 545q0 -76 17 -145t51.5 -128t94 -94t136.5 -35t136.5 35t94 94t51.5 128 t17 145t-17 145t-51.5 127.5t-94 93.5t-136.5 35t-136.5 -35t-94 -93.5t-51.5 -127.5t-17 -145z" />
<glyph unicode="p" horiz-adv-x="1138" d="M127 -346v1352q0 44 24.5 70t65.5 26t65.5 -26t24.5 -70v-54h4q77 150 291 150q140 0 248 -79t162.5 -204.5t54.5 -273.5t-54.5 -273.5t-162.5 -204.5t-248 -79q-94 0 -170.5 41.5t-120.5 105.5h-4v-481q0 -44 -24.5 -70t-65.5 -26t-65.5 26t-24.5 70zM289 545 q0 -76 17 -145t51.5 -128t94 -94t136.5 -35t136.5 35t94 94t51.5 128t17 145t-17 145t-51.5 127.5t-94 93.5t-136.5 35t-136.5 -35t-94 -93.5t-51.5 -127.5t-17 -145z" />
<glyph unicode="q" horiz-adv-x="1138" d="M72 545q0 147 55 273t162.5 205t247.5 79q213 0 290 -150h4v54q0 44 25 70t66 26t65.5 -26t24.5 -70v-1352q0 -44 -24.5 -70t-65.5 -26t-66 26t-25 70v481h-4q-44 -64 -120.5 -105.5t-169.5 -41.5q-140 0 -248 79t-162.5 204.5t-54.5 273.5zM252 545q0 -76 17 -145 t51.5 -128t94 -94t136.5 -35t136.5 35t94 94t51.5 128t17 145t-17 145t-51.5 127.5t-94 93.5t-136.5 35t-136.5 -35t-94 -93.5t-51.5 -127.5t-17 -145z" />
<glyph unicode="r" horiz-adv-x="645" d="M119 84v922q0 44 24.5 70t65.5 26t65.5 -26t24.5 -70v-93h4q35 71 105 129q72 60 141 60q47 0 73.5 -25t26.5 -67q0 -78 -112 -99q-46 -8 -85.5 -28t-75 -55.5t-56.5 -93.5t-21 -132v-518q0 -44 -24.5 -70t-65.5 -26t-65.5 26t-24.5 70z" />
<glyph unicode="s" horiz-adv-x="909" d="M49 195q0 35 21.5 58t52.5 23q34 0 96 -45q63 -45 118 -66.5t128 -21.5q91 0 151 44.5t60 103.5q0 62 -55.5 102.5t-196.5 100.5q-92 37 -139.5 60t-89.5 54q-101 75 -101 187q0 71 32 130.5t84.5 97.5t118.5 58.5t136 20.5q79 0 161.5 -24.5t141.5 -70t59 -98.5 q0 -32 -22.5 -52.5t-59.5 -20.5q-19 0 -34.5 7.5t-48.5 30.5q-49 37 -92 54.5t-105 17.5q-84 0 -137.5 -36.5t-53.5 -100.5q0 -52 51.5 -87t184.5 -87q169 -65 238 -117q108 -77 108 -194q0 -162 -117 -250q-118 -86 -280 -86q-108 0 -204.5 32t-151 80t-54.5 95z" />
<glyph unicode="t" horiz-adv-x="532" d="M12 1012q0 78 90 78h74v235q0 44 24.5 70t65.5 26t65.5 -26t24.5 -70v-235h74q90 0 90 -78t-90 -78h-74v-850q0 -44 -24.5 -70t-65.5 -26t-65.5 26t-24.5 70v850h-74q-90 0 -90 78z" />
<glyph unicode="u" horiz-adv-x="1101" d="M119 422v584q0 44 24.5 70t65.5 26t65.5 -26t24.5 -70v-578q0 -285 252 -285t252 285v578q0 44 24.5 70t65.5 26t65.5 -26t24.5 -70v-584q0 -113 -35 -198.5t-96.5 -136t-137 -75t-163.5 -24.5t-163.5 24.5t-137 75t-96.5 136t-35 198.5z" />
<glyph unicode="v" horiz-adv-x="872" d="M10 1018q0 37 24.5 60.5t57.5 23.5q40 0 60.5 -16.5t33.5 -53.5l248 -753h4l248 753q13 37 33.5 53.5t60.5 16.5q36 0 59 -23t23 -61q0 -24 -18 -74l-314 -878q-16 -44 -35 -61t-59 -17t-59 17t-35 61l-313 878q-19 52 -19 74z" />
<glyph unicode="w" horiz-adv-x="1519" d="M4 1022q0 33 23.5 56.5t62.5 23.5q37 0 60 -20t40 -72l232 -744h4l227 717q23 69 44 94t63 25t62.5 -24.5t43.5 -94.5l228 -717h4l231 744q29 92 101 92q41 0 63.5 -23.5t22.5 -56.5q0 -24 -15 -70l-299 -870q-17 -51 -41.5 -72.5t-62.5 -21.5q-37 0 -61.5 22t-41.5 72 l-233 735h-4l-234 -735q-17 -51 -41 -72.5t-61 -21.5q-39 0 -63.5 21.5t-41.5 72.5l-299 870q-14 43 -14 70z" />
<glyph unicode="x" horiz-adv-x="950" d="M12 70q0 37 37 86l322 422l-283 370q-31 42 -31 72q0 35 22 58.5t54 23.5q50 0 78 -41l264 -352l264 352q28 41 78 41q32 0 54 -23.5t22 -58.5q0 -30 -31 -72l-282 -370l321 -422q37 -49 37 -86q0 -35 -23.5 -58.5t-58.5 -23.5q-53 0 -80 41l-301 417l-301 -417 q-27 -41 -80 -41q-35 0 -58.5 23.5t-23.5 58.5z" />
<glyph unicode="y" horiz-adv-x="909" d="M35 1026q0 32 24.5 54t57.5 22q32 0 55.5 -18.5t34.5 -49.5l250 -747h4l246 747q21 68 86 68q33 0 57 -22t24 -54q0 -29 -24 -100l-455 -1301q-24 -67 -88 -67q-33 0 -57.5 21.5t-24.5 53.5q0 34 27 101l115 305l-308 887q-24 71 -24 100z" />
<glyph unicode="z" horiz-adv-x="909" d="M41 63q0 41 37 93l520 778h-446q-91 0 -91 78t91 78h606q45 0 66.5 -18t21.5 -46q0 -40 -37 -92l-526 -774l6 -4h489q90 0 90 -78t-90 -78h-649q-45 0 -66.5 17.5t-21.5 45.5z" />
<glyph unicode="{" horiz-adv-x="493" d="M-31 651q0 32 20 49t70 29q33 9 52.5 26t29 52.5t12.5 76.5t3 115v250q0 221 209 221h77q82 0 82 -61t-82 -61h-28q-41 0 -65.5 -27t-24.5 -72v-323q0 -250 -187 -273v-4q187 -23 187 -272v-324q0 -44 24.5 -71t65.5 -27h28q82 0 82 -61q0 -62 -82 -62h-77 q-209 0 -209 221v250q0 143 -17 197.5t-80 72.5q-50 14 -70 31t-20 47z" />
<glyph unicode="|" horiz-adv-x="454" d="M143 -512v2048q0 42 21.5 65t62.5 23t62.5 -23t21.5 -65v-2048q0 -42 -21.5 -65t-62.5 -23t-62.5 23t-21.5 65z" />
<glyph unicode="}" horiz-adv-x="493" d="M-31 -106q0 61 82 61h29q41 0 65.5 27t24.5 71v324q0 249 186 272v4q-186 23 -186 273v323q0 45 -24.5 72t-65.5 27h-29q-82 0 -82 61t82 61h78q209 0 209 -221v-250q0 -142 17 -197t79 -73q53 -15 71.5 -31t18.5 -47t-20.5 -48.5t-69.5 -29.5q-62 -16 -79 -71t-17 -199 v-250q0 -221 -209 -221h-78q-82 0 -82 62z" />
<glyph unicode="~" horiz-adv-x="1228" d="M131 430q0 87 85.5 161.5t180.5 74.5q60 0 114.5 -16.5t127.5 -53.5l14 -6q20 -9 54.5 -25t48.5 -22t34 -11.5t35 -5.5q27 0 46 15t47 51q34 43 55 59t53 15q30 0 51 -18t21 -42q0 -85 -86 -160t-181 -75q-58 0 -110.5 16t-130.5 53l-15 9q-108 61 -172 61 q-27 0 -45.5 -14.5t-46.5 -51.5q-34 -43 -55 -58.5t-53 -14.5q-30 0 -51 17.5t-21 41.5z" />
<glyph unicode="&#xa1;" horiz-adv-x="606" d="M199 997q0 43 30.5 74t73.5 31t74 -31t31 -74t-31 -73.5t-74 -30.5t-73.5 30.5t-30.5 73.5zM213 -285v887q0 44 24.5 70t65.5 26t65.5 -26t24.5 -70v-887q0 -44 -24.5 -70t-65.5 -26t-65.5 26t-24.5 70z" />
<glyph unicode="&#xa2;" horiz-adv-x="909" d="M72 545q0 210 100 360q101 154 293 189v118q0 43 43 43t43 -43v-110q138 0 221.5 -39t83.5 -98q0 -30 -22 -53t-52 -23q-26 0 -75 22q-41 19 -73 27t-83 8v-803q54 0 89 9.5t77 31.5q41 21 63 21q70 0 70 -76q0 -58 -82 -99.5t-217 -41.5v-111q0 -43 -43 -43t-43 43v121 q-192 35 -293 186q-100 150 -100 361zM252 545q0 -135 55.5 -241.5t157.5 -141.5v768q-102 -37 -157.5 -143.5t-55.5 -241.5z" />
<glyph unicode="&#xa3;" horiz-adv-x="1214" d="M61 731q0 41 23.5 62.5t65.5 21.5h157q-53 96 -76.5 161t-23.5 132q0 102 62.5 186t163.5 130t216 46q87 0 174 -34t151 -86t104 -117t40 -125q0 -41 -23.5 -64.5t-62.5 -23.5q-35 0 -55 21t-47 77q-23 48 -40 74.5t-46 50.5q-70 60 -193 60q-106 0 -186 -56 q-78 -57 -78 -151q0 -53 17.5 -98.5t62.5 -129.5l29 -53h264q42 0 65 -21.5t23 -62.5t-23 -62.5t-65 -21.5h-223q0 -6 2 -10q12 -71 12 -125q0 -76 -49 -174q-46 -98 -127 -170h690q42 0 65 -21.5t23 -62.5t-23 -62.5t-65 -21.5h-819q-53 0 -81 19.5t-28 66.5q0 21 15 42.5 t59 68.5q84 88 122 156t38 161q0 72 -15 133h-206q-42 0 -65.5 21.5t-23.5 62.5z" />
<glyph unicode="&#xa4;" horiz-adv-x="1097" d="M41 729q0 193 100 305l-69 72q-29 29 -29 57q0 29 22.5 51.5t47.5 22.5q20 0 43 -23l86 -88q117 111 307 111t307 -111l86 88q23 23 43 23q25 0 47.5 -22.5t22.5 -51.5q0 -28 -29 -57l-70 -72q101 -113 101 -305t-101 -305l70 -72q29 -29 29 -57q0 -29 -22.5 -51.5 t-47.5 -22.5q-20 0 -43 23l-86 88q-117 -111 -307 -111t-307 111l-86 -88q-23 -23 -43 -23q-25 0 -47.5 22.5t-22.5 51.5q0 28 29 57l69 72q-100 112 -100 305zM209 729q0 -152 99.5 -252t240.5 -100t240.5 100t99.5 252t-99.5 252t-240.5 100t-240.5 -100t-99.5 -252z" />
<glyph unicode="&#xa5;" horiz-adv-x="1097" d="M16 1403q0 28 22.5 47.5t49.5 19.5q55 0 94 -57l367 -551l366 551q39 57 95 57q27 0 49 -19.5t22 -47.5q0 -35 -30 -82l-328 -506h197q38 0 61 -17.5t23 -49.5t-23 -50t-61 -18h-281v-145h281q38 0 61 -18t23 -50t-23 -50t-61 -18h-281v-315q0 -44 -24.5 -70t-65.5 -26 t-65.5 26t-24.5 70v315h-281q-38 0 -61 18t-23 50t23 50t61 18h281v145h-281q-38 0 -61 18t-23 50t23 49.5t61 17.5h197l-328 506q-31 48 -31 82z" />
<glyph unicode="&#xa6;" horiz-adv-x="454" d="M143 -270v540q0 42 21.5 65t62.5 23t62.5 -23t21.5 -65v-540q0 -42 -21.5 -65t-62.5 -23t-62.5 23t-21.5 65zM143 754v540q0 42 21.5 65t62.5 23t62.5 -23t21.5 -65v-540q0 -42 -21.5 -65t-62.5 -23t-62.5 23t-21.5 65z" />
<glyph unicode="&#xa7;" horiz-adv-x="1138" d="M57 553q0 123 61.5 204.5t188.5 145.5q-74 54 -103.5 105.5t-29.5 126.5q0 157 117.5 246t314.5 89q87 0 166.5 -28t134 -72.5t87 -100t32.5 -108.5q0 -40 -22.5 -67t-59.5 -27q-34 0 -52 18.5t-46 71.5q-19 38 -34 60t-43 47.5t-71.5 37.5t-103.5 13q-104 2 -172 -46 t-68 -126q0 -73 63.5 -121.5t229.5 -120.5q115 -49 178 -82.5t121 -81.5q135 -109 135 -274q0 -99 -62 -194.5t-161 -151.5q133 -89 133 -242q0 -95 -63.5 -169t-161 -111.5t-205.5 -36.5q-105 1 -196 33t-147 78t-88 95t-32 89q0 102 90 102q34 0 55 -18.5t50 -67.5 q39 -72 84 -107q62 -49 180 -49q116 0 185 46.5t69 117.5t-67.5 121t-237.5 121q-116 49 -181.5 82.5t-127.5 79.5q-140 110 -140 272zM238 567q0 -73 59.5 -130t194.5 -124l233 -114q100 75 138 133.5t38 124.5q0 80 -37.5 131.5t-144.5 101.5l-256 119q-113 -47 -169 -103 t-56 -139z" />
<glyph unicode="&#xa8;" d="M-92 1348q0 44 33 77t77 33t77.5 -33t33.5 -77t-33.5 -77.5t-77.5 -33.5t-77 33.5t-33 77.5zM289 1348q0 44 33 77t77 33t77.5 -33t33.5 -77t-33.5 -77.5t-77.5 -33.5t-77 33.5t-33 77.5z" />
<glyph unicode="&#xa9;" horiz-adv-x="1638" d="M78 729q0 150 59 287.5t158 236.5t236.5 158t287.5 59t287.5 -59t237 -158t158.5 -236.5t59 -287.5t-59 -287.5t-158.5 -236.5t-237 -158t-287.5 -59t-287.5 59t-236.5 158t-158 236.5t-59 287.5zM246 729q0 -158 78.5 -293.5t210.5 -214t284 -78.5q114 0 220 46.5 t183.5 125t124 187.5t46.5 227t-46.5 227t-124 187.5t-183.5 125t-220 46.5q-152 0 -284 -78.5t-210.5 -214t-78.5 -293.5zM389 733q0 199 119 324q120 129 315 129q86 0 159.5 -28.5t116.5 -70.5t67 -84.5t24 -76.5q0 -58 -68 -58q-29 0 -48 15t-44 53q-40 61 -84 88 t-123 27q-125 0 -195.5 -87t-70.5 -231q0 -130 74 -225q74 -92 192 -92q82 0 128.5 29t90.5 94q28 38 43.5 51.5t38.5 13.5q28 0 47 -14t19 -43q0 -31 -25 -74.5t-69 -87t-117 -74t-156 -30.5q-190 0 -312 129.5t-122 322.5z" />
<glyph unicode="&#xaa;" horiz-adv-x="739" d="M59 1137q0 142 86 237q87 96 226 96q58 0 98 -21t72 -65h4v33q0 26 18.5 39.5t48.5 13.5t49 -14t19 -39v-563q0 -25 -19 -39t-49 -14t-48.5 13.5t-18.5 39.5v33h-4q-32 -44 -72 -65t-98 -21q-141 0 -226 94q-86 95 -86 242zM207 1137q0 -89 48 -151t122 -62t122 62 t48 151q0 88 -48 149.5t-122 61.5t-122 -61.5t-48 -149.5z" />
<glyph unicode="&#xab;" horiz-adv-x="833" d="M78 549l203 364q31 54 69 54q34 0 58 -19t24 -53q0 -27 -22 -64l-170 -282l170 -283q22 -37 22 -63q0 -34 -24 -53t-58 -19q-39 0 -69 53zM401 549l203 364q31 54 70 54q34 0 58 -19t24 -53q0 -25 -23 -64l-170 -282l170 -283q23 -39 23 -63q0 -34 -24 -53t-58 -19 q-40 0 -70 53z" />
<glyph unicode="&#xac;" horiz-adv-x="1228" d="M96 731q0 41 23 62.5t65 21.5h865q41 0 62.5 -23t21.5 -65v-418q0 -42 -21.5 -65t-62.5 -23t-62.5 23t-21.5 65v338h-781q-42 0 -65 21.5t-23 62.5z" />
<glyph unicode="&#xad;" horiz-adv-x="1228" d="M96 518q0 41 23 62.5t65 21.5h860q42 0 65.5 -21.5t23.5 -62.5t-23.5 -62.5t-65.5 -21.5h-860q-42 0 -65 21.5t-23 62.5z" />
<glyph unicode="&#xae;" horiz-adv-x="1638" d="M78 729q0 150 59 287.5t158 236.5t236.5 158t287.5 59t287.5 -59t237 -158t158.5 -236.5t59 -287.5t-59 -287.5t-158.5 -236.5t-237 -158t-287.5 -59t-287.5 59t-236.5 158t-158 236.5t-59 287.5zM246 729q0 -158 78.5 -293.5t210.5 -214t284 -78.5q114 0 220 46.5 t183.5 125t124 187.5t46.5 227t-46.5 227t-124 187.5t-183.5 125t-220 46.5q-152 0 -284 -78.5t-210.5 -214t-78.5 -293.5zM514 365v735q0 43 47 43h270q162 0 236 -56t74 -188q0 -209 -211 -235l182 -279q21 -29 21 -51q0 -16 -22.5 -25.5t-53.5 -9.5t-49 10t-33 35 l-195 313h-131v-292q0 -66 -67 -66q-68 0 -68 66zM649 780h156q107 0 154 26t47 103q0 65 -47 88t-142 23h-168v-240z" />
<glyph unicode="&#xaf;" d="M-86 1327q0 41 23 62.5t65 21.5h414q42 0 65 -21.5t23 -62.5t-23 -62.5t-65 -21.5h-414q-42 0 -65 21.5t-23 62.5z" />
<glyph unicode="&#xb0;" horiz-adv-x="819" d="M117 1178q0 120 86 206t207 86q120 0 206 -86t86 -206q0 -121 -86 -207t-206 -86q-121 0 -207 86t-86 207zM227 1178q0 -75 54 -129t129 -54t128.5 54t53.5 129t-53.5 128.5t-128.5 53.5t-129 -53.5t-54 -128.5z" />
<glyph unicode="&#xb1;" horiz-adv-x="1228" d="M96 84q0 41 23 62.5t65 21.5h860q42 0 65.5 -21.5t23.5 -62.5t-23.5 -62.5t-65.5 -21.5h-860q-42 0 -65 21.5t-23 62.5zM96 639q0 41 23 62.5t65 21.5h346v225q0 42 21.5 65t62.5 23t62.5 -23t21.5 -65v-225h346q42 0 65.5 -21.5t23.5 -62.5t-23.5 -62.5t-65.5 -21.5 h-346v-225q0 -42 -21.5 -65t-62.5 -23t-62.5 23t-21.5 65v225h-346q-42 0 -65 21.5t-23 62.5z" />
<glyph unicode="&#xb2;" horiz-adv-x="712" d="M63 639q0 16 25 47l350 444q54 69 54 115q0 45 -36.5 74t-95.5 29q-72 0 -122 -56q-50 -53 -50 -112q0 -24 -16.5 -37t-42.5 -13q-63 0 -63 68q0 116 83 194t220 78q127 0 198.5 -62t71.5 -159q0 -46 -17 -84.5t-57 -87.5l-297 -358h303q78 0 78 -62q0 -61 -78 -61h-446 q-30 0 -46 13.5t-16 29.5z" />
<glyph unicode="&#xb3;" horiz-adv-x="712" d="M61 799q0 28 15 46.5t43 18.5q20 0 33 -10.5t26 -40.5q26 -57 64.5 -81.5t101.5 -24.5q66 0 113 44.5t47 110.5q0 129 -137 129q-57 0 -76 12t-19 39q0 26 14.5 39t47.5 21q65 13 93 46t28 91q0 44 -35.5 76.5t-89.5 32.5q-57 0 -91 -28.5t-42 -72.5q-4 -28 -18.5 -37.5 t-41.5 -9.5q-51 0 -51 57q0 94 67.5 153.5t182.5 59.5q122 0 194 -63t72 -162q0 -57 -29.5 -106.5t-83.5 -79.5q77 -23 119.5 -79t42.5 -132q0 -117 -89.5 -190.5t-227.5 -73.5q-126 0 -199 67q-74 68 -74 148z" />
<glyph unicode="&#xb4;" d="M-18 1329q0 48 71 76l236 96q45 19 69 19q35 0 56.5 -27t21.5 -59q0 -46 -71 -76l-236 -96q-45 -19 -70 -19q-34 0 -55.5 27t-21.5 59z" />
<glyph unicode="&#xb5;" horiz-adv-x="1101" d="M119 -346v1352q0 44 24.5 70t65.5 26t65.5 -26t24.5 -70v-578q0 -154 58 -219.5t194 -65.5q139 0 195.5 65t56.5 220v578q0 44 24.5 70t65.5 26t65.5 -26t24.5 -70v-922q0 -44 -24.5 -70t-65.5 -26q-69 0 -84 59q-100 -59 -258 -59q-165 0 -252 94v-428q0 -44 -24.5 -70 t-65.5 -26t-65.5 26t-24.5 70z" />
<glyph unicode="&#xb6;" horiz-adv-x="1228" d="M57 1083q0 173 136.5 274t386.5 101h391q48 0 72 -26t24 -72v-1714q0 -42 -21.5 -65t-62.5 -23t-62.5 23t-21.5 65v1677h-235v-1677q0 -42 -21.5 -65t-62.5 -23t-62.5 23t-21.5 65v1059q-199 0 -318 104q-121 109 -121 274z" />
<glyph unicode="&#xb7;" horiz-adv-x="512" d="M145 621q0 44 33.5 77t77.5 33t77.5 -33t33.5 -77t-33.5 -77.5t-77.5 -33.5t-77.5 33.5t-33.5 77.5z" />
<glyph unicode="&#xb8;" d="M123 -297q0 24 11.5 39.5t31.5 15.5q14 0 45 -8q39 -8 61 -8q72 0 72 55q0 24 -17 30.5t-73 6.5q-29 0 -45 12.5t-16 26.5q0 22 20 51l53 76h109l-60 -86q7 0 7 2q28 4 36 4q60 0 101 -36t41 -77q0 -88 -60 -132t-168 -44q-66 0 -107.5 20t-41.5 52z" />
<glyph unicode="&#xb9;" horiz-adv-x="468" d="M16 1397q0 61 58 61h213q39 0 39 -28v-773q0 -36 -20 -54.5t-54 -18.5q-32 0 -53 19t-21 54v678h-104q-58 0 -58 62z" />
<glyph unicode="&#xba;" horiz-adv-x="716" d="M47 1137q0 142 86 237q87 96 225 96q139 0 226 -96q86 -95 86 -237q0 -147 -86 -242q-82 -94 -226 -94q-140 0 -225 94q-86 95 -86 242zM195 1137q0 -89 46 -151t117 -62t117.5 62t46.5 151q0 88 -46.5 149.5t-117.5 61.5t-117 -61.5t-46 -149.5z" />
<glyph unicode="&#xbb;" horiz-adv-x="833" d="M78 203q0 26 22 63l170 283l-170 282q-22 37 -22 64q0 34 24 53t58 19q38 0 69 -54l203 -364l-203 -365q-30 -53 -69 -53q-34 0 -58 19t-24 53zM401 203q0 24 23 63l170 283l-170 282q-23 39 -23 64q0 34 24 53t58 19q39 0 70 -54l203 -364l-203 -365q-30 -53 -70 -53 q-34 0 -58 19t-24 53z" />
<glyph unicode="&#xbc;" horiz-adv-x="1648" d="M74 1397q0 61 57 61h213q39 0 39 -28v-773q0 -36 -20 -54.5t-54 -18.5q-32 0 -52.5 19t-20.5 54v678h-105q-57 0 -57 62zM385 27q0 23 29 92l544 1306q24 62 72 62q33 0 52.5 -16.5t19.5 -38.5q0 -24 -29 -93l-545 -1306q-24 -62 -75 -62q-30 0 -49 16t-19 40zM911 248 q0 26 29 71l326 490q44 65 102 65q48 0 75 -23t27 -67v-462h50q24 0 39.5 -17.5t15.5 -44.5t-15.5 -44t-39.5 -17h-50v-148q0 -63 -73 -63q-74 0 -74 63v148h-365q-22 0 -34.5 14t-12.5 35zM1081 322h242v405h-4z" />
<glyph unicode="&#xbd;" horiz-adv-x="1648" d="M74 1397q0 61 57 61h213q39 0 39 -28v-773q0 -36 -20 -54.5t-54 -18.5q-32 0 -52.5 19t-20.5 54v678h-105q-57 0 -57 62zM324 27q0 25 28 92l545 1306q24 62 72 62q33 0 52 -16.5t19 -38.5q0 -26 -28 -93l-545 -1306q-24 -62 -76 -62q-30 0 -48.5 16t-18.5 40zM928 43 q0 17 24 47l351 445q53 68 53 114q0 45 -36 74t-95 29q-73 0 -123 -56q-49 -52 -49 -112q0 -24 -17 -36.5t-43 -12.5q-63 0 -63 67q0 116 83 194t220 78q127 0 198.5 -62t71.5 -159q0 -46 -17 -84.5t-56 -87.5l-297 -358h303q77 0 77 -62q0 -61 -77 -61h-447q-29 0 -45 13.5 t-16 29.5z" />
<glyph unicode="&#xbe;" horiz-adv-x="1648" d="M86 799q0 28 14.5 46.5t42.5 18.5q38 0 60 -51q26 -57 64.5 -81.5t101.5 -24.5q66 0 112.5 44.5t46.5 110.5q0 129 -137 129q-56 0 -75 12t-19 39q0 26 14 39t47 21q65 13 93 46t28 91q0 44 -35.5 76.5t-89.5 32.5q-57 0 -91 -28.5t-42 -72.5q-4 -28 -18 -37.5t-41 -9.5 q-51 0 -51 57q0 94 67 153.5t182 59.5q122 0 194.5 -63t72.5 -162q0 -57 -29.5 -106.5t-83.5 -79.5q77 -23 119.5 -79t42.5 -132q0 -117 -90 -190.5t-228 -73.5q-125 0 -198 67q-74 68 -74 148zM508 27q0 23 29 92l544 1306q24 62 72 62q33 0 52.5 -16.5t19.5 -38.5 q0 -24 -29 -93l-545 -1306q-24 -62 -76 -62q-30 0 -48.5 16t-18.5 40zM911 248q0 26 29 71l326 490q44 65 102 65q48 0 75 -23t27 -67v-462h50q24 0 39.5 -17.5t15.5 -44.5t-15.5 -44t-39.5 -17h-50v-148q0 -63 -73 -63q-74 0 -74 63v148h-365q-22 0 -34.5 14t-12.5 35z M1081 322h242v405h-4z" />
<glyph unicode="&#xbf;" horiz-adv-x="909" d="M37 -4q0 159 91.5 263.5t252.5 137.5v205q0 44 24.5 70t65.5 26t65.5 -26t24.5 -70v-231q0 -30 -0.5 -43.5t-5.5 -29.5t-12 -22t-25.5 -15t-39.5 -14t-60 -14q-189 -40 -189 -221q0 -102 66.5 -163.5t171.5 -61.5q91 0 149 39t89 129q13 38 31 53t48 15q38 0 63.5 -26.5 t24.5 -68.5q-2 -86 -62 -158t-151 -111.5t-186 -39.5q-187 0 -311.5 107.5t-124.5 269.5zM367 997q0 43 30.5 74t73.5 31t73.5 -31t30.5 -74t-30.5 -73.5t-73.5 -30.5t-73.5 30.5t-30.5 73.5z" />
<glyph unicode="&#xc0;" horiz-adv-x="1253" d="M20 63q0 9 21 78q1 2 1.5 5t1 5t1.5 3l453 1206q40 110 129 110t129 -110l452 -1206q1 -1 1.5 -3t1 -5t1.5 -5q21 -69 21 -78q0 -35 -24 -55t-62 -20q-63 0 -88 67l-94 262h-676l-94 -262q-25 -67 -89 -67q-38 0 -62 20t-24 55zM344 473h565l-280 789h-4zM399 1761 q0 32 21.5 59t56.5 27q28 0 70 -18l235 -96q72 -30 72 -76q0 -32 -21.5 -59t-56.5 -27q-27 0 -69 18l-236 97q-72 28 -72 75z" />
<glyph unicode="&#xc1;" horiz-adv-x="1253" d="M20 63q0 9 21 78q1 2 1.5 5t1 5t1.5 3l453 1206q40 110 129 110t129 -110l452 -1206q1 -1 1.5 -3t1 -5t1.5 -5q21 -69 21 -78q0 -35 -24 -55t-62 -20q-63 0 -88 67l-94 262h-676l-94 -262q-25 -67 -89 -67q-38 0 -62 20t-24 55zM344 473h565l-280 789h-4zM399 1657 q0 48 72 76l236 96q42 18 69 18q35 0 56.5 -27t21.5 -59q0 -45 -72 -75l-235 -97q-42 -18 -70 -18q-35 0 -56.5 27t-21.5 59z" />
<glyph unicode="&#xc2;" horiz-adv-x="1253" d="M20 63q0 9 21 78q1 2 1.5 5t1 5t1.5 3l453 1206q40 110 129 110t129 -110l452 -1206q1 -1 1.5 -3t1 -5t1.5 -5q21 -69 21 -78q0 -35 -24 -55t-62 -20q-63 0 -88 67l-94 262h-676l-94 -262q-25 -67 -89 -67q-38 0 -62 20t-24 55zM315 1649q0 53 47 71l265 113l264 -113 q47 -18 47 -71q0 -33 -21 -55.5t-53 -22.5q-22 0 -45 10l-192 76l-193 -76q-23 -10 -45 -10q-32 0 -53 22.5t-21 55.5zM344 473h565l-280 789h-4z" />
<glyph unicode="&#xc3;" horiz-adv-x="1253" d="M20 63q0 9 21 78q1 2 1.5 5t1 5t1.5 3l453 1206q40 110 129 110t129 -110l452 -1206q1 -1 1.5 -3t1 -5t1.5 -5q21 -69 21 -78q0 -35 -24 -55t-62 -20q-63 0 -88 67l-94 262h-676l-94 -262q-25 -67 -89 -67q-38 0 -62 20t-24 55zM322 1669q0 52 55 90.5t135 38.5 q46 0 123 -22q68 -19 102 -19q26 0 70 23q34 18 57 18q25 0 46.5 -25t21.5 -55q0 -51 -55.5 -90t-135.5 -39q-43 0 -123 23q-65 18 -102 18q-28 0 -70 -22q-36 -19 -57 -19q-25 0 -46 25t-21 55zM344 473h565l-280 789h-4z" />
<glyph unicode="&#xc4;" horiz-adv-x="1253" d="M20 63q0 9 21 78q1 2 1.5 5t1 5t1.5 3l453 1206q40 110 129 110t129 -110l452 -1206q1 -1 1.5 -3t1 -5t1.5 -5q21 -69 21 -78q0 -35 -24 -55t-62 -20q-63 0 -88 67l-94 262h-676l-94 -262q-25 -67 -89 -67q-38 0 -62 20t-24 55zM326 1675q0 44 33 77.5t77 33.5 t77.5 -33.5t33.5 -77.5t-33.5 -77t-77.5 -33t-77 33t-33 77zM344 473h565l-280 789h-4zM707 1675q0 44 33 77.5t77 33.5t77.5 -33.5t33.5 -77.5t-33.5 -77t-77.5 -33t-77 33t-33 77z" />
<glyph unicode="&#xc5;" horiz-adv-x="1253" d="M20 63q0 9 21 78q1 2 1.5 5t1 5t1.5 3l453 1206q40 110 129 110t129 -110l452 -1206q1 -1 1.5 -3t1 -5t1.5 -5q21 -69 21 -78q0 -35 -24 -55t-62 -20q-63 0 -88 67l-94 262h-676l-94 -262q-25 -67 -89 -67q-38 0 -62 20t-24 55zM344 473h565l-280 789h-4zM434 1696 q0 79 56.5 135.5t136.5 56.5q79 0 135.5 -56t56.5 -136t-56.5 -136.5t-135.5 -56.5t-136 56.5t-57 136.5zM532 1696q0 -38 28.5 -66t66.5 -28t66 28t28 66t-28 66t-66 28t-66.5 -28t-28.5 -66z" />
<glyph unicode="&#xc6;" horiz-adv-x="1554" d="M-18 53q0 35 26 84l637 1243q26 50 49.5 64t75.5 14h588q42 0 65 -21.5t23 -62.5t-23 -62.5t-65 -21.5h-414v-477h395q42 0 65 -21.5t23 -62.5t-23 -62.5t-65 -21.5h-395v-477h434q42 0 65 -21.5t23 -62.5t-23 -62.5t-65 -21.5h-518q-48 0 -72 26.5t-24 71.5v219h-473 l-139 -272q-17 -32 -36.5 -44.5t-49.5 -12.5q-36 0 -60 19t-24 46zM369 473h395v776h-4z" />
<glyph unicode="&#xc7;" horiz-adv-x="1214" d="M63 729q0 146 43 278.5t122.5 236t205 165t279.5 61.5q88 0 169 -22t135 -55t86 -69.5t32 -66.5q0 -37 -21 -61.5t-53 -24.5q-19 0 -36 10t-50 36q-63 50 -120 74t-142 24q-114 0 -203.5 -50t-143.5 -134.5t-82 -187t-28 -214.5q0 -88 17 -171.5t53 -159t87.5 -132 t126 -90t162.5 -33.5q85 0 147.5 21.5t145.5 68.5q71 41 99 41q32 0 51.5 -23t19.5 -61q0 -43 -56.5 -88t-158 -77t-215.5 -35l-51 -76q6 0 6 2q28 4 37 4q60 0 100.5 -36t40.5 -77q0 -88 -60 -132t-167 -44q-66 0 -107.5 20t-41.5 52q0 24 11.5 39.5t31.5 15.5q14 0 45 -8 q39 -8 61 -8q72 0 72 55q0 24 -17 30.5t-73 6.5q-29 0 -45.5 12.5t-16.5 26.5q0 21 21 51l47 68q-176 19 -307 127.5t-195 267t-64 342.5z" />
<glyph unicode="&#xc8;" horiz-adv-x="909" d="M119 98v1262q0 46 24 72t72 26h518q42 0 65 -21.5t23 -62.5t-23 -62.5t-65 -21.5h-434v-477h395q42 0 65 -21.5t23 -62.5t-23 -62.5t-65 -21.5h-395v-477h434q42 0 65 -21.5t23 -62.5t-23 -62.5t-65 -21.5h-518q-48 0 -72 26.5t-24 71.5zM227 1761q0 32 21.5 59t56.5 27 q28 0 70 -18l235 -96q72 -30 72 -76q0 -32 -21.5 -59t-56.5 -27q-27 0 -69 18l-236 97q-72 28 -72 75z" />
<glyph unicode="&#xc9;" horiz-adv-x="909" d="M119 98v1262q0 46 24 72t72 26h518q42 0 65 -21.5t23 -62.5t-23 -62.5t-65 -21.5h-434v-477h395q42 0 65 -21.5t23 -62.5t-23 -62.5t-65 -21.5h-395v-477h434q42 0 65 -21.5t23 -62.5t-23 -62.5t-65 -21.5h-518q-48 0 -72 26.5t-24 71.5zM227 1657q0 48 72 76l236 96 q42 18 69 18q35 0 56.5 -27t21.5 -59q0 -45 -72 -75l-235 -97q-42 -18 -70 -18q-35 0 -56.5 27t-21.5 59z" />
<glyph unicode="&#xca;" horiz-adv-x="909" d="M119 98v1262q0 46 24 72t72 26h518q42 0 65 -21.5t23 -62.5t-23 -62.5t-65 -21.5h-434v-477h395q42 0 65 -21.5t23 -62.5t-23 -62.5t-65 -21.5h-395v-477h434q42 0 65 -21.5t23 -62.5t-23 -62.5t-65 -21.5h-518q-48 0 -72 26.5t-24 71.5zM143 1649q0 53 47 71l265 113 l264 -113q47 -18 47 -71q0 -33 -21 -55.5t-53 -22.5q-22 0 -45 10l-192 76l-193 -76q-23 -10 -45 -10q-32 0 -53 22.5t-21 55.5z" />
<glyph unicode="&#xcb;" horiz-adv-x="909" d="M119 98v1262q0 46 24 72t72 26h518q42 0 65 -21.5t23 -62.5t-23 -62.5t-65 -21.5h-434v-477h395q42 0 65 -21.5t23 -62.5t-23 -62.5t-65 -21.5h-395v-477h434q42 0 65 -21.5t23 -62.5t-23 -62.5t-65 -21.5h-518q-48 0 -72 26.5t-24 71.5zM154 1675q0 44 33 77.5t77 33.5 t77.5 -33.5t33.5 -77.5t-33.5 -77t-77.5 -33t-77 33t-33 77zM535 1675q0 44 33 77.5t77 33.5t77.5 -33.5t33.5 -77.5t-33.5 -77t-77.5 -33t-77 33t-33 77z" />
<glyph unicode="&#xcc;" d="M-18 1761q0 32 21.5 59t55.5 27q28 0 70 -18l236 -96q71 -30 71 -76q0 -32 -21.5 -59t-56.5 -27q-27 0 -69 18l-236 97q-71 30 -71 75zM119 84v1290q0 44 24.5 70t65.5 26t65.5 -26t24.5 -70v-1290q0 -44 -24.5 -70t-65.5 -26t-65.5 26t-24.5 70z" />
<glyph unicode="&#xcd;" d="M-18 1657q0 46 71 76l236 96q42 18 69 18q35 0 56.5 -27t21.5 -59q0 -45 -71 -75l-236 -97q-42 -18 -70 -18q-34 0 -55.5 27t-21.5 59zM119 84v1290q0 44 24.5 70t65.5 26t65.5 -26t24.5 -70v-1290q0 -44 -24.5 -70t-65.5 -26t-65.5 26t-24.5 70z" />
<glyph unicode="&#xce;" d="M-102 1649q0 53 47 71l264 113l264 -113q47 -18 47 -71q0 -33 -21 -55.5t-53 -22.5q-22 0 -45 10l-192 76l-193 -76q-23 -10 -45 -10q-32 0 -52.5 22.5t-20.5 55.5zM119 84v1290q0 44 24.5 70t65.5 26t65.5 -26t24.5 -70v-1290q0 -44 -24.5 -70t-65.5 -26t-65.5 26 t-24.5 70z" />
<glyph unicode="&#xcf;" d="M-92 1675q0 44 33 77.5t77 33.5t77.5 -33.5t33.5 -77.5t-33.5 -77t-77.5 -33t-77 33t-33 77zM119 84v1290q0 44 24.5 70t65.5 26t65.5 -26t24.5 -70v-1290q0 -44 -24.5 -70t-65.5 -26t-65.5 26t-24.5 70zM289 1675q0 44 33 77.5t77 33.5t77.5 -33.5t33.5 -77.5t-33.5 -77 t-77.5 -33t-77 33t-33 77z" />
<glyph unicode="&#xd0;" horiz-adv-x="1290" d="M-37 735q0 78 88 78h78v547q0 46 24 72t72 26h355q155 0 280 -57t204 -156.5t121 -229t42 -278.5q0 -218 -74 -384t-216 -259.5t-333 -93.5h-379q-48 0 -72 26.5t-24 71.5v559h-78q-88 0 -88 78zM309 156h258q121 0 213 47t146.5 129t81 184t26.5 221q0 95 -17 178 t-54.5 154.5t-92.5 123t-135.5 81t-179.5 29.5h-246v-490h246q88 0 88 -78t-88 -78h-246v-501z" />
<glyph unicode="&#xd1;" horiz-adv-x="1368" d="M119 84v1280q0 106 82 106q38 0 63 -19t64 -75l737 -1059h4v1057q0 44 24.5 70t65.5 26t65.5 -26t24.5 -70v-1280q0 -106 -82 -106q-38 0 -63 19t-64 75l-737 1059h-4v-1057q0 -44 -24.5 -70t-65.5 -26t-65.5 26t-24.5 70zM379 1669q0 52 55 90.5t135 38.5q46 0 123 -22 q68 -19 103 -19q25 0 69 23q35 18 58 18q25 0 46 -25t21 -55q0 -51 -55 -90t-135 -39q-43 0 -123 23q-64 18 -103 18q-27 0 -69 -22q-36 -19 -58 -19q-25 0 -46 25t-21 55z" />
<glyph unicode="&#xd2;" horiz-adv-x="1404" d="M63 729q0 145 43.5 277.5t122.5 236.5t202 165.5t271 61.5t271 -61.5t202 -165.5t122.5 -236.5t43.5 -277.5t-43.5 -277.5t-122.5 -236.5t-202 -165.5t-271 -61.5t-271 61.5t-202 165.5t-122.5 236.5t-43.5 277.5zM256 729q0 -89 15.5 -172t50 -159t85.5 -132 t126.5 -89.5t168.5 -33.5t169.5 33.5t127.5 89.5t85.5 132t49.5 159t15 172t-15 172t-49.5 159t-85.5 132t-127.5 89.5t-169.5 33.5t-168.5 -33.5t-126.5 -89.5t-85.5 -132t-50 -159t-15.5 -172zM475 1761q0 32 21.5 59t56.5 27q28 0 70 -18l235 -96q72 -30 72 -76 q0 -32 -21.5 -59t-56.5 -27q-28 0 -70 18l-235 97q-72 28 -72 75z" />
<glyph unicode="&#xd3;" horiz-adv-x="1404" d="M63 729q0 145 43.5 277.5t122.5 236.5t202 165.5t271 61.5t271 -61.5t202 -165.5t122.5 -236.5t43.5 -277.5t-43.5 -277.5t-122.5 -236.5t-202 -165.5t-271 -61.5t-271 61.5t-202 165.5t-122.5 236.5t-43.5 277.5zM256 729q0 -89 15.5 -172t50 -159t85.5 -132 t126.5 -89.5t168.5 -33.5t169.5 33.5t127.5 89.5t85.5 132t49.5 159t15 172t-15 172t-49.5 159t-85.5 132t-127.5 89.5t-169.5 33.5t-168.5 -33.5t-126.5 -89.5t-85.5 -132t-50 -159t-15.5 -172zM475 1657q0 48 72 76l235 96q42 18 70 18q35 0 56.5 -27t21.5 -59 q0 -45 -72 -75l-235 -97q-42 -18 -70 -18q-35 0 -56.5 27t-21.5 59z" />
<glyph unicode="&#xd4;" horiz-adv-x="1404" d="M63 729q0 145 43.5 277.5t122.5 236.5t202 165.5t271 61.5t271 -61.5t202 -165.5t122.5 -236.5t43.5 -277.5t-43.5 -277.5t-122.5 -236.5t-202 -165.5t-271 -61.5t-271 61.5t-202 165.5t-122.5 236.5t-43.5 277.5zM256 729q0 -89 15.5 -172t50 -159t85.5 -132 t126.5 -89.5t168.5 -33.5t169.5 33.5t127.5 89.5t85.5 132t49.5 159t15 172t-15 172t-49.5 159t-85.5 132t-127.5 89.5t-169.5 33.5t-168.5 -33.5t-126.5 -89.5t-85.5 -132t-50 -159t-15.5 -172zM391 1649q0 53 47 71l264 113l265 -113q47 -18 47 -71q0 -33 -21 -55.5 t-53 -22.5q-22 0 -45 10l-193 76l-192 -76q-23 -10 -45 -10q-32 0 -53 22.5t-21 55.5z" />
<glyph unicode="&#xd5;" horiz-adv-x="1404" d="M63 729q0 145 43.5 277.5t122.5 236.5t202 165.5t271 61.5t271 -61.5t202 -165.5t122.5 -236.5t43.5 -277.5t-43.5 -277.5t-122.5 -236.5t-202 -165.5t-271 -61.5t-271 61.5t-202 165.5t-122.5 236.5t-43.5 277.5zM256 729q0 -89 15.5 -172t50 -159t85.5 -132 t126.5 -89.5t168.5 -33.5t169.5 33.5t127.5 89.5t85.5 132t49.5 159t15 172t-15 172t-49.5 159t-85.5 132t-127.5 89.5t-169.5 33.5t-168.5 -33.5t-126.5 -89.5t-85.5 -132t-50 -159t-15.5 -172zM397 1669q0 52 55.5 90.5t135.5 38.5q46 0 123 -22q68 -19 102 -19 q26 0 70 23q35 18 57 18q25 0 46.5 -25t21.5 -55q0 -51 -55.5 -90t-135.5 -39q-43 0 -123 23q-64 18 -102 18q-28 0 -70 -22q-36 -19 -57 -19q-25 0 -46.5 25t-21.5 55z" />
<glyph unicode="&#xd6;" horiz-adv-x="1404" d="M63 729q0 145 43.5 277.5t122.5 236.5t202 165.5t271 61.5t271 -61.5t202 -165.5t122.5 -236.5t43.5 -277.5t-43.5 -277.5t-122.5 -236.5t-202 -165.5t-271 -61.5t-271 61.5t-202 165.5t-122.5 236.5t-43.5 277.5zM256 729q0 -89 15.5 -172t50 -159t85.5 -132 t126.5 -89.5t168.5 -33.5t169.5 33.5t127.5 89.5t85.5 132t49.5 159t15 172t-15 172t-49.5 159t-85.5 132t-127.5 89.5t-169.5 33.5t-168.5 -33.5t-126.5 -89.5t-85.5 -132t-50 -159t-15.5 -172zM401 1675q0 44 33.5 77.5t77.5 33.5t77.5 -33.5t33.5 -77.5t-33.5 -77 t-77.5 -33t-77.5 33t-33.5 77zM782 1675q0 44 33.5 77.5t77.5 33.5t77.5 -33.5t33.5 -77.5t-33.5 -77t-77.5 -33t-77.5 33t-33.5 77z" />
<glyph unicode="&#xd7;" horiz-adv-x="1228" d="M143 123q0 39 43 82l314 313l-314 313q-43 43 -43 82q0 30 22 53t52 23q23 0 41 -10t45 -37l311 -309l312 309q27 27 45 37t41 10q30 0 51.5 -23t21.5 -53q0 -39 -43 -82l-313 -313l313 -313q43 -43 43 -82q0 -30 -21.5 -53t-51.5 -23q-23 0 -41 10t-45 37l-312 312 l-311 -312q-27 -27 -45 -37t-41 -10q-30 0 -52 23t-22 53z" />
<glyph unicode="&#xd8;" horiz-adv-x="1404" d="M41 27q0 24 29 61l135 158q-142 211 -142 483q0 145 43.5 277.5t122.5 236.5t202 165.5t271 61.5q245 0 414 -161l121 143q27 35 63 35q26 0 45 -16t19 -41q0 -26 -25 -54l-141 -164q69 -98 106 -223.5t37 -259.5q0 -145 -43.5 -277.5t-122.5 -236.5t-202 -165.5 t-271 -61.5q-246 0 -413 164l-125 -148q-26 -33 -64 -33q-25 0 -42 17.5t-17 38.5zM256 729q0 -196 72 -340l680 795q-115 131 -306 131q-93 0 -168.5 -33.5t-126.5 -89.5t-85.5 -132t-50 -159t-15.5 -172zM397 276q115 -133 305 -133q93 0 169.5 33.5t127.5 89.5t85.5 132 t49.5 159t15 172q0 198 -70 344z" />
<glyph unicode="&#xd9;" horiz-adv-x="1368" d="M119 578v796q0 44 24.5 70t65.5 26t65.5 -26t24.5 -70v-866q0 -169 105 -267t280 -98t280 98t105 267v866q0 44 24.5 70t65.5 26t65.5 -26t24.5 -70v-796q0 -137 -33.5 -243t-87.5 -170.5t-130 -105.5t-152 -56t-162 -15t-162 15t-152 56t-130 105.5t-87.5 170.5 t-33.5 243zM457 1761q0 32 21.5 59t56.5 27q27 0 69 -18l236 -96q71 -30 71 -76q0 -32 -21.5 -59t-55.5 -27q-28 0 -70 18l-236 97q-71 28 -71 75z" />
<glyph unicode="&#xda;" horiz-adv-x="1368" d="M119 578v796q0 44 24.5 70t65.5 26t65.5 -26t24.5 -70v-866q0 -169 105 -267t280 -98t280 98t105 267v866q0 44 24.5 70t65.5 26t65.5 -26t24.5 -70v-796q0 -137 -33.5 -243t-87.5 -170.5t-130 -105.5t-152 -56t-162 -15t-162 15t-152 56t-130 105.5t-87.5 170.5 t-33.5 243zM457 1657q0 48 71 76l236 96q42 18 70 18q34 0 55.5 -27t21.5 -59q0 -45 -71 -75l-236 -97q-42 -18 -69 -18q-35 0 -56.5 27t-21.5 59z" />
<glyph unicode="&#xdb;" horiz-adv-x="1368" d="M119 578v796q0 44 24.5 70t65.5 26t65.5 -26t24.5 -70v-866q0 -169 105 -267t280 -98t280 98t105 267v866q0 44 24.5 70t65.5 26t65.5 -26t24.5 -70v-796q0 -137 -33.5 -243t-87.5 -170.5t-130 -105.5t-152 -56t-162 -15t-162 15t-152 56t-130 105.5t-87.5 170.5 t-33.5 243zM373 1649q0 53 47 71l264 113l264 -113q47 -18 47 -71q0 -33 -20.5 -55.5t-52.5 -22.5q-22 0 -45 10l-193 76l-192 -76q-23 -10 -46 -10q-32 0 -52.5 22.5t-20.5 55.5z" />
<glyph unicode="&#xdc;" horiz-adv-x="1368" d="M119 578v796q0 44 24.5 70t65.5 26t65.5 -26t24.5 -70v-866q0 -169 105 -267t280 -98t280 98t105 267v866q0 44 24.5 70t65.5 26t65.5 -26t24.5 -70v-796q0 -137 -33.5 -243t-87.5 -170.5t-130 -105.5t-152 -56t-162 -15t-162 15t-152 56t-130 105.5t-87.5 170.5 t-33.5 243zM383 1675q0 44 33.5 77.5t77.5 33.5t77 -33.5t33 -77.5t-33 -77t-77 -33t-77.5 33t-33.5 77zM764 1675q0 44 33 77.5t77 33.5t77.5 -33.5t33.5 -77.5t-33.5 -77t-77.5 -33t-77 33t-33 77z" />
<glyph unicode="&#xdd;" horiz-adv-x="1024" d="M2 1397q0 32 23.5 52.5t58.5 20.5q56 0 90 -57l338 -551l338 551q34 57 90 57q35 0 58.5 -20.5t23.5 -52.5q0 -26 -29 -76l-391 -637v-600q0 -44 -24.5 -70t-65.5 -26t-65.5 26t-24.5 70v600l-391 637q-29 50 -29 76zM285 1657q0 48 71 76l236 96q42 18 70 18 q34 0 55.5 -27t21.5 -59q0 -45 -71 -75l-236 -97q-42 -18 -70 -18q-34 0 -55.5 27t-21.5 59z" />
<glyph unicode="&#xde;" horiz-adv-x="1062" d="M119 84v1290q0 44 24.5 70t65.5 26t65.5 -26t24.5 -70v-145h272q141 0 250 -62t166 -165.5t57 -229.5q0 -189 -134 -321t-332 -132h-279v-235q0 -44 -24.5 -70t-65.5 -26t-65.5 26t-24.5 70zM299 475h266q131 0 215 84q84 87 84 213q0 57 -17.5 108.5t-53 95.5 t-96.5 70.5t-140 26.5h-258v-598z" />
<glyph unicode="&#xdf;" horiz-adv-x="1138" d="M119 76v1077q0 197 107 312.5t286 115.5q88 0 166 -33.5t130 -87t82 -120t30 -132.5q0 -235 -158 -344q129 -35 201 -147q73 -113 73 -258q0 -84 -28 -167t-78.5 -151t-128.5 -110.5t-170 -42.5q-119 0 -119 84q0 34 17 56t51 22q141 0 202.5 79.5t61.5 237.5 q0 136 -68 214.5t-180 84.5q-92 6 -92 76q0 40 17.5 56t74.5 34q34 11 55 24t43.5 39.5t33.5 74.5t11 118q0 104 -61 170.5t-162 66.5q-95 0 -156 -70.5t-61 -236.5v-1042q0 -41 -26 -64.5t-64 -23.5t-64 23.5t-26 64.5z" />
<glyph unicode="&#xe0;" horiz-adv-x="1138" d="M72 545q0 110 33 210t93 177.5t151.5 123.5t201.5 46q89 0 159.5 -35.5t137.5 -110.5h4v58q0 41 25 64.5t59 23.5q33 0 58.5 -24t25.5 -64v-938q0 -40 -25.5 -64t-58.5 -24q-34 0 -59 23.5t-25 64.5v76h-4q-114 -164 -297 -164q-110 0 -201.5 46t-151.5 123.5t-93 177.5 t-33 210zM252 545q0 -76 17 -145t51.5 -128t94 -94t136.5 -35t136.5 35t94 94t51.5 128t17 145t-17 145t-51.5 127.5t-94 93.5t-136.5 35t-136.5 -35t-94 -93.5t-51.5 -127.5t-17 -145zM342 1434q0 32 21.5 59t56.5 27q24 0 69 -19l236 -96q72 -30 72 -76q0 -32 -21.5 -59 t-56.5 -27q-25 0 -70 19l-235 96q-72 28 -72 76z" />
<glyph unicode="&#xe1;" horiz-adv-x="1138" d="M72 545q0 110 33 210t93 177.5t151.5 123.5t201.5 46q89 0 159.5 -35.5t137.5 -110.5h4v58q0 41 25 64.5t59 23.5q33 0 58.5 -24t25.5 -64v-938q0 -40 -25.5 -64t-58.5 -24q-34 0 -59 23.5t-25 64.5v76h-4q-114 -164 -297 -164q-110 0 -201.5 46t-151.5 123.5t-93 177.5 t-33 210zM252 545q0 -76 17 -145t51.5 -128t94 -94t136.5 -35t136.5 35t94 94t51.5 128t17 145t-17 145t-51.5 127.5t-94 93.5t-136.5 35t-136.5 -35t-94 -93.5t-51.5 -127.5t-17 -145zM342 1329q0 48 72 76l235 96q45 19 70 19q35 0 56.5 -27t21.5 -59q0 -46 -72 -76 l-236 -96q-45 -19 -69 -19q-35 0 -56.5 27t-21.5 59z" />
<glyph unicode="&#xe2;" horiz-adv-x="1138" d="M72 545q0 110 33 210t93 177.5t151.5 123.5t201.5 46q89 0 159.5 -35.5t137.5 -110.5h4v58q0 41 25 64.5t59 23.5q33 0 58.5 -24t25.5 -64v-938q0 -40 -25.5 -64t-58.5 -24q-34 0 -59 23.5t-25 64.5v76h-4q-114 -164 -297 -164q-110 0 -201.5 46t-151.5 123.5t-93 177.5 t-33 210zM252 545q0 -76 17 -145t51.5 -128t94 -94t136.5 -35t136.5 35t94 94t51.5 128t17 145t-17 145t-51.5 127.5t-94 93.5t-136.5 35t-136.5 -35t-94 -93.5t-51.5 -127.5t-17 -145zM258 1321q0 54 47 72l264 112l265 -112q47 -18 47 -72q0 -33 -21 -55.5t-53 -22.5 q-22 0 -45 10l-193 76l-192 -76q-23 -10 -45 -10q-32 0 -53 22.5t-21 55.5z" />
<glyph unicode="&#xe3;" horiz-adv-x="1138" d="M72 545q0 110 33 210t93 177.5t151.5 123.5t201.5 46q89 0 159.5 -35.5t137.5 -110.5h4v58q0 41 25 64.5t59 23.5q33 0 58.5 -24t25.5 -64v-938q0 -40 -25.5 -64t-58.5 -24q-34 0 -59 23.5t-25 64.5v76h-4q-114 -164 -297 -164q-110 0 -201.5 46t-151.5 123.5t-93 177.5 t-33 210zM252 545q0 -76 17 -145t51.5 -128t94 -94t136.5 -35t136.5 35t94 94t51.5 128t17 145t-17 145t-51.5 127.5t-94 93.5t-136.5 35t-136.5 -35t-94 -93.5t-51.5 -127.5t-17 -145zM264 1341q0 52 55.5 90.5t135.5 38.5q46 0 123 -22q64 -18 102 -18q28 0 70 22 q35 18 57 18q25 0 46 -24.5t21 -54.5q0 -51 -55 -90t-135 -39q-46 0 -123 22q-68 19 -102 19q-26 0 -70 -23q-34 -18 -57 -18q-25 0 -46.5 24.5t-21.5 54.5z" />
<glyph unicode="&#xe4;" horiz-adv-x="1138" d="M72 545q0 110 33 210t93 177.5t151.5 123.5t201.5 46q89 0 159.5 -35.5t137.5 -110.5h4v58q0 41 25 64.5t59 23.5q33 0 58.5 -24t25.5 -64v-938q0 -40 -25.5 -64t-58.5 -24q-34 0 -59 23.5t-25 64.5v76h-4q-114 -164 -297 -164q-110 0 -201.5 46t-151.5 123.5t-93 177.5 t-33 210zM252 545q0 -76 17 -145t51.5 -128t94 -94t136.5 -35t136.5 35t94 94t51.5 128t17 145t-17 145t-51.5 127.5t-94 93.5t-136.5 35t-136.5 -35t-94 -93.5t-51.5 -127.5t-17 -145zM268 1348q0 44 33.5 77t77.5 33t77 -33t33 -77t-33 -77.5t-77 -33.5t-77.5 33.5 t-33.5 77.5zM649 1348q0 44 33.5 77t77.5 33t77 -33t33 -77t-33 -77.5t-77 -33.5t-77.5 33.5t-33.5 77.5z" />
<glyph unicode="&#xe5;" horiz-adv-x="1138" d="M72 545q0 110 33 210t93 177.5t151.5 123.5t201.5 46q89 0 159.5 -35.5t137.5 -110.5h4v58q0 41 25 64.5t59 23.5q33 0 58.5 -24t25.5 -64v-938q0 -40 -25.5 -64t-58.5 -24q-34 0 -59 23.5t-25 64.5v76h-4q-114 -164 -297 -164q-110 0 -201.5 46t-151.5 123.5t-93 177.5 t-33 210zM252 545q0 -76 17 -145t51.5 -128t94 -94t136.5 -35t136.5 35t94 94t51.5 128t17 145t-17 145t-51.5 127.5t-94 93.5t-136.5 35t-136.5 -35t-94 -93.5t-51.5 -127.5t-17 -145zM377 1389q0 79 56.5 135.5t135.5 56.5q80 0 136.5 -56.5t56.5 -135.5t-57 -136 t-136 -57t-135.5 56.5t-56.5 136.5zM475 1389q0 -38 28 -66.5t66 -28.5t66.5 28.5t28.5 66.5t-28.5 66t-66.5 28t-66 -28t-28 -66z" />
<glyph unicode="&#xe6;" horiz-adv-x="1820" d="M72 545q0 110 33 210t93 177.5t151.5 123.5t201.5 46q89 0 158 -35.5t137 -110.5h4v58q0 41 25 64.5t59 23.5q33 0 58.5 -24t25.5 -64v-45h4q20 23 55 50t101 55t131 28q87 0 170 -39.5t146.5 -107.5t102.5 -168.5t39 -215.5q0 -51 -22 -73.5t-78 -22.5h-666 q6 -130 93 -231q88 -97 237 -97q85 1 144 26t124 75q52 40 80 43q27 0 46.5 -22t19.5 -58q0 -45 -60.5 -97.5t-156 -89t-185.5 -36.5q-220 0 -321 131h-4v-43q0 -40 -25.5 -64t-58.5 -24q-34 0 -59 23.5t-25 64.5v76h-4q-114 -164 -295 -164q-110 0 -201.5 46t-151.5 123.5 t-93 177.5t-33 210zM252 545q0 -76 17 -145t51.5 -128t94 -94t136.5 -35t136.5 35t94 94t51.5 128t17 145t-17 145t-51.5 127.5t-94 93.5t-136.5 35t-136.5 -35t-94 -93.5t-51.5 -127.5t-17 -145zM1014 610h573q0 84 -31 158.5t-98.5 126t-159.5 51.5q-72 0 -128.5 -29 t-89.5 -78t-49.5 -107t-16.5 -122z" />
<glyph unicode="&#xe7;" horiz-adv-x="909" d="M72 545q0 112 31.5 211.5t91 177t154.5 123t214 45.5q131 0 212 -39.5t81 -97.5q0 -30 -22 -53t-52 -23q-28 0 -77 22q-39 19 -68.5 27t-73.5 8q-78 0 -139.5 -35.5t-98 -94t-55 -128t-18.5 -143.5t18.5 -143.5t55 -128.5t98 -94.5t139.5 -35.5q79 0 152 39q48 23 65 23 q70 0 70 -76q0 -56 -74 -97t-194 -42l-52 -76q7 0 7 2q28 4 36 4q60 0 101 -36t41 -77q0 -88 -60 -132t-168 -44q-66 0 -107.5 20t-41.5 52q0 24 11.5 39.5t31.5 15.5q14 0 45 -8q39 -8 61 -8q72 0 72 55q0 24 -17 30.5t-73 6.5q-29 0 -45 12.5t-16 26.5q0 22 20 51l49 72 q-195 27 -301 184q-104 155 -104 365z" />
<glyph unicode="&#xe8;" horiz-adv-x="1064" d="M53 545q0 112 35 213t97.5 177.5t155.5 121.5t202 45q106 0 195.5 -45.5t148.5 -120.5t92 -170t33 -195q0 -51 -22.5 -73.5t-78.5 -22.5h-678q0 -145 88 -238.5t234 -93.5q95 0 158.5 25.5t134.5 81.5q53 41 76 41q27 0 46 -22t19 -58q0 -44 -64.5 -96t-168 -89.5 t-203.5 -37.5q-124 0 -221.5 45t-157.5 123t-90.5 177t-30.5 212zM233 610h598q0 62 -18.5 120.5t-53 107.5t-90.5 78.5t-126 29.5q-79 0 -139.5 -28t-96 -76.5t-54 -106.5t-20.5 -125zM305 1434q0 32 21.5 59t56.5 27q25 0 70 -19l235 -96q72 -30 72 -76q0 -32 -21.5 -59 t-56.5 -27q-25 0 -70 19l-235 96q-72 28 -72 76z" />
<glyph unicode="&#xe9;" horiz-adv-x="1064" d="M53 545q0 112 35 213t97.5 177.5t155.5 121.5t202 45q106 0 195.5 -45.5t148.5 -120.5t92 -170t33 -195q0 -51 -22.5 -73.5t-78.5 -22.5h-678q0 -145 88 -238.5t234 -93.5q95 0 158.5 25.5t134.5 81.5q53 41 76 41q27 0 46 -22t19 -58q0 -44 -64.5 -96t-168 -89.5 t-203.5 -37.5q-124 0 -221.5 45t-157.5 123t-90.5 177t-30.5 212zM233 610h598q0 62 -18.5 120.5t-53 107.5t-90.5 78.5t-126 29.5q-79 0 -139.5 -28t-96 -76.5t-54 -106.5t-20.5 -125zM305 1329q0 48 72 76l235 96q45 19 70 19q35 0 56.5 -27t21.5 -59q0 -46 -72 -76 l-235 -96q-45 -19 -70 -19q-35 0 -56.5 27t-21.5 59z" />
<glyph unicode="&#xea;" horiz-adv-x="1064" d="M53 545q0 112 35 213t97.5 177.5t155.5 121.5t202 45q106 0 195.5 -45.5t148.5 -120.5t92 -170t33 -195q0 -51 -22.5 -73.5t-78.5 -22.5h-678q0 -145 88 -238.5t234 -93.5q95 0 158.5 25.5t134.5 81.5q53 41 76 41q27 0 46 -22t19 -58q0 -44 -64.5 -96t-168 -89.5 t-203.5 -37.5q-124 0 -221.5 45t-157.5 123t-90.5 177t-30.5 212zM221 1321q0 54 47 72l264 112l265 -112q47 -18 47 -72q0 -33 -21 -55.5t-53 -22.5q-22 0 -45 10l-193 76l-192 -76q-23 -10 -45 -10q-32 0 -53 22.5t-21 55.5zM233 610h598q0 62 -18.5 120.5t-53 107.5 t-90.5 78.5t-126 29.5q-79 0 -139.5 -28t-96 -76.5t-54 -106.5t-20.5 -125z" />
<glyph unicode="&#xeb;" horiz-adv-x="1064" d="M53 545q0 112 35 213t97.5 177.5t155.5 121.5t202 45q106 0 195.5 -45.5t148.5 -120.5t92 -170t33 -195q0 -51 -22.5 -73.5t-78.5 -22.5h-678q0 -145 88 -238.5t234 -93.5q95 0 158.5 25.5t134.5 81.5q53 41 76 41q27 0 46 -22t19 -58q0 -44 -64.5 -96t-168 -89.5 t-203.5 -37.5q-124 0 -221.5 45t-157.5 123t-90.5 177t-30.5 212zM231 1348q0 44 33.5 77t77.5 33t77.5 -33t33.5 -77t-33.5 -77.5t-77.5 -33.5t-77.5 33.5t-33.5 77.5zM233 610h598q0 62 -18.5 120.5t-53 107.5t-90.5 78.5t-126 29.5q-79 0 -139.5 -28t-96 -76.5 t-54 -106.5t-20.5 -125zM612 1348q0 44 33.5 77t77.5 33t77.5 -33t33.5 -77t-33.5 -77.5t-77.5 -33.5t-77.5 33.5t-33.5 77.5z" />
<glyph unicode="&#xec;" d="M-18 1434q0 32 21.5 59t55.5 27q25 0 70 -19l236 -96q71 -30 71 -76q0 -32 -21.5 -59t-56.5 -27q-24 0 -69 19l-236 96q-71 30 -71 76zM119 84v922q0 44 24.5 70t65.5 26t65.5 -26t24.5 -70v-922q0 -44 -24.5 -70t-65.5 -26t-65.5 26t-24.5 70z" />
<glyph unicode="&#xed;" d="M-18 1329q0 46 71 76l236 96q45 19 69 19q35 0 56.5 -27t21.5 -59q0 -46 -71 -76l-236 -96q-45 -19 -70 -19q-34 0 -55.5 27t-21.5 59zM119 84v922q0 44 24.5 70t65.5 26t65.5 -26t24.5 -70v-922q0 -44 -24.5 -70t-65.5 -26t-65.5 26t-24.5 70z" />
<glyph unicode="&#xee;" d="M-102 1321q0 54 47 72l264 112l264 -112q47 -18 47 -72q0 -33 -21 -55.5t-53 -22.5q-22 0 -45 10l-192 76l-193 -76q-23 -10 -45 -10q-32 0 -52.5 22.5t-20.5 55.5zM119 84v922q0 44 24.5 70t65.5 26t65.5 -26t24.5 -70v-922q0 -44 -24.5 -70t-65.5 -26t-65.5 26 t-24.5 70z" />
<glyph unicode="&#xef;" d="M-92 1348q0 44 33 77t77 33t77.5 -33t33.5 -77t-33.5 -77.5t-77.5 -33.5t-77 33.5t-33 77.5zM119 84v922q0 44 24.5 70t65.5 26t65.5 -26t24.5 -70v-922q0 -44 -24.5 -70t-65.5 -26t-65.5 26t-24.5 70zM289 1348q0 44 33 77t77 33t77.5 -33t33.5 -77t-33.5 -77.5 t-77.5 -33.5t-77 33.5t-33 77.5z" />
<glyph unicode="&#xf0;" horiz-adv-x="1101" d="M72 537q0 145 54.5 269.5t163 204t249.5 79.5q74 0 144.5 -34t113.5 -89l4 4q-67 179 -248 329l-178 -86q-37 -18 -60 -18q-20 0 -34.5 15.5t-14.5 39.5q0 32 35 47l158 76q-43 34 -105 60q-51 21 -69.5 37.5t-18.5 46.5q0 29 21.5 46t54.5 17q48 0 127.5 -36.5 t148.5 -88.5l189 94q40 19 59 19q21 0 35 -12.5t14 -36.5q0 -39 -43 -60l-159 -78q167 -150 242 -339t75 -431q0 -286 -125 -454q-123 -170 -366 -170q-106 0 -195.5 46.5t-148 123.5t-91 175.5t-32.5 203.5zM252 537q0 -58 11.5 -114t35.5 -107t58.5 -89t84.5 -61t109 -23 t109 23t84.5 61t58.5 89t35.5 107t11.5 114t-11.5 114t-35.5 106.5t-58.5 89t-84.5 61t-109 22.5t-109 -22.5t-84.5 -61t-58.5 -89t-35.5 -106.5t-11.5 -114z" />
<glyph unicode="&#xf1;" horiz-adv-x="1101" d="M119 84v922q0 44 24.5 70t65.5 26t65.5 -26t24.5 -70v-43l4 -5q112 144 301 144q69 0 134 -23.5t121 -70.5t90 -130t34 -190v-604q0 -44 -24.5 -70t-65.5 -26t-65.5 26t-24.5 70v594q0 127 -73 197.5t-179 70.5t-179 -70.5t-73 -197.5v-594q0 -44 -24.5 -70t-65.5 -26 t-65.5 26t-24.5 70zM246 1341q0 52 55 90.5t135 38.5q46 0 123 -22q65 -18 103 -18q27 0 69 22q34 18 57 18q25 0 46.5 -24.5t21.5 -54.5q0 -51 -55 -90t-135 -39q-46 0 -123 22q-68 19 -103 19q-25 0 -69 -23q-35 -18 -58 -18q-25 0 -46 24.5t-21 54.5z" />
<glyph unicode="&#xf2;" horiz-adv-x="1101" d="M72 545q0 110 33 210t93 177.5t151.5 123.5t201.5 46t201.5 -46t151.5 -123.5t93 -177.5t33 -210t-33 -210t-93 -177.5t-151.5 -123.5t-201.5 -46t-201.5 46t-151.5 123.5t-93 177.5t-33 210zM252 545q0 -76 17 -145t51.5 -128t94 -94t136.5 -35t136.5 35t94 94t51.5 128 t17 145t-17 145t-51.5 127.5t-94 93.5t-136.5 35t-136.5 -35t-94 -93.5t-51.5 -127.5t-17 -145zM324 1434q0 32 21.5 59t55.5 27q25 0 70 -19l236 -96q71 -30 71 -76q0 -32 -21.5 -59t-56.5 -27q-24 0 -69 19l-236 96q-71 28 -71 76z" />
<glyph unicode="&#xf3;" horiz-adv-x="1101" d="M72 545q0 110 33 210t93 177.5t151.5 123.5t201.5 46t201.5 -46t151.5 -123.5t93 -177.5t33 -210t-33 -210t-93 -177.5t-151.5 -123.5t-201.5 -46t-201.5 46t-151.5 123.5t-93 177.5t-33 210zM252 545q0 -76 17 -145t51.5 -128t94 -94t136.5 -35t136.5 35t94 94t51.5 128 t17 145t-17 145t-51.5 127.5t-94 93.5t-136.5 35t-136.5 -35t-94 -93.5t-51.5 -127.5t-17 -145zM324 1329q0 48 71 76l236 96q45 19 69 19q35 0 56.5 -27t21.5 -59q0 -46 -71 -76l-236 -96q-45 -19 -70 -19q-34 0 -55.5 27t-21.5 59z" />
<glyph unicode="&#xf4;" horiz-adv-x="1101" d="M72 545q0 110 33 210t93 177.5t151.5 123.5t201.5 46t201.5 -46t151.5 -123.5t93 -177.5t33 -210t-33 -210t-93 -177.5t-151.5 -123.5t-201.5 -46t-201.5 46t-151.5 123.5t-93 177.5t-33 210zM240 1321q0 54 47 72l264 112l264 -112q47 -18 47 -72q0 -33 -21 -55.5 t-53 -22.5q-22 0 -45 10l-192 76l-193 -76q-23 -10 -45 -10q-32 0 -52.5 22.5t-20.5 55.5zM252 545q0 -76 17 -145t51.5 -128t94 -94t136.5 -35t136.5 35t94 94t51.5 128t17 145t-17 145t-51.5 127.5t-94 93.5t-136.5 35t-136.5 -35t-94 -93.5t-51.5 -127.5t-17 -145z" />
<glyph unicode="&#xf5;" horiz-adv-x="1101" d="M72 545q0 110 33 210t93 177.5t151.5 123.5t201.5 46t201.5 -46t151.5 -123.5t93 -177.5t33 -210t-33 -210t-93 -177.5t-151.5 -123.5t-201.5 -46t-201.5 46t-151.5 123.5t-93 177.5t-33 210zM246 1341q0 52 55 90.5t135 38.5q46 0 123 -22q65 -18 103 -18q27 0 69 22 q34 18 57 18q25 0 46.5 -24.5t21.5 -54.5q0 -51 -55 -90t-135 -39q-46 0 -123 22q-68 19 -103 19q-25 0 -69 -23q-35 -18 -58 -18q-25 0 -46 24.5t-21 54.5zM252 545q0 -76 17 -145t51.5 -128t94 -94t136.5 -35t136.5 35t94 94t51.5 128t17 145t-17 145t-51.5 127.5 t-94 93.5t-136.5 35t-136.5 -35t-94 -93.5t-51.5 -127.5t-17 -145z" />
<glyph unicode="&#xf6;" horiz-adv-x="1101" d="M72 545q0 110 33 210t93 177.5t151.5 123.5t201.5 46t201.5 -46t151.5 -123.5t93 -177.5t33 -210t-33 -210t-93 -177.5t-151.5 -123.5t-201.5 -46t-201.5 46t-151.5 123.5t-93 177.5t-33 210zM250 1348q0 44 33 77t77 33t77.5 -33t33.5 -77t-33.5 -77.5t-77.5 -33.5 t-77 33.5t-33 77.5zM252 545q0 -76 17 -145t51.5 -128t94 -94t136.5 -35t136.5 35t94 94t51.5 128t17 145t-17 145t-51.5 127.5t-94 93.5t-136.5 35t-136.5 -35t-94 -93.5t-51.5 -127.5t-17 -145zM631 1348q0 44 33 77t77 33t77.5 -33t33.5 -77t-33.5 -77.5t-77.5 -33.5 t-77 33.5t-33 77.5z" />
<glyph unicode="&#xf7;" horiz-adv-x="1228" d="M96 518q0 41 23 62.5t65 21.5h860q42 0 65.5 -21.5t23.5 -62.5t-23.5 -62.5t-65.5 -21.5h-860q-42 0 -65 21.5t-23 62.5zM467 94q0 62 43 105t104 43q62 0 105 -43t43 -105q0 -61 -43 -104t-105 -43t-104.5 42.5t-42.5 104.5zM467 942q0 62 43 105t104 43q62 0 105 -43 t43 -105q0 -61 -43 -104t-105 -43t-104.5 42.5t-42.5 104.5z" />
<glyph unicode="&#xf8;" horiz-adv-x="1101" d="M47 8q0 29 37 72l92 110q-104 141 -104 355q0 110 33 210t93 177.5t151.5 123.5t201.5 46q172 0 293 -105l84 103q29 39 63 39q26 0 45 -16.5t19 -41.5q0 -26 -29 -63l-98 -117q102 -156 102 -356q0 -110 -33 -210t-93 -177.5t-151.5 -123.5t-201.5 -46q-173 0 -291 106 l-86 -104q-31 -39 -65 -39q-25 0 -43.5 17t-18.5 40zM252 545q0 -117 41 -213l446 538q-70 76 -188 76q-77 0 -136.5 -35t-94 -93.5t-51.5 -127.5t-17 -145zM362 219q70 -76 189 -76q77 0 136.5 35t94 94t51.5 128t17 145q0 123 -41 213z" />
<glyph unicode="&#xf9;" horiz-adv-x="1101" d="M119 422v584q0 44 24.5 70t65.5 26t65.5 -26t24.5 -70v-578q0 -285 252 -285t252 285v578q0 44 24.5 70t65.5 26t65.5 -26t24.5 -70v-584q0 -113 -35 -198.5t-96.5 -136t-137 -75t-163.5 -24.5t-163.5 24.5t-137 75t-96.5 136t-35 198.5zM324 1434q0 32 21.5 59t55.5 27 q25 0 70 -19l236 -96q71 -30 71 -76q0 -32 -21.5 -59t-56.5 -27q-24 0 -69 19l-236 96q-71 28 -71 76z" />
<glyph unicode="&#xfa;" horiz-adv-x="1101" d="M119 422v584q0 44 24.5 70t65.5 26t65.5 -26t24.5 -70v-578q0 -285 252 -285t252 285v578q0 44 24.5 70t65.5 26t65.5 -26t24.5 -70v-584q0 -113 -35 -198.5t-96.5 -136t-137 -75t-163.5 -24.5t-163.5 24.5t-137 75t-96.5 136t-35 198.5zM324 1329q0 48 71 76l236 96 q45 19 69 19q35 0 56.5 -27t21.5 -59q0 -46 -71 -76l-236 -96q-45 -19 -70 -19q-34 0 -55.5 27t-21.5 59z" />
<glyph unicode="&#xfb;" horiz-adv-x="1101" d="M119 422v584q0 44 24.5 70t65.5 26t65.5 -26t24.5 -70v-578q0 -285 252 -285t252 285v578q0 44 24.5 70t65.5 26t65.5 -26t24.5 -70v-584q0 -113 -35 -198.5t-96.5 -136t-137 -75t-163.5 -24.5t-163.5 24.5t-137 75t-96.5 136t-35 198.5zM240 1321q0 54 47 72l264 112 l264 -112q47 -18 47 -72q0 -33 -21 -55.5t-53 -22.5q-22 0 -45 10l-192 76l-193 -76q-23 -10 -45 -10q-32 0 -52.5 22.5t-20.5 55.5z" />
<glyph unicode="&#xfc;" horiz-adv-x="1101" d="M119 422v584q0 44 24.5 70t65.5 26t65.5 -26t24.5 -70v-578q0 -285 252 -285t252 285v578q0 44 24.5 70t65.5 26t65.5 -26t24.5 -70v-584q0 -113 -35 -198.5t-96.5 -136t-137 -75t-163.5 -24.5t-163.5 24.5t-137 75t-96.5 136t-35 198.5zM250 1348q0 44 33 77t77 33 t77.5 -33t33.5 -77t-33.5 -77.5t-77.5 -33.5t-77 33.5t-33 77.5zM631 1348q0 44 33 77t77 33t77.5 -33t33.5 -77t-33.5 -77.5t-77.5 -33.5t-77 33.5t-33 77.5z" />
<glyph unicode="&#xfd;" horiz-adv-x="909" d="M35 1026q0 32 24.5 54t57.5 22q32 0 55.5 -18.5t34.5 -49.5l250 -747h4l246 747q21 68 86 68q33 0 57 -22t24 -54q0 -29 -24 -100l-455 -1301q-24 -67 -88 -67q-33 0 -57.5 21.5t-24.5 53.5q0 34 27 101l115 305l-308 887q-24 71 -24 100zM227 1329q0 48 72 76l236 96 q45 19 69 19q35 0 56.5 -27t21.5 -59q0 -46 -72 -76l-235 -96q-45 -19 -70 -19q-35 0 -56.5 27t-21.5 59z" />
<glyph unicode="&#xfe;" horiz-adv-x="1138" d="M127 -346v1831q0 44 24.5 70t65.5 26t65.5 -26t24.5 -70v-533h4q77 150 291 150q140 0 248 -79t162.5 -204.5t54.5 -273.5t-54.5 -273.5t-162.5 -204.5t-248 -79q-94 0 -170.5 41.5t-120.5 105.5h-4v-481q0 -44 -24.5 -70t-65.5 -26t-65.5 26t-24.5 70zM289 545 q0 -76 17 -145t51.5 -128t94 -94t136.5 -35t136.5 35t94 94t51.5 128t17 145t-17 145t-51.5 127.5t-94 93.5t-136.5 35t-136.5 -35t-94 -93.5t-51.5 -127.5t-17 -145z" />
<glyph unicode="&#xff;" horiz-adv-x="909" d="M35 1026q0 32 24.5 54t57.5 22q32 0 55.5 -18.5t34.5 -49.5l250 -747h4l246 747q21 68 86 68q33 0 57 -22t24 -54q0 -29 -24 -100l-455 -1301q-24 -67 -88 -67q-33 0 -57.5 21.5t-24.5 53.5q0 34 27 101l115 305l-308 887q-24 71 -24 100zM154 1348q0 44 33 77t77 33 t77.5 -33t33.5 -77t-33.5 -77.5t-77.5 -33.5t-77 33.5t-33 77.5zM535 1348q0 44 33 77t77 33t77.5 -33t33.5 -77t-33.5 -77.5t-77.5 -33.5t-77 33.5t-33 77.5z" />
<glyph unicode="&#x152;" horiz-adv-x="1896" d="M63 729q0 145 43.5 277.5t122.5 236.5t202 165.5t271 61.5q251 0 433 -204v94q0 46 24 72t72 26h493q42 0 65 -21.5t23 -62.5t-23 -62.5t-65 -21.5h-409v-477h395q42 0 65 -21.5t23 -62.5t-23 -62.5t-65 -21.5h-395v-477h430q42 0 65 -21.5t23 -62.5t-23 -62.5t-65 -21.5 h-514q-48 0 -72 26.5t-24 71.5v115h-5q-70 -101 -185.5 -163t-242.5 -62q-148 0 -271 61.5t-202 165.5t-122.5 236.5t-43.5 277.5zM256 729q0 -89 15.5 -172t50 -159t85.5 -132t126.5 -89.5t168.5 -33.5t169.5 33.5t127.5 89.5t85.5 132t49.5 159t15 172t-15 172t-49.5 159 t-85.5 132t-127.5 89.5t-169.5 33.5t-168.5 -33.5t-126.5 -89.5t-85.5 -132t-50 -159t-15.5 -172z" />
<glyph unicode="&#x153;" horiz-adv-x="1857" d="M72 545q0 110 32.5 210.5t92 178t150 123t198.5 45.5q121 0 223.5 -56.5t171.5 -156.5q57 99 159 156t226 57q109 0 201 -45.5t152 -120.5t93 -169.5t33 -195.5q0 -51 -22 -73.5t-78 -22.5h-678q0 -146 90 -237.5t248 -90.5q89 0 147 24.5t125 76.5q52 40 80 43 q27 0 46.5 -22t19.5 -58q0 -45 -63 -97.5t-164.5 -89t-198.5 -36.5q-144 0 -251 56.5t-165 156.5q-71 -99 -173.5 -156t-221.5 -57q-108 0 -198.5 46t-150 123.5t-92 177.5t-32.5 210zM252 545q0 -75 17.5 -144.5t51.5 -128.5t93 -94t135 -35t135 35t93 93.5t51.5 128 t17.5 145.5q0 75 -17.5 144.5t-51.5 128t-93 93.5t-135 35q-61 0 -111.5 -23t-84.5 -62t-57 -91t-33.5 -108.5t-10.5 -116.5zM1026 610h598q0 50 -11.5 98t-35.5 91t-58.5 76t-84.5 52t-109 19t-109 -19t-84.5 -52t-58.5 -76t-35.5 -91t-11.5 -98z" />
<glyph unicode="&#x178;" horiz-adv-x="1024" d="M2 1397q0 32 23.5 52.5t58.5 20.5q56 0 90 -57l338 -551l338 551q34 57 90 57q35 0 58.5 -20.5t23.5 -52.5q0 -26 -29 -76l-391 -637v-600q0 -44 -24.5 -70t-65.5 -26t-65.5 26t-24.5 70v600l-391 637q-29 50 -29 76zM211 1675q0 44 33.5 77.5t77.5 33.5t77 -33.5 t33 -77.5t-33 -77t-77 -33t-77.5 33t-33.5 77zM592 1675q0 44 33 77.5t77 33.5t77.5 -33.5t33.5 -77.5t-33.5 -77t-77.5 -33t-77 33t-33 77z" />
<glyph unicode="&#x2c6;" d="M-102 1321q0 54 47 72l264 112l264 -112q47 -18 47 -72q0 -33 -21 -55.5t-53 -22.5q-22 0 -45 10l-192 76l-193 -76q-23 -10 -45 -10q-32 0 -52.5 22.5t-20.5 55.5z" />
<glyph unicode="&#x2dc;" d="M-96 1341q0 52 55 90.5t135 38.5q46 0 123 -22q65 -18 102 -18q28 0 70 22q35 18 57 18q25 0 46.5 -24.5t21.5 -54.5q0 -51 -55 -90t-135 -39q-46 0 -123 22q-68 19 -103 19q-25 0 -69 -23q-34 -18 -58 -18q-25 0 -46 24.5t-21 54.5z" />
<glyph unicode="&#x2000;" horiz-adv-x="944" />
<glyph unicode="&#x2001;" horiz-adv-x="1888" />
<glyph unicode="&#x2002;" horiz-adv-x="944" />
<glyph unicode="&#x2003;" horiz-adv-x="1888" />
<glyph unicode="&#x2004;" horiz-adv-x="629" />
<glyph unicode="&#x2005;" horiz-adv-x="472" />
<glyph unicode="&#x2006;" horiz-adv-x="314" />
<glyph unicode="&#x2007;" horiz-adv-x="314" />
<glyph unicode="&#x2008;" horiz-adv-x="236" />
<glyph unicode="&#x2009;" horiz-adv-x="377" />
<glyph unicode="&#x200a;" horiz-adv-x="104" />
<glyph unicode="&#x2010;" horiz-adv-x="720" d="M72 549q0 32 23 55t55 23h421q32 0 55 -23t23 -55t-23 -55t-55 -23h-421q-32 0 -55 23t-23 55z" />
<glyph unicode="&#x2011;" horiz-adv-x="720" d="M72 549q0 32 23 55t55 23h421q32 0 55 -23t23 -55t-23 -55t-55 -23h-421q-32 0 -55 23t-23 55z" />
<glyph unicode="&#x2012;" horiz-adv-x="720" d="M72 549q0 32 23 55t55 23h421q32 0 55 -23t23 -55t-23 -55t-55 -23h-421q-32 0 -55 23t-23 55z" />
<glyph unicode="&#x2013;" horiz-adv-x="1024" d="M0 549q0 32 23 55t55 23h868q32 0 55 -23t23 -55t-23 -55t-55 -23h-868q-32 0 -55 23t-23 55z" />
<glyph unicode="&#x2014;" horiz-adv-x="2048" d="M-78 549q0 32 23 55t55 23h2048q32 0 55 -23t23 -55t-23 -55t-55 -23h-2048q-32 0 -55 23t-23 55z" />
<glyph unicode="&#x2018;" d="M51 1094q0 30 23 75l114 226q20 39 41.5 57t55.5 18q33 0 57.5 -22.5t24.5 -54.5q0 -31 -23 -76l-115 -225q-20 -40 -41.5 -58t-54.5 -18t-57.5 23t-24.5 55z" />
<glyph unicode="&#x2019;" d="M51 1094q0 30 23 75l114 226q20 39 41.5 57t55.5 18q33 0 57.5 -22.5t24.5 -54.5q0 -31 -23 -76l-115 -225q-20 -40 -41.5 -58t-54.5 -18t-57.5 23t-24.5 55z" />
<glyph unicode="&#x201a;" d="M51 -180q0 31 23 76l114 225q20 39 41.5 57.5t55.5 18.5q33 0 57.5 -23t24.5 -55q0 -31 -23 -76l-115 -225q-20 -40 -41.5 -58t-54.5 -18t-57.5 23t-24.5 55z" />
<glyph unicode="&#x201c;" horiz-adv-x="684" d="M39 1094q0 32 22 75l115 226q20 39 41 57t55 18q33 0 57.5 -22.5t24.5 -54.5q0 -33 -22 -76l-115 -225q-20 -40 -41.5 -58t-54.5 -18t-57.5 23t-24.5 55zM330 1094q0 32 22 75l115 226q20 39 41 57t55 18q33 0 57.5 -22.5t24.5 -54.5q0 -33 -22 -76l-115 -225 q-20 -40 -41.5 -58t-54.5 -18t-57.5 23t-24.5 55z" />
<glyph unicode="&#x201d;" horiz-adv-x="684" d="M39 1094q0 32 22 75l115 226q20 39 41 57t55 18q33 0 57.5 -22.5t24.5 -54.5q0 -33 -22 -76l-115 -225q-20 -40 -41.5 -58t-54.5 -18t-57.5 23t-24.5 55zM330 1094q0 32 22 75l115 226q20 39 41 57t55 18q33 0 57.5 -22.5t24.5 -54.5q0 -33 -22 -76l-115 -225 q-20 -40 -41.5 -58t-54.5 -18t-57.5 23t-24.5 55z" />
<glyph unicode="&#x201e;" horiz-adv-x="684" d="M39 -180q0 33 22 76l115 225q20 40 41.5 58t54.5 18t57.5 -23t24.5 -55q0 -33 -22 -76l-115 -225q-20 -40 -41.5 -58t-54.5 -18t-57.5 23t-24.5 55zM330 -180q0 33 22 76l115 225q20 40 41.5 58t54.5 18t57.5 -23t24.5 -55q0 -33 -22 -76l-115 -225q-20 -40 -41.5 -58 t-54.5 -18t-57.5 23t-24.5 55z" />
<glyph unicode="&#x2022;" horiz-adv-x="1024" d="M147 729q0 150 107.5 257.5t257.5 107.5q151 0 258 -107t107 -258q0 -149 -107.5 -256.5t-257.5 -107.5q-149 0 -257 107.5t-108 256.5z" />
<glyph unicode="&#x2026;" horiz-adv-x="2048" d="M238 92q0 43 30.5 74t73.5 31t73.5 -31t30.5 -74t-30.5 -73.5t-73.5 -30.5t-73.5 30.5t-30.5 73.5zM920 92q0 43 30.5 74t73.5 31t73.5 -31t30.5 -74t-30.5 -73.5t-73.5 -30.5t-73.5 30.5t-30.5 73.5zM1602 92q0 43 30.5 74t73.5 31t73.5 -31t30.5 -74t-30.5 -73.5 t-73.5 -30.5t-73.5 30.5t-30.5 73.5z" />
<glyph unicode="&#x202f;" horiz-adv-x="377" />
<glyph unicode="&#x2039;" horiz-adv-x="530" d="M88 549l203 364q31 54 69 54q34 0 58 -19t24 -53q0 -27 -22 -64l-170 -282l170 -283q22 -37 22 -63q0 -34 -24 -53t-58 -19q-39 0 -69 53z" />
<glyph unicode="&#x203a;" horiz-adv-x="530" d="M88 203q0 24 23 63l170 283l-170 282q-23 39 -23 64q0 34 24 53t58 19q39 0 70 -54l202 -364l-202 -365q-30 -53 -70 -53q-34 0 -58 19t-24 53z" />
<glyph unicode="&#x205f;" horiz-adv-x="472" />
<glyph unicode="&#x2122;" horiz-adv-x="2027" d="M119 1391q0 67 65 67h557q66 0 66 -67q0 -68 -66 -68h-194v-625q0 -42 -21.5 -65t-62.5 -23t-62.5 23t-21.5 65v625h-195q-65 0 -65 68zM971 688v645q0 137 129 137q106 0 137 -79l205 -535l200 535q31 79 138 79q129 0 129 -137v-645q0 -32 -23 -55t-55 -23t-55 23 t-23 55v590h-4l-221 -592q-15 -41 -35.5 -58.5t-52.5 -17.5t-52.5 17.5t-35.5 58.5l-222 592h-4v-590q0 -32 -22.5 -55t-54.5 -23t-55 23t-23 55z" />
<glyph unicode="&#x25fc;" horiz-adv-x="1105" d="M0 0v1106h1106v-1106h-1106z" />
</font>
</defs>
</svg>
