<?xml version="1.0" encoding="UTF-8" standalone="no"?>
<svg width="76px" height="18px" viewBox="0 0 76 18" version="1.1" xmlns="http://www.w3.org/2000/svg" xmlns:xlink="http://www.w3.org/1999/xlink" xmlns:sketch="http://www.bohemiancoding.com/sketch/ns">
    <!-- Generator: Sketch 3.3.1 (12002) - http://www.bohemiancoding.com/sketch -->
    <title>filmfreeway-logo-hires-white-ce339d624c0fe9f43545fc2a52ea2e45</title>
    <desc>Created with Sketch.</desc>
    <defs></defs>
    <g id="HOME" stroke="none" stroke-width="1" fill="none" fill-rule="evenodd" sketch:type="MSPage">
        <g id="Home" sketch:type="MSArtboardGroup" transform="translate(-1362.000000, -8.000000)" fill="#FFFFFF">
            <g id="TOPBAR" sketch:type="MSLayerGroup">
                <g id="BTN-Copy" transform="translate(1271.000000, 6.000000)" sketch:type="MSShapeGroup">
                    <path d="M100.430638,2.9674642 L91.3738086,4.92302281 C91.1776192,4.96518825 91.0155116,5.15110942 91.0010924,5.34424022 L91.0006554,5.35363459 L91,5.36302897 L91,17.5953747 L91.0006554,17.6045506 L91.0006554,17.6047691 L91.0010924,17.6137265 C91.0155116,17.8068573 91.1778376,17.992997 91.3738086,18.0353809 L100.430638,19.9909395 C100.636004,20.0352897 100.804447,19.9055163 100.804447,19.7027726 L100.804447,8.70961 L95.9508339,8.70961 L95.9508339,10.6937887 L99.5901697,10.6937887 L99.5901697,11.3087923 C99.5901697,11.5764227 99.4953521,11.8051647 99.3052799,11.9923967 C99.1152078,12.1798472 98.8855919,12.2735724 98.6120627,12.2735724 L95.9508339,12.2735724 L95.9508339,16.3448309 L94.0503306,16.3448309 L94.0503306,8.09460637 C94.0503306,7.82719449 94.1451482,7.59867094 94.3352204,7.41122046 C94.525511,7.22376997 94.7570932,7.12982625 95.0282192,7.12982625 L100.804447,7.12982625 L100.804447,3.25541261 C100.804447,3.05266896 100.636004,2.92311403 100.430638,2.9674642 L100.430638,2.9674642 Z M130.953607,12.0588127 C130.972177,11.5947745 131.106539,11.2380068 131.361498,10.9865435 C131.614053,10.737265 131.94089,10.6116426 132.339605,10.6116426 C132.773057,10.6116426 133.109288,10.737265 133.343273,10.9865435 C133.561091,11.219655 133.68868,11.5764227 133.723636,12.0588127 L130.953607,12.0588127 L130.953607,12.0588127 Z M132.284112,9.05720176 C131.252479,9.05720176 130.445874,9.38840797 129.866263,10.0492911 C129.305223,10.6916039 129.024702,11.5855986 129.024702,12.7286533 C129.024702,13.9263264 129.314617,14.8452271 129.894009,15.4875399 C130.47362,16.1482045 131.280225,16.4798477 132.311859,16.4798477 C133.162377,16.4798477 133.869576,16.2740454 134.430399,15.8626593 C134.991439,15.4694066 135.371583,14.8978792 135.570832,14.1480773 L134.212799,14.1480773 C133.996947,14.1480773 133.827848,14.1937383 133.709654,14.2828756 C133.593644,14.3720129 133.524169,14.4430169 133.508002,14.495669 C133.45251,14.5502875 133.403572,14.5985702 133.357255,14.6440127 C133.313124,14.687489 133.262219,14.7196046 133.208693,14.7379564 C132.991093,14.8635788 132.729143,14.9254069 132.420877,14.9254069 C131.950284,14.9254069 131.595483,14.7814327 131.361498,14.495669 C131.106539,14.2280387 130.972177,13.8166526 130.953607,13.263477 L135.652104,13.263477 C135.670674,13.2267734 135.680068,13.1651638 135.680068,13.0760266 L135.680068,12.7813055 C135.680068,11.6013287 135.390154,10.682428 134.810761,10.0217634 C134.212799,9.37966902 133.371238,9.05720176 132.284112,9.05720176 L132.284112,9.05720176 Z M151.675625,9.21930928 C151.205251,9.21930928 150.915336,9.43450594 150.806536,9.86162214 L149.800246,14.1480773 L148.822139,9.21930928 L146.893671,9.21930928 L145.862038,14.1480773 L144.721605,9.21930928 L142.873754,9.21930928 L144.855966,16.3448309 L146.759091,16.3448309 L147.871778,11.2563586 L148.986868,16.3448309 L150.887371,16.3448309 L152.871987,9.21930928 L151.675625,9.21930928 L151.675625,9.21930928 Z M138.214146,12.0588127 C138.232716,11.5947745 138.367296,11.2380068 138.622036,10.9865435 C138.874592,10.737265 139.201865,10.6116426 139.600362,10.6116426 C140.033814,10.6116426 140.369826,10.737265 140.60403,10.9865435 C140.821848,11.219655 140.949437,11.5764227 140.984174,12.0588127 L138.214146,12.0588127 L138.214146,12.0588127 Z M139.544651,9.05720176 C138.513236,9.05720176 137.706631,9.38840797 137.12702,10.0492911 C136.56598,10.6916039 136.285678,11.5855986 136.285678,12.7286533 C136.285678,13.9263264 136.575374,14.8452271 137.154766,15.4875399 C137.734159,16.1482045 138.540764,16.4798477 139.572397,16.4798477 C140.423134,16.4798477 141.130115,16.2740454 141.691155,15.8626593 C142.252196,15.4694066 142.63234,14.8978792 142.831588,14.1480773 L141.473337,14.1480773 C141.257922,14.1480773 141.088605,14.1937383 140.970192,14.2828756 C140.854401,14.3720129 140.784926,14.4430169 140.768759,14.495669 C140.71283,14.5502875 140.664329,14.5985702 140.617794,14.6440127 C140.573881,14.687489 140.522976,14.7196046 140.469669,14.7379564 C140.251632,14.8635788 139.989682,14.9254069 139.681634,14.9254069 C139.210604,14.9254069 138.85624,14.7814327 138.622036,14.495669 C138.367296,14.2280387 138.232716,13.8166526 138.214146,13.263477 L142.912861,13.263477 C142.931213,13.2267734 142.940607,13.1651638 142.940607,13.0760266 L142.940607,12.7813055 C142.940607,11.6013287 142.650692,10.682428 142.0713,10.0217634 C141.473337,9.37966902 140.631776,9.05720176 139.544651,9.05720176 L139.544651,9.05720176 Z M164.831678,9.21930928 C164.361304,9.21930928 164.071389,9.43450594 163.962589,9.86162214 L162.685391,14.2555664 L161.217685,9.21930928 L159.126891,9.21930928 L161.653758,16.3175217 C161.781128,16.6924227 161.739618,16.9644225 161.530976,17.1361429 C161.322115,17.3050231 161.037225,17.3895724 160.675433,17.3895724 L160.158305,17.3895724 L160.158305,18.8642703 C160.214235,18.8642703 160.281525,18.8688583 160.36236,18.8754125 C160.443632,18.8845884 160.513325,18.8983522 160.566414,18.9169225 L160.946777,18.9169225 C161.688277,18.9169225 162.223975,18.8092149 162.550811,18.5944552 C162.875463,18.3451767 163.146589,17.9246147 163.364626,17.3373572 L166.134655,9.21930928 L164.831678,9.21930928 L164.831678,9.21930928 Z M157.177012,13.4255846 C157.177012,13.9263264 157.033257,14.3173944 156.74356,14.6031581 C156.453864,14.8887033 156.05515,15.0326775 155.547417,15.0326775 C155.23915,15.0326775 155.004946,14.9616736 154.840217,14.8176994 C154.67811,14.6577766 154.596837,14.4430169 154.596837,14.1753865 C154.596837,13.9789786 154.659539,13.7823522 154.787128,13.5857258 C154.930447,13.4441548 155.167272,13.3274898 155.494109,13.2381341 C155.494109,13.2381341 155.700567,13.1926915 156.117852,13.1035542 C156.569655,12.9960652 156.924457,12.8818034 157.177012,12.755744 L157.177012,13.4255846 L157.177012,13.4255846 Z M158.153153,9.56711951 C157.647605,9.22651892 156.887316,9.05720176 155.871632,9.05720176 C154.968024,9.05720176 154.270001,9.26278556 153.781056,9.67220539 C153.345201,10.0309393 153.092427,10.4860201 153.020549,11.0391957 L154.840217,11.0391957 C154.930447,10.8423508 155.074421,10.7099557 155.273669,10.6391702 C155.473136,10.5681663 155.700567,10.5318996 155.952904,10.5318996 C156.18973,10.5318996 156.446655,10.5727542 156.727393,10.6527156 C157.007695,10.732677 157.149266,10.9065821 157.149266,11.1742125 C157.149266,11.5329464 156.75077,11.7638732 155.952904,11.8713622 C155.791015,11.8894956 155.647259,11.9124353 155.51967,11.9377783 C155.392082,11.964869 155.283063,11.9786329 155.192834,11.9786329 C154.506608,12.0861219 153.938576,12.3008817 153.495948,12.6209457 C153.053102,12.943413 152.830695,13.4784552 152.830695,14.2280387 C152.830695,15.0326775 153.074075,15.6085744 153.563238,15.9561661 C154.051964,16.3063796 154.622399,16.4798477 155.273669,16.4798477 C155.600724,16.4798477 155.976062,16.4571264 156.40296,16.4136502 C156.826799,16.3677707 157.230539,16.2465177 157.610683,16.0501098 C157.972257,15.8718352 158.285111,15.5814836 158.547061,15.179055 C158.809011,14.7790295 158.941188,14.2188628 158.941188,13.5057644 L158.941188,11.0665049 C158.941188,10.4241921 158.679238,9.92345021 158.153153,9.56711951 L158.153153,9.56711951 Z M126.82926,9.40675977 C126.367624,9.53281913 125.964322,9.72922704 125.621318,9.99685739 C125.259744,10.2821841 124.974636,10.66211 124.765993,11.1353242 C124.557351,11.6085383 124.453139,12.193611 124.453139,12.8883576 L124.453139,16.3448309 L126.354079,16.3448309 L126.354079,12.6757826 C126.354079,12.1387741 126.481449,11.7457398 126.734005,11.4962428 C126.986779,11.2471827 127.376099,11.1215603 127.902403,11.1215603 L128.52833,11.1215603 L128.52833,9.21930928 L128.254801,9.21930928 C127.765638,9.21930928 127.290458,9.28135583 126.82926,9.40675977 L126.82926,9.40675977 Z M116.405876,9.67439012 C115.736036,9.26518877 115.003493,9.05960497 114.206283,9.05960497 C113.807568,9.07795676 113.422617,9.13497841 113.051867,9.23307313 C112.680899,9.3316048 112.35865,9.49611554 112.087306,9.72922704 C111.760469,9.46181516 111.398895,9.28375904 111.000399,9.19440328 C110.601466,9.10504751 110.195978,9.05960497 109.778693,9.05960497 C108.999616,9.09587161 108.288047,9.31784095 107.645953,9.72922704 C107.003858,10.1408316 106.681391,10.9522431 106.681391,12.1660833 L106.681391,16.3448309 L108.582331,16.3448309 L108.582331,11.7911824 C108.582331,11.3636292 108.710138,11.0505563 108.962694,10.8539299 C109.21525,10.6573036 109.505164,10.5589904 109.832001,10.5589904 C110.158838,10.5589904 110.453122,10.6573036 110.715072,10.8539299 C110.977022,11.0505563 111.10898,11.3636292 111.10898,11.7911824 L111.10898,16.3448309 L112.984577,16.3448309 L112.984577,11.7911824 C112.984577,11.3636292 113.116536,11.0505563 113.378486,10.8539299 C113.640436,10.6573036 113.934938,10.5589904 114.261775,10.5589904 C114.586209,10.5589904 114.88093,10.6573036 115.142661,10.8539299 C115.404611,11.0505563 115.536788,11.3636292 115.536788,11.7911824 L115.536788,15.4351062 C115.536788,15.7022996 115.62243,15.919681 115.793931,16.0909644 C115.967837,16.2605001 116.188058,16.3448309 116.461806,16.3448309 L117.412167,16.3448309 L117.412167,12.1660833 C117.412167,10.915758 117.075936,10.0857762 116.405876,9.67439012 L116.405876,9.67439012 Z M104.963313,7.12982625 L103.985206,7.12982625 L103.985206,16.3448309 L105.886147,16.3448309 L105.886147,8.01464498 C105.886147,7.76318168 105.795698,7.55519466 105.614802,7.38369276 C105.433906,7.21459407 105.216306,7.12982625 104.963313,7.12982625 L104.963313,7.12982625 Z M102.429236,7.12982625 L101.451129,7.12982625 L101.451129,8.6047426 L103.351851,8.6047426 L103.351851,8.04217267 C103.351851,7.7904909 103.261621,7.5757312 103.080725,7.39745661 C102.899829,7.21918202 102.68201,7.12982625 102.429236,7.12982625 L102.429236,7.12982625 Z M102.429236,9.21930928 L101.451129,9.21930928 L101.451129,16.3448309 L103.351851,16.3448309 L103.351851,10.1292525 C103.351851,9.88019241 103.261621,9.66521423 103.080725,9.48693964 C102.899829,9.30888353 102.68201,9.21930928 102.429236,9.21930928 L102.429236,9.21930928 Z M120.298423,8.70961 L125.187429,8.70961 L125.187429,7.12982625 L119.375809,7.12982625 C119.104683,7.12982625 118.872664,7.22376997 118.68281,7.41122046 C118.492738,7.59867094 118.397702,7.82719449 118.397702,8.09460637 L118.397702,16.3448309 L120.298423,16.3448309 L120.298423,12.2735724 L122.959652,12.2735724 C123.233181,12.2735724 123.462797,12.1798472 123.65287,11.9923967 C123.842942,11.8051647 123.937978,11.5764227 123.937978,11.3087923 L123.937978,10.6937887 L120.298423,10.6937887 L120.298423,8.70961 L120.298423,8.70961 Z" id="filmfreeway-logo-hires-white-ce339d624c0fe9f43545fc2a52ea2e45"></path>
                </g>
            </g>
        </g>
    </g>
</svg>