<?xml version="1.0" encoding="UTF-8" standalone="no"?>
<svg width="37px" height="25px" viewBox="0 0 37 25" version="1.1" xmlns="http://www.w3.org/2000/svg" xmlns:xlink="http://www.w3.org/1999/xlink" xmlns:sketch="http://www.bohemiancoding.com/sketch/ns">
    <!-- Generator: Sketch 3.2.2 (9983) - http://www.bohemiancoding.com/sketch -->
    <title>VIDEO (static)</title>
    <desc>Created with Sketch.</desc>
    <defs></defs>
    <g id="Features" stroke="none" stroke-width="1" fill="none" fill-rule="evenodd" sketch:type="MSPage">
        <g id="Desktop-HD" sketch:type="MSArtboardGroup" transform="translate(-736.000000, -2296.000000)" fill="#FFC24E">
            <g id="Rectangle-43-+-IPHONE-2-+-SCREENFILLS-4" sketch:type="MSLayerGroup" transform="translate(-9.000000, 2157.000000)">
                <g id="VIDEO-(static)" transform="translate(745.000000, 139.000000)" sketch:type="MSShapeGroup">
                    <path d="M35.7359198,1.97166028 C35.5994157,1.97166028 35.4810259,2.02355527 35.3755748,2.09620824 L35.3697524,2.08582924 L25.0187316,9.22138937 L25.024554,9.23176837 C24.8563499,9.34788339 24.7379601,9.53405664 24.7379601,9.75590769 L24.7379601,16.2427805 C24.7379601,16.4853896 24.876405,16.6884287 25.0730744,16.7993542 L25.0678989,16.8084358 L35.4189197,22.6466214 L35.4240953,22.6375398 C35.5172544,22.6907321 35.6201177,22.7296534 35.7359198,22.7296534 C36.0936769,22.7296534 36.3828586,22.4396902 36.3828586,22.0809661 L36.3828586,2.62034757 C36.3828586,2.2616235 36.0936769,1.97166028 35.7359198,1.97166028 L35.7359198,1.97166028 Z M20.8563273,0.674285714 L2.74204092,0.674285714 C1.31295311,0.674285714 0.154285714,1.83608464 0.154285714,3.26903485 L0.154285714,21.4322788 C0.154285714,22.865229 1.31295311,24.0270279 2.74204092,24.0270279 L20.8563273,24.0270279 C22.2854152,24.0270279 23.4440825,22.865229 23.4440825,21.4322788 L23.4440825,3.26903485 C23.4440825,1.83608464 22.2854152,0.674285714 20.8563273,0.674285714 L20.8563273,0.674285714 Z" id="ICON"></path>
                </g>
            </g>
        </g>
    </g>
</svg>