<?xml version="1.0" encoding="UTF-8" standalone="no"?>
<svg width="21px" height="21px" viewBox="0 0 21 21" version="1.1" xmlns="http://www.w3.org/2000/svg" xmlns:xlink="http://www.w3.org/1999/xlink" xmlns:sketch="http://www.bohemiancoding.com/sketch/ns">
    <!-- Generator: Sketch 3.2.2 (9983) - http://www.bohemiancoding.com/sketch -->
    <title>Fill 15</title>
    <desc>Created with Sketch.</desc>
    <defs></defs>
    <g id="POST" stroke="none" stroke-width="1" fill="none" fill-rule="evenodd" sketch:type="MSPage">
        <g id="Post" sketch:type="MSArtboardGroup" transform="translate(-1370.000000, -909.000000)" fill="#007DA3">
            <g id="SIDEBAR" sketch:type="MSLayerGroup" transform="translate(1205.000000, 152.000000)">
                <g id="Fill-2-+-Fill-15-+-instagram-512-3" transform="translate(124.000000, 751.000000)" sketch:type="MSShapeGroup">
                    <path d="M60.2403259,6.33333333 L42.444753,6.33333333 C41.8348885,6.33333333 41.3407461,6.82738715 41.3407461,7.43714234 L41.3407461,25.2295243 C41.3407461,25.8391296 41.8348885,26.3333333 42.444753,26.3333333 L52.025255,26.3333333 L52.025255,18.588311 L49.4184345,18.588311 L49.4184345,15.5698842 L52.025255,15.5698842 L52.025255,13.3439068 C52.025255,10.7606341 53.6033179,9.35400821 55.9081666,9.35400821 C57.0121736,9.35400821 57.9611099,9.43621313 58.2375988,9.47293183 L58.2375988,12.1725804 L56.6390747,12.1733297 C55.3855434,12.1733297 55.1428567,12.7688471 55.1428567,13.6427521 L55.1428567,15.5698842 L58.1323696,15.5698842 L57.7430816,18.588311 L55.1428567,18.588311 L55.1428567,26.3333333 L60.2403259,26.3333333 C60.8500405,26.3333333 61.3443329,25.8391296 61.3443329,25.2295243 L61.3443329,7.43714234 C61.3443329,6.82738715 60.8500405,6.33333333 60.2403259,6.33333333" id="Fill-15"></path>
                </g>
            </g>
        </g>
    </g>
</svg>