<?xml version="1.0" encoding="UTF-8" standalone="no"?>
<svg width="20px" height="39px" viewBox="0 0 20 39" version="1.1" xmlns="http://www.w3.org/2000/svg" xmlns:xlink="http://www.w3.org/1999/xlink" xmlns:sketch="http://www.bohemiancoding.com/sketch/ns">
    <!-- Generator: Sketch 3.2.2 (9983) - http://www.bohemiancoding.com/sketch -->
    <title>ICON</title>
    <desc>Created with Sketch.</desc>
    <defs></defs>
    <g id="Features" stroke="none" stroke-width="1" fill="none" fill-rule="evenodd" sketch:type="MSPage">
        <g id="Desktop-HD" sketch:type="MSArtboardGroup" transform="translate(-1156.000000, -1928.000000)" fill="#FFC24E">
            <g id="Rectangle-43-+-IPHONE-2-+-SCREENFILLS-5" sketch:type="MSLayerGroup" transform="translate(0.000000, 1800.000000)">
                <g id="ICON" transform="translate(1156.412254, 128.281943)" sketch:type="MSShapeGroup">
                    <path d="M18.9984167,20.58175 L18.9984167,14.25 C18.9984167,13.376 18.2906667,12.6666667 17.4150833,12.6666667 C16.54425,12.6666667 15.8333333,13.376 15.8333333,14.25 L15.8333333,20.58175 C15.8333333,20.8414167 15.7620833,26.9166667 9.5,26.9166667 C3.401,26.9166667 3.17141667,21.2245833 3.16666667,20.58175 L3.16666667,14.25 C3.16666667,13.376 2.45733333,12.6666667 1.58333333,12.6666667 C0.710916667,12.6666667 0,13.376 0,14.25 L0,20.58175 C0,23.62175 1.71316667,29.1618333 7.91666667,29.9740833 L7.91666667,34.83175 L1.58333333,34.83175 C0.710916667,34.83175 0,35.5426667 0,36.4166667 C0,37.2906667 0.710916667,38 1.58333333,38 L17.4150833,38 C18.2906667,38 18.9984167,37.2906667 18.9984167,36.4166667 C18.9984167,35.5426667 18.2906667,34.83175 17.4150833,34.83175 L11.0833333,34.83175 L11.0833333,29.9740833 C17.2884167,29.1618333 18.9984167,23.62175 18.9984167,20.58175" id="Fill-1"></path>
                    <path d="M9.5,25.33175 C12.1251667,25.33175 14.25,23.2069167 14.25,20.5833333 L14.25,14.25 L4.75316667,14.25 L4.75316667,12.6666667 L14.25,12.6666667 L14.25,4.74841667 C14.25,2.12483333 12.1251667,0 9.5,0 C6.87641667,0 4.75,2.12483333 4.75,4.74841667 L4.75,20.5833333 C4.75,23.2069167 6.87641667,25.33175 9.5,25.33175" id="Fill-2"></path>
                </g>
            </g>
        </g>
    </g>
</svg>