<?xml version="1.0" encoding="UTF-8" standalone="no"?>
<svg width="39px" height="39px" viewBox="0 0 39 39" version="1.1" xmlns="http://www.w3.org/2000/svg" xmlns:xlink="http://www.w3.org/1999/xlink" xmlns:sketch="http://www.bohemiancoding.com/sketch/ns">
    <!-- Generator: Sketch 3.2.2 (9983) - http://www.bohemiancoding.com/sketch -->
    <title>PIF 2</title>
    <desc>Created with Sketch.</desc>
    <defs></defs>
    <g id="Features" stroke="none" stroke-width="1" fill="none" fill-rule="evenodd" sketch:type="MSPage">
        <g id="Desktop-HD" sketch:type="MSArtboardGroup" transform="translate(-1140.000000, -2611.000000)">
            <g id="Rectangle-43-+-IPHONE-2-+-SCREENFILLS-7" sketch:type="MSLayerGroup" transform="translate(0.000000, 2481.000000)">
                <g id="PIF-2" transform="translate(1140.000000, 130.000000)" sketch:type="MSShapeGroup">
                    <path d="M36.0234407,19.5 C36.0234407,28.6967288 28.5665085,36.153661 19.3697797,36.153661 C10.1730508,36.153661 2.71545763,28.6967288 2.71545763,19.5 C2.71545763,10.3026102 10.1730508,2.84567797 19.3697797,2.84567797 C28.5665085,2.84567797 36.0234407,10.3026102 36.0234407,19.5" id="Fill-1" fill="#FFFFFF"></path>
                    <path d="M36.0234407,19.5 L33.6655932,19.5 C33.6642712,23.4542034 32.0685763,27.0131186 29.4780508,29.6082712 C26.8828983,32.1987966 23.3239831,33.7944915 19.3697797,33.7951525 C15.4149153,33.7944915 11.856,32.1987966 9.26150847,29.6082712 C6.67032203,27.0131186 5.07528814,23.4542034 5.0739661,19.5 C5.07528814,15.5451356 6.67032203,11.9862203 9.26150847,9.3910678 C11.856,6.80054237 15.4149153,5.20550847 19.3697797,5.20418644 C23.3239831,5.20550847 26.8828983,6.80054237 29.4780508,9.3910678 C32.0685763,11.9862203 33.6642712,15.5451356 33.6655932,19.5 L38.3819492,19.5 C38.3826102,14.2574746 36.2495085,9.48955932 32.8128814,6.05623729 C29.3795593,2.61961017 24.6116441,0.486508475 19.3697797,0.487830508 C14.1272542,0.486508475 9.35933898,2.61961017 5.92667797,6.05623729 C2.48938983,9.48955932 0.356288136,14.2574746 0.357610169,19.5 C0.356288136,24.7418644 2.48938983,29.5097797 5.92667797,32.9431017 C9.35933898,36.3797288 14.1272542,38.5128305 19.3697797,38.5115085 C24.6116441,38.5128305 29.3795593,36.3797288 32.8128814,32.9431017 C36.2495085,29.5097797 38.3826102,24.7418644 38.3819492,19.5 L36.0234407,19.5" id="Fill-2" fill="#FFC24E"></path>
                    <path d="M19.694339,12.8528136 C19.9124746,12.8528136 20.1358983,12.9347797 20.3084237,13.0993729 L25.9944915,18.3656949 C26.3368983,18.6948814 26.3441695,19.2428644 26.0070508,19.5799831 L20.5503559,25.7975085 C20.2105932,26.1372712 19.655339,26.1445424 19.3109492,25.8120508 C18.9672203,25.4795593 18.9599492,24.9368644 19.3016949,24.5977627 L24.141,18.993 L19.0809153,14.3235763 C18.7371864,13.9943898 18.7318983,13.4490508 19.0690169,13.1119322 C19.2408814,12.9374237 19.4662881,12.8528136 19.694339,12.8528136" id="Fill-3" fill="#FFC24E"></path>
                    <path d="M19.694339,12.8528136 L19.694339,14.5013898 L19.694339,13.7425424 L19.1694915,14.2918475 C19.3162373,14.430661 19.500661,14.5013898 19.694339,14.5013898 L19.694339,13.7425424 L19.1694915,14.2918475 L19.1800678,14.3024237 L24.8740678,19.5753559 L25.9944915,18.3656949 L24.8509322,19.5528814 L25.4035424,18.9791186 L24.6063559,18.9791186 C24.6043729,19.1820508 24.6909661,19.4001864 24.8509322,19.5528814 L25.4035424,18.9791186 L24.6063559,18.9791186 L25.4055254,18.9791186 L24.8403559,18.4146102 C24.687661,18.5659831 24.6043729,18.7814746 24.6063559,18.9791186 L25.4055254,18.9791186 L24.8403559,18.4146102 L24.802678,18.4516271 L19.3109492,24.7101356 L20.5503559,25.7975085 L19.384322,24.6314746 L19.9210678,25.1682203 L19.9210678,24.4080508 C19.734661,24.4067288 19.5337119,24.4820847 19.384322,24.6314746 L19.9210678,25.1682203 L19.9210678,24.4080508 L19.9210678,25.1787966 L20.4551695,24.6248644 C20.3037966,24.4787797 20.1021864,24.4060678 19.9210678,24.4080508 L19.9210678,25.1787966 L20.4551695,24.6248644 L20.4578136,24.6275085 L19.9038814,25.1992881 L20.6977627,25.1992881 C20.6997458,24.9897458 20.6091864,24.7722712 20.4578136,24.6275085 L19.9038814,25.1992881 L20.6977627,25.1992881 L19.8972712,25.1992881 L20.4617797,25.7697458 C20.6105085,25.6249831 20.7010678,25.4035424 20.6977627,25.1992881 L19.8972712,25.1992881 L20.4617797,25.7697458 L20.5080508,25.7241356 L26.4314237,18.8634407 L20.1993559,13.1119322 L19.0809153,14.3235763 L20.2218305,13.1330847 L19.6665763,13.7121356 L20.4683898,13.7121356 C20.4703729,13.5058983 20.3811356,13.2844576 20.2218305,13.1330847 L19.6665763,13.7121356 L20.4683898,13.7121356 L19.6678983,13.7121356 L20.2337288,14.2792881 C20.3857627,14.1292373 20.4703729,13.9130847 20.4683898,13.7121356 L19.6678983,13.7121356 L20.2337288,14.2792881 L20.240339,14.272678 L20.242322,14.2706949 L19.694339,13.7299831 L19.694339,14.5013898 C19.8721525,14.5053559 20.0955763,14.4227288 20.242322,14.2706949 L19.694339,13.7299831 L19.694339,14.5013898 L19.694339,11.2035763 C19.0604237,11.1996102 18.3868475,11.4521186 17.8957119,11.9538305 L17.9036441,11.9452373 C17.4191186,12.4277797 17.1685932,13.0782203 17.1705763,13.7121356 C17.1679322,14.3632373 17.432339,15.0295424 17.940661,15.5147288 L17.9512373,15.5253051 L21.8499153,19.1232203 L18.0536949,23.5203051 L19.3016949,24.5977627 L18.1416102,23.4257797 C17.6544407,23.905678 17.3973051,24.5614068 17.3999492,25.1992881 C17.3979661,25.8543559 17.6650169,26.5153729 18.1640847,26.9972542 L18.1667288,26.9992373 C18.6572034,27.4725254 19.2990508,27.7071864 19.9210678,27.7058644 C20.5642373,27.7065254 21.2212881,27.4579831 21.7163898,26.9635424 L21.7540678,26.9258644 L27.2464576,20.6673559 L26.0070508,19.5799831 L27.1737458,20.7453559 C27.6582712,20.2608305 27.9061525,19.6110508 27.9041695,18.9791186 C27.9061525,18.329339 27.6450508,17.6650169 27.1387119,17.1778475 L27.1274746,17.1666102 L21.4288475,11.8897119 L20.3084237,13.0993729 L21.4466949,11.9068983 C20.9548983,11.4388983 20.3242881,11.2042373 19.694339,11.2035763 L19.694339,12.8528136" id="Fill-4" fill="#FFC24E"></path>
                    <path d="M13.3181695,14.6071525 L13.3115593,14.6071525 C12.9182542,14.6078136 12.5342034,14.7578644 12.2387288,15.0427627 L12.2321186,15.0487119 L12.2248475,15.0559831 C11.935322,15.3455085 11.7813051,15.7374915 11.7826271,16.1241864 C11.7806441,16.5207966 11.9458983,16.9293051 12.2572373,17.2208136 L12.2605424,17.2241186 L14.6765593,19.4537288 L12.3332542,22.1645593 C12.0642203,22.4534237 11.9260678,22.8282203 11.9273898,23.1970678 C11.9254068,23.5890508 12.0840508,23.9929322 12.3920847,24.2870847 C12.6895424,24.5733051 13.0762373,24.7147627 13.4523559,24.7147627 L13.455661,24.7147627 L13.4583051,24.7147627 C13.843678,24.7147627 14.2402881,24.5666949 14.5397288,24.2672542 L14.5628644,24.2441186 L17.9228136,20.4102203 C18.1984576,20.123339 18.3432203,19.7406102 18.3412373,19.3691186 C18.3425593,18.9705254 18.1806102,18.5706102 17.8778644,18.2791017 L17.8692712,18.2705085 L14.3672034,15.0275593 C14.0770169,14.7505932 13.690322,14.6071525 13.3181695,14.6071525" id="Fill-5" fill="#FFC24E"></path>
                </g>
            </g>
        </g>
    </g>
</svg>