<?xml version="1.0" encoding="UTF-8" standalone="no"?>
<svg width="29px" height="26px" viewBox="0 0 29 26" version="1.1" xmlns="http://www.w3.org/2000/svg" xmlns:xlink="http://www.w3.org/1999/xlink" xmlns:sketch="http://www.bohemiancoding.com/sketch/ns">
    <!-- Generator: Sketch 3.2.2 (9983) - http://www.bohemiancoding.com/sketch -->
    <title>ICON LOGO 2</title>
    <desc>Created with Sketch.</desc>
    <defs>
        <linearGradient x1="50%" y1="2.66860651%" x2="50%" y2="100%" id="linearGradient-1">
            <stop stop-color="#00B8D4" offset="0%"></stop>
            <stop stop-color="#00D7B3" offset="100%"></stop>
        </linearGradient>
    </defs>
    <g id="Features" stroke="none" stroke-width="1" fill="none" fill-rule="evenodd" sketch:type="MSPage">
        <g id="Desktop-HD" sketch:type="MSArtboardGroup" transform="translate(-1099.000000, -1123.000000)" fill="#FFC24E">
            <g id="ICON-LOGO-2" sketch:type="MSLayerGroup" transform="translate(1099.000000, 1123.000000)">
                <path d="M14.5881345,25.1807634 C8.07931799,25.1807634 2.32323801,20.9331298 0.264685492,14.6109924 C-0.0559576048,13.6256489 0.463448452,12.56 1.42537774,12.231145 C2.38611505,11.9022901 3.42731113,12.4348092 3.74825222,13.4207634 C5.30557641,18.2042748 9.66197179,21.4183206 14.5881345,21.4183206 C19.5139991,21.4183206 23.8703945,18.2042748 25.4283147,13.4201527 C25.7495538,12.4348092 26.7904519,11.9016794 27.7511892,12.2314504 C28.7131185,12.56 29.2328225,13.6256489 28.9118814,14.6116031 C26.8527329,20.9331298 21.0963549,25.1807634 14.5881345,25.1807634" id="Fill-3" sketch:type="MSShapeGroup"></path>
                <path d="M10.7490592,12.6366412 C9.73498067,12.6366412 8.91310924,11.7941985 8.91310924,10.7554198 L8.91310924,2.66412214 C8.91310924,1.62503817 9.73498067,0.782900763 10.7490592,0.782900763 C11.7631377,0.782900763 12.5850091,1.62503817 12.5850091,2.66412214 L12.5850091,10.7554198 C12.5850091,11.7941985 11.7631377,12.6366412 10.7490592,12.6366412" id="Fill-4" sketch:type="MSShapeGroup"></path>
                <path d="M18.7269932,11.7319084 C18.2439426,11.7319084 17.7617859,11.5380153 17.4012114,11.1520611 L14.6009483,8.15694656 C13.9468483,7.45770992 13.9182407,6.36366412 14.5344953,5.62931298 L17.2945291,2.33954198 C17.955483,1.55145038 19.1152812,1.46198473 19.8835135,2.13954198 C20.6526397,2.81679389 20.7399524,4.00458015 20.0789985,4.79267176 L18.4051581,6.78717557 L20.0524769,8.54900763 C20.7542562,9.29923664 20.7292245,10.4903817 19.9970497,11.2091603 C19.6409452,11.5584733 19.1838202,11.7319084 18.7269932,11.7319084" id="Fill-5" sketch:type="MSShapeGroup"></path>
            </g>
        </g>
    </g>
</svg>