<?xml version="1.0" encoding="UTF-8" standalone="no"?>
<svg width="32px" height="32px" viewBox="0 0 32 32" version="1.1" xmlns="http://www.w3.org/2000/svg" xmlns:xlink="http://www.w3.org/1999/xlink" xmlns:sketch="http://www.bohemiancoding.com/sketch/ns">
    <!-- Generator: Sketch 3.2.2 (9983) - http://www.bohemiancoding.com/sketch -->
    <title>Fill 15</title>
    <desc>Created with Sketch.</desc>
    <defs></defs>
    <g id="HOME" stroke="none" stroke-width="1" fill="none" fill-rule="evenodd" sketch:type="MSPage">
        <g id="Home" sketch:type="MSArtboardGroup" transform="translate(-555.000000, -3110.000000)" fill="#3B5998">
            <g id="FOOTER" sketch:type="MSLayerGroup" transform="translate(0.000000, 3009.000000)">
                <g id="Fill-2-+-Fill-15-+-instagram-512-2" transform="translate(492.000000, 101.000000)" sketch:type="MSShapeGroup">
                    <path d="M93.0986855,0.68627451 L65.5964365,0.68627451 C64.6539186,0.68627451 63.8902439,1.44188623 63.8902439,2.37445298 L63.8902439,29.5863313 C63.8902439,30.5186689 64.6539186,31.2745098 65.5964365,31.2745098 L80.4026668,31.2745098 L80.4026668,19.4291815 L76.3739442,19.4291815 L76.3739442,14.812764 L80.4026668,14.812764 L80.4026668,11.4083281 C80.4026668,7.45744033 82.8414912,5.3061302 86.4035302,5.3061302 C88.1097228,5.3061302 89.5762607,5.43185537 90.0035618,5.48801338 L90.0035618,9.61688763 L87.5331154,9.61803371 C85.5958397,9.61803371 85.2207785,10.5288249 85.2207785,11.8653855 L85.2207785,14.812764 L89.8409349,14.812764 L89.239308,19.4291815 L85.2207785,19.4291815 L85.2207785,31.2745098 L93.0986855,31.2745098 C94.0409717,31.2745098 94.804878,30.5186689 94.804878,29.5863313 L94.804878,2.37445298 C94.804878,1.44188623 94.0409717,0.68627451 93.0986855,0.68627451" id="Fill-15"></path>
                </g>
            </g>
        </g>
    </g>
</svg>