<?xml version="1.0" encoding="UTF-8" standalone="no"?>
<svg width="16px" height="17px" viewBox="0 0 16 17" version="1.1" xmlns="http://www.w3.org/2000/svg" xmlns:xlink="http://www.w3.org/1999/xlink" xmlns:sketch="http://www.bohemiancoding.com/sketch/ns">
    <!-- Generator: Sketch 3.2.2 (9983) - http://www.bohemiancoding.com/sketch -->
    <title>Shape</title>
    <desc>Created with Sketch.</desc>
    <defs></defs>
    <g id="POST" stroke="none" stroke-width="1" fill="none" fill-rule="evenodd" sketch:type="MSPage">
        <g id="Post" sketch:type="MSArtboardGroup" transform="translate(-1233.000000, -342.000000)" fill="#A6A6A6">
            <g id="SIDEBAR" sketch:type="MSLayerGroup" transform="translate(1205.000000, 152.000000)">
                <g id="SEARCH" transform="translate(15.000000, 179.000000)" sketch:type="MSShapeGroup">
                    <path d="M28.8938104,25.4467281 L23.8882449,20.4324089 C24.5383204,19.4616318 24.887598,18.3201633 24.887598,17.1250033 C24.887598,15.5346085 24.2693623,14.0394163 23.14665,12.9147766 C22.0239378,11.7902971 20.5314681,11.171 18.943799,11.171 C17.35613,11.171 15.8635003,11.7902971 14.740788,12.9147766 C13.6182357,14.0394163 13,15.5346085 13,17.1250033 C13,18.715398 13.6182357,20.21043 14.740948,21.3350697 C15.8636603,22.4597094 17.35613,23.0790065 18.943959,23.0790065 C20.1505107,23.0790065 21.3018628,22.7209553 22.278016,22.0556597 L27.2787815,27.0646899 C27.4475804,27.2339388 27.7579782,27.1970759 27.9718968,26.9827901 L28.812211,26.1410333 C29.0261295,25.9267475 29.0627692,25.6158167 28.8938104,25.4467281 L28.8938104,25.4467281 Z M18.943799,21.4660132 C16.5540555,21.4660132 14.6100689,19.5186892 14.6100689,17.1250033 C14.6100689,14.7313173 16.5542155,12.783833 18.943799,12.783833 C21.3333825,12.783833 23.2773691,14.7313173 23.2773691,17.1250033 C23.2773691,19.5186892 21.3333825,21.4660132 18.943799,21.4660132 L18.943799,21.4660132 Z" id="Shape"></path>
                </g>
            </g>
        </g>
    </g>
</svg>