<?xml version="1.0" encoding="UTF-8" standalone="no"?>
<svg width="32px" height="31px" viewBox="0 0 32 31" version="1.1" xmlns="http://www.w3.org/2000/svg" xmlns:xlink="http://www.w3.org/1999/xlink" xmlns:sketch="http://www.bohemiancoding.com/sketch/ns">
    <!-- Generator: Sketch 3.2.2 (9983) - http://www.bohemiancoding.com/sketch -->
    <title>Fill 1</title>
    <desc>Created with Sketch.</desc>
    <defs></defs>
    <g id="HOME" stroke="none" stroke-width="1" fill="none" fill-rule="evenodd" sketch:type="MSPage">
        <g id="Home" sketch:type="MSArtboardGroup" transform="translate(-619.000000, -3111.000000)" fill="#3F729B">
            <g id="FOOTER" sketch:type="MSLayerGroup" transform="translate(0.000000, 3009.000000)">
                <g id="Fill-2-+-Fill-15-+-instagram-512-2" transform="translate(492.000000, 101.000000)" sketch:type="MSShapeGroup">
                    <path d="M154.653333,31.7960784 L131.113187,31.7960784 C129.163786,31.7960784 127.583125,30.2148766 127.583125,28.2641239 L127.583125,4.72614063 C127.583125,2.77646927 129.163786,1.19607843 131.113187,1.19607843 L154.653333,1.19607843 C156.603005,1.19607843 158.183396,2.77646927 158.183396,4.72614063 L158.183396,28.2641239 C158.183396,30.2148766 156.603005,31.7960784 154.653333,31.7960784 L154.653333,31.7960784 Z M142.883125,10.6111095 C139.632862,10.6111095 136.998427,13.2452745 136.998427,16.4955378 C136.998427,19.7452604 139.632862,22.380777 142.883125,22.380777 C146.133389,22.380777 148.768365,19.7452604 148.768365,16.4955378 C148.768365,13.2452745 146.133389,10.6111095 142.883125,10.6111095 L142.883125,10.6111095 Z M154.653333,5.90291814 C154.653333,5.25329802 154.126176,4.72614063 153.475204,4.72614063 L149.945142,4.72614063 C149.294981,4.72614063 148.768365,5.25329802 148.768365,5.90291814 L148.768365,9.43433202 C148.768365,10.0839521 149.294981,10.6111095 149.945142,10.6111095 L153.475204,10.6111095 C154.126176,10.6111095 154.653333,10.0839521 154.653333,9.43433202 L154.653333,5.90291814 Z M154.653333,14.1409014 L151.989431,14.1409014 C152.183533,14.894331 152.298156,15.6815527 152.298156,16.4955378 C152.298156,21.6962834 148.08306,25.9111095 142.883125,25.9111095 C137.683461,25.9111095 133.468094,21.6962834 133.468094,16.4955378 C133.468094,15.6815527 133.583258,14.894331 133.77736,14.1409014 L131.113187,14.1409014 L131.113187,27.0881574 C131.113187,27.7372368 131.640345,28.2641239 132.291317,28.2641239 L153.475204,28.2641239 C154.126176,28.2641239 154.653333,27.7372368 154.653333,27.0881574 L154.653333,14.1409014 Z" id="Fill-1"></path>
                </g>
            </g>
        </g>
    </g>
</svg>