<?xml version="1.0" encoding="UTF-8" standalone="no"?>
<svg width="22px" height="22px" viewBox="0 0 22 22" version="1.1" xmlns="http://www.w3.org/2000/svg" xmlns:xlink="http://www.w3.org/1999/xlink" xmlns:sketch="http://www.bohemiancoding.com/sketch/ns">
    <!-- Generator: Sketch 3.2.2 (9983) - http://www.bohemiancoding.com/sketch -->
    <title>Fill 1</title>
    <desc>Created with Sketch.</desc>
    <defs></defs>
    <g id="HOME" stroke="none" stroke-width="1" fill="none" fill-rule="evenodd" sketch:type="MSPage">
        <g id="Home" sketch:type="MSArtboardGroup" transform="translate(-619.000000, -3111.000000)" fill="#007DA3">
            <g id="FOOTER" sketch:type="MSLayerGroup" transform="translate(0.000000, 3009.000000)">
                <g id="Fill-2-+-Fill-15-+-instagram-512-2" transform="translate(492.000000, 101.000000)" sketch:type="MSShapeGroup">
                    <path d="M146.160555,22.1960784 L130.005696,22.1960784 C128.667883,22.1960784 127.583125,21.1109399 127.583125,19.7721881 L127.583125,3.61867013 C127.583125,2.28066038 128.667883,1.19607843 130.005696,1.19607843 L146.160555,1.19607843 C147.498553,1.19607843 148.583125,2.28066038 148.583125,3.61867013 L148.583125,19.7721881 C148.583125,21.1109399 147.498553,22.1960784 146.160555,22.1960784 L146.160555,22.1960784 Z M138.083033,7.65737428 C135.852479,7.65737428 134.04455,9.46513455 134.04455,11.6957074 C134.04455,13.9259092 135.852479,15.7345971 138.083033,15.7345971 C140.313586,15.7345971 142.121887,13.9259092 142.121887,11.6957074 C142.121887,9.46513455 140.313586,7.65737428 138.083033,7.65737428 L138.083033,7.65737428 Z M146.160555,4.42626254 C146.160555,3.98044482 145.798784,3.61867013 145.352042,3.61867013 L142.929472,3.61867013 C142.483287,3.61867013 142.121887,3.98044482 142.121887,4.42626254 L142.121887,6.84978187 C142.121887,7.2955996 142.483287,7.65737428 142.929472,7.65737428 L145.352042,7.65737428 C145.798784,7.65737428 146.160555,7.2955996 146.160555,6.84978187 L146.160555,4.42626254 Z M146.160555,10.0797805 L144.332403,10.0797805 C144.465609,10.59684 144.544271,11.1370902 144.544271,11.6957074 C144.544271,15.2648465 141.651584,18.1573743 138.083033,18.1573743 C134.514667,18.1573743 131.621794,15.2648465 131.621794,11.6957074 C131.621794,11.1370902 131.700827,10.59684 131.834033,10.0797805 L130.005696,10.0797805 L130.005696,18.9651522 C130.005696,19.4105989 130.367467,19.7721881 130.814208,19.7721881 L145.352042,19.7721881 C145.798784,19.7721881 146.160555,19.4105989 146.160555,18.9651522 L146.160555,10.0797805 Z" id="Fill-1"></path>
                </g>
            </g>
        </g>
    </g>
</svg>