<?xml version="1.0" encoding="UTF-8" standalone="no"?>
<svg width="25px" height="21px" viewBox="0 0 25 21" version="1.1" xmlns="http://www.w3.org/2000/svg" xmlns:xlink="http://www.w3.org/1999/xlink" xmlns:sketch="http://www.bohemiancoding.com/sketch/ns">
    <!-- Generator: Sketch 3.2.2 (9983) - http://www.bohemiancoding.com/sketch -->
    <title>Fill 2</title>
    <desc>Created with Sketch.</desc>
    <defs></defs>
    <g id="POST" stroke="none" stroke-width="1" fill="none" fill-rule="evenodd" sketch:type="MSPage">
        <g id="Post" sketch:type="MSArtboardGroup" transform="translate(-1329.000000, -909.000000)" fill="#007DA3">
            <g id="SIDEBAR" sketch:type="MSLayerGroup" transform="translate(1205.000000, 152.000000)">
                <g id="Fill-2-+-Fill-15-+-instagram-512-3" transform="translate(124.000000, 751.000000)" sketch:type="MSShapeGroup">
                    <path d="M7.7589537,26.6666667 C4.90055804,26.6666667 2.23997149,25.8308503 0,24.3983053 C0.395979168,24.4449345 0.798906921,24.4687893 1.20742964,24.4687893 C3.57879258,24.4687893 5.76128031,23.6615987 7.4935538,22.3074592 C5.27866942,22.2666811 3.40940951,20.8069506 2.76535679,18.8009914 C3.07434327,18.8599531 3.39145148,18.8915494 3.71758382,18.8915494 C4.17925871,18.8915494 4.62640474,18.8298871 5.0511709,18.7144842 C2.73557714,18.2507119 0.990940574,16.2100058 0.990940574,13.763679 C0.990940574,13.7424347 0.990940574,13.7212805 0.99130154,13.7002163 C1.67379708,14.0783816 2.45420452,14.3054968 3.28397399,14.331692 C1.92584125,13.4262918 1.03218088,11.8808643 1.03218088,10.1292057 C1.03218088,9.20391158 1.28178854,8.33658898 1.71747391,7.59088059 C4.2139114,10.6455485 7.94349732,12.6556485 12.1501894,12.8662004 C12.0639186,12.4966768 12.0190687,12.1113102 12.0190687,11.7155914 C12.0190687,8.92728653 14.2853907,6.66666667 17.0807978,6.66666667 C18.5365717,6.66666667 19.8520203,7.27986869 20.7753701,8.26115397 C21.9282939,8.0346689 23.0115514,7.61446528 23.9894973,7.03592015 C23.6115664,8.21488476 22.8090498,9.20436167 21.7639644,9.82926602 C22.7878431,9.70720173 23.7633524,9.43579772 24.6710904,9.03422781 C23.9924752,10.0467493 23.1342797,10.9360363 22.1454147,11.6478979 C22.1551608,11.864391 22.1600338,12.0821443 22.1600338,12.3010679 C22.1600338,18.9731056 17.0689762,26.6666667 7.7589537,26.6666667" id="Fill-2"></path>
                </g>
            </g>
        </g>
    </g>
</svg>