<?xml version="1.0" encoding="UTF-8" standalone="no"?>
<svg width="28px" height="27px" viewBox="0 0 28 27" version="1.1" xmlns="http://www.w3.org/2000/svg" xmlns:xlink="http://www.w3.org/1999/xlink" xmlns:sketch="http://www.bohemiancoding.com/sketch/ns">
    <!-- Generator: Sketch 3.2.2 (9983) - http://www.bohemiancoding.com/sketch -->
    <title>Imported Layers</title>
    <desc>Created with Sketch.</desc>
    <defs></defs>
    <g id="Home" stroke="none" stroke-width="1" fill="none" fill-rule="evenodd" sketch:type="MSPage">
        <g id="Desktop-HD" sketch:type="MSArtboardGroup" transform="translate(-1173.000000, -1287.000000)" stroke="#47BDB3" fill="#F7AE2E">
            <path d="M1194.42857,1288 L1179.57143,1288 C1176.49461,1288 1174,1290.58317 1174,1293.76923 L1174,1302.42308 C1174,1305.60913 1176.49461,1308.19231 1179.57143,1308.19231 L1180.5,1308.19231 L1180.5,1313 L1187,1308.19231 L1194.42857,1308.19231 C1197.50539,1308.19231 1200,1305.60913 1200,1302.42308 L1200,1293.76923 C1200,1290.58317 1197.50539,1288 1194.42857,1288 L1194.42857,1288 Z M1199.07143,1302.42308 C1199.07143,1305.07837 1196.99236,1307.23077 1194.42857,1307.23077 L1186.67129,1307.23077 L1181.42857,1311.10673 L1181.42857,1307.23077 L1179.57143,1307.23077 C1177.00764,1307.23077 1174.92857,1305.07837 1174.92857,1302.42308 L1174.92857,1293.76923 C1174.92857,1291.11442 1177.00764,1288.96154 1179.57143,1288.96154 L1194.42857,1288.96154 C1196.99236,1288.96154 1199.07143,1291.11442 1199.07143,1293.76923 L1199.07143,1302.42308 L1199.07143,1302.42308 Z" id="Imported-Layers" sketch:type="MSShapeGroup"></path>
        </g>
    </g>
</svg>