<?xml version="1.0" encoding="UTF-8" standalone="no"?>
<svg width="39px" height="31px" viewBox="0 0 39 31" version="1.1" xmlns="http://www.w3.org/2000/svg" xmlns:xlink="http://www.w3.org/1999/xlink" xmlns:sketch="http://www.bohemiancoding.com/sketch/ns">
    <!-- Generator: Sketch 3.2.2 (9983) - http://www.bohemiancoding.com/sketch -->
    <title>Fill 2</title>
    <desc>Created with Sketch.</desc>
    <defs></defs>
    <g id="HOME" stroke="none" stroke-width="1" fill="none" fill-rule="evenodd" sketch:type="MSPage">
        <g id="Home" sketch:type="MSArtboardGroup" transform="translate(-492.000000, -3111.000000)" fill="#00ACED">
            <g id="FOOTER" sketch:type="MSLayerGroup" transform="translate(0.000000, 3009.000000)">
                <g id="Fill-2-+-Fill-15-+-instagram-512-2" transform="translate(492.000000, 101.000000)" sketch:type="MSShapeGroup">
                    <path d="M11.9911103,31.7843137 C7.5735897,31.7843137 3.46177412,30.5060064 0,28.3150551 C0.611967804,28.3863705 1.23467433,28.4228542 1.86602763,28.4228542 C5.53086126,28.4228542 8.90379684,27.1883274 11.5809468,25.1172905 C8.15794365,25.054924 5.26908742,22.822395 4.27373323,19.7544574 C4.75125779,19.8446342 5.2413341,19.8929579 5.74535681,19.8929579 C6.45885437,19.8929579 7.14989823,19.7986509 7.80635503,19.6221523 C4.22771012,18.9128535 1.53145361,15.7917736 1.53145361,12.0503325 C1.53145361,12.0178414 1.53145361,11.9854879 1.53201147,11.9532721 C2.58677731,12.5316424 3.79286153,12.8789951 5.07523254,12.9190584 C2.97630012,11.5343287 1.59518864,9.17073362 1.59518864,6.49172638 C1.59518864,5.07657065 1.98094592,3.75007727 2.65427786,2.60958207 C6.51240852,7.28142706 12.276314,10.3556977 18.7775654,10.6777182 C18.6442379,10.1125646 18.5749243,9.52318023 18.5749243,8.91796332 C18.5749243,4.65349705 22.0774219,1.19607843 26.3975966,1.19607843 C28.6474291,1.19607843 30.680395,2.13391683 32.1073901,3.63470607 C33.8891815,3.28831714 35.5633068,2.64565278 37.0746776,1.76081905 C36.4906026,3.5639414 35.2503497,5.07725902 33.6352177,6.0329951 C35.2175756,5.84630853 36.7251809,5.43122005 38.1280488,4.8170543 C37.0792799,6.36561658 35.7529777,7.72570253 34.2247318,8.81443213 C34.2397939,9.1455392 34.247325,9.47857371 34.247325,9.81339798 C34.247325,20.017691 26.3793269,31.7843137 11.9911103,31.7843137" id="Fill-2"></path>
                </g>
            </g>
        </g>
    </g>
</svg>