<?xml version="1.0" encoding="UTF-8" standalone="no"?>
<svg width="324px" height="56px" viewBox="0 0 324 56" version="1.1" xmlns="http://www.w3.org/2000/svg" xmlns:xlink="http://www.w3.org/1999/xlink" xmlns:sketch="http://www.bohemiancoding.com/sketch/ns">
    <!-- Generator: Sketch 3.2.2 (9983) - http://www.bohemiancoding.com/sketch -->
    <title>LOGO</title>
    <desc>Created with Sketch.</desc>
    <defs>
        <linearGradient x1="50%" y1="2.66860651%" x2="50%" y2="100%" id="linearGradient-1">
            <stop stop-color="#00B8D4" offset="0%"></stop>
            <stop stop-color="#00D7B3" offset="100%"></stop>
        </linearGradient>
    </defs>
    <g id="About-Us" stroke="none" stroke-width="1" fill="none" fill-rule="evenodd" sketch:type="MSPage">
        <g id="Desktop-HD" sketch:type="MSArtboardGroup" transform="translate(-1233.000000, -239.000000)">
            <g id="LOGO" sketch:type="MSLayerGroup" transform="translate(1233.000000, 239.000000)">
                <g id="TEXT" transform="translate(88.000000, 3.000000)" sketch:type="MSShapeGroup">
                    <path d="M35.756,2 C34.998,2 34.34,2.28 33.809,2.832 C33.27,3.381 33,4.028 33,4.753 C33,5.48 33.276,6.128 33.819,6.683 C34.362,7.237 35.014,7.519 35.756,7.519 C36.485,7.519 37.125,7.238 37.661,6.688 C38.196,6.137 38.467,5.485 38.467,4.753 C38.467,4.016 38.198,3.364 37.666,2.82 C37.135,2.276 36.491,2 35.756,2" id="Fill-23" fill="#F7AE2E"></path>
                    <path d="M35.613,12 C34.894,12 34.269,12.258 33.763,12.765 C33.255,13.273 33,13.968 33,14.834 L33,38.991 C33,39.816 33.261,40.486 33.781,40.982 C34.296,41.474 34.914,41.721 35.613,41.721 C36.335,41.721 36.964,41.479 37.484,41 C38.011,40.511 38.279,39.835 38.279,38.991 L38.279,14.731 C38.279,13.888 38.017,13.212 37.492,12.724 C36.978,12.244 36.343,12 35.613,12" id="Fill-24" fill="#F7AE2E"></path>
                    <path d="M61.752,13.429 C60.197,12.613 58.504,12.201 56.709,12.201 C55.153,12.201 53.656,12.535 52.27,13.195 C51.123,13.738 50.121,14.482 49.283,15.411 L49.283,14.828 C49.283,13.945 49.02,13.245 48.508,12.748 C47.996,12.251 47.36,12 46.615,12 C45.895,12 45.274,12.259 44.766,12.766 C44.258,13.274 44,13.969 44,14.834 L44,38.977 C44,39.809 44.272,40.497 44.807,41.022 C45.34,41.545 45.983,41.813 46.719,41.813 C47.449,41.813 48.067,41.561 48.553,41.064 C49.037,40.566 49.283,39.865 49.283,38.976 L49.283,23.481 C49.283,22.112 49.576,20.922 50.158,19.944 C50.737,18.967 51.504,18.226 52.442,17.741 C53.383,17.254 54.412,17.006 55.496,17.006 C57.164,17.006 58.627,17.571 59.836,18.692 C61.045,19.803 61.656,21.378 61.656,23.377 L61.656,38.976 C61.656,39.778 61.918,40.424 62.436,40.895 C62.94,41.356 63.559,41.593 64.272,41.593 C65.008,41.593 65.641,41.363 66.153,40.912 C66.674,40.449 66.94,39.799 66.94,38.977 L66.94,23.283 C66.94,20.895 66.463,18.84 65.528,17.178 C64.582,15.509 63.317,14.248 61.752,13.429" id="Fill-25" fill="#F7AE2E"></path>
                    <path d="M91.137,27.13 C91.094,28.863 90.816,30.51 90.314,32.03 C89.82,33.52 88.986,34.768 87.838,35.732 C86.701,36.686 85.187,37.17 83.348,37.17 C81.014,37.079 79.309,36.098 78.131,34.169 C76.941,32.218 76.336,29.817 76.336,27.043 C76.375,25.389 76.662,23.78 77.189,22.262 C77.703,20.767 78.525,19.509 79.633,18.523 C80.721,17.557 82.109,17.066 83.76,17.066 C85.16,17.066 86.432,17.479 87.537,18.291 C88.654,19.11 89.543,20.3 90.172,21.821 C90.812,23.363 91.137,25.151 91.137,27.13 L91.137,27.13 Z M95.15,0.71 C94.635,0.24 93.986,0 93.221,0 C92.525,0 91.91,0.239 91.394,0.709 C90.873,1.187 90.607,1.846 90.607,2.665 L90.607,15.665 C88.691,13.475 86.217,12.364 83.236,12.364 C81.443,12.364 79.768,12.757 78.262,13.532 C76.76,14.304 75.453,15.388 74.377,16.749 C73.309,18.103 72.467,19.711 71.881,21.522 C71.297,23.327 71,25.255 71,27.258 C71.047,30.049 71.596,32.581 72.641,34.784 C73.691,37 75.193,38.752 77.109,39.996 C79.025,41.241 81.279,41.87 83.824,41.87 C85.805,41.81 87.41,41.392 88.588,40.634 C89.422,40.097 90.098,39.477 90.607,38.784 L90.607,39.25 C90.607,40.027 90.877,40.667 91.418,41.153 C91.943,41.629 92.549,41.87 93.221,41.87 C93.961,41.87 94.601,41.629 95.131,41.15 C95.666,40.662 95.937,39.988 95.937,39.14 L95.937,2.771 C95.937,1.882 95.672,1.19 95.15,0.71 L95.15,0.71 Z" id="Fill-26" fill="#F7AE2E"></path>
                    <path d="M150.272,12 C149.551,12 148.93,12.251 148.422,12.744 C147.916,13.24 147.656,13.909 147.656,14.733 L147.656,30.126 C147.656,34.621 145.608,36.806 141.393,36.806 C139.365,36.806 137.824,36.207 136.82,35.024 C135.797,33.823 135.283,32.174 135.283,30.126 L135.283,14.733 C135.283,13.89 135.018,13.213 134.492,12.727 C133.981,12.244 133.348,12 132.613,12 C131.897,12 131.276,12.249 130.77,12.743 C130.26,13.24 130,13.907 130,14.732 L130,30.219 C130,32.248 130.402,34.138 131.207,35.837 C132.014,37.551 133.281,38.942 134.973,39.967 C136.66,40.988 138.785,41.506 141.285,41.506 C143.938,41.506 146.164,40.976 147.904,39.928 C149.651,38.878 150.942,37.477 151.742,35.759 C152.535,34.062 152.936,32.198 152.936,30.219 L152.936,14.732 C152.936,13.889 152.672,13.213 152.149,12.725 C151.633,12.244 151.002,12 150.272,12" id="Fill-27" fill="#47BDB3"></path>
                    <path d="M177.133,27.13 C177.09,28.864 176.816,30.514 176.314,32.03 C175.818,33.52 174.986,34.768 173.84,35.732 C172.701,36.686 171.187,37.17 169.346,37.17 C167.014,37.078 165.305,36.098 164.129,34.169 C162.937,32.218 162.336,29.818 162.336,27.043 C162.375,25.386 162.662,23.778 163.185,22.262 C163.701,20.767 164.523,19.509 165.633,18.523 C166.721,17.557 168.105,17.066 169.76,17.066 C171.16,17.066 172.431,17.479 173.537,18.291 C174.656,19.113 175.545,20.302 176.174,21.821 C176.81,23.366 177.133,25.154 177.133,27.13 L177.133,27.13 Z M179.221,0 C178.525,0 177.91,0.239 177.394,0.709 C176.873,1.187 176.607,1.846 176.607,2.665 L176.607,15.665 C174.691,13.475 172.215,12.364 169.232,12.364 C167.441,12.364 165.769,12.757 164.26,13.532 C162.756,14.304 161.449,15.388 160.377,16.749 C159.306,18.103 158.467,19.711 157.879,21.522 C157.297,23.324 157,25.253 157,27.258 C157.045,30.046 157.596,32.578 158.639,34.784 C159.687,36.999 161.189,38.752 163.105,39.996 C165.021,41.241 167.279,41.87 169.82,41.87 C171.803,41.81 173.408,41.392 174.586,40.634 C175.42,40.097 176.094,39.477 176.607,38.784 L176.607,39.25 C176.607,40.027 176.879,40.667 177.416,41.153 C177.943,41.629 178.551,41.87 179.221,41.87 C179.959,41.87 180.601,41.629 181.127,41.15 C181.666,40.661 181.939,39.984 181.939,39.14 L181.939,2.771 C181.939,1.882 181.672,1.19 181.15,0.711 C180.637,0.24 179.988,0 179.221,0 L179.221,0 Z" id="Fill-28" fill="#47BDB3"></path>
                    <path d="M194.758,17.982 C195.866,17.134 197.209,16.702 198.762,16.702 C200.325,16.702 201.672,17.153 202.766,18.04 C203.869,18.938 204.715,20.161 205.28,21.678 C205.848,23.214 206.137,24.93 206.137,26.766 C206.094,28.633 205.797,30.354 205.256,31.881 C204.727,33.379 203.895,34.589 202.778,35.48 C201.676,36.361 200.291,36.806 198.657,36.806 C196.131,36.806 194.332,35.814 193.147,33.774 C191.946,31.701 191.336,29.346 191.336,26.773 C191.336,24.849 191.629,23.092 192.209,21.557 C192.784,20.039 193.639,18.837 194.758,17.982 L194.758,17.982 Z M205.504,14.096 C203.584,12.743 201.319,12.036 198.766,12 C196.336,12 194.121,12.645 192.182,13.915 C190.244,15.184 188.711,16.965 187.629,19.209 C186.547,21.446 186,23.989 186,26.773 C186,29.376 186.516,31.832 187.536,34.071 C188.559,36.327 190.057,38.149 191.987,39.484 C193.922,40.826 196.2,41.506 198.766,41.506 C201.321,41.506 203.594,40.833 205.516,39.503 C207.434,38.18 208.922,36.368 209.942,34.116 C210.953,31.878 211.467,29.407 211.467,26.773 C211.467,24.182 210.953,21.738 209.934,19.505 C208.912,17.268 207.422,15.448 205.504,14.096 L205.504,14.096 Z" id="Fill-29" fill="#47BDB3"></path>
                    <path d="M234.123,28.538 C233.18,27.365 231.617,26.33 229.498,25.469 C229.022,25.244 228.18,24.93 226.928,24.504 C225.719,24.09 224.672,23.685 223.822,23.302 C222.998,22.929 222.258,22.44 221.623,21.85 C221.012,21.281 220.645,20.623 220.504,19.92 C220.563,19.015 220.963,18.271 221.74,17.647 C222.52,17.019 223.713,16.702 225.272,16.702 C226.031,16.735 226.666,16.869 227.152,17.102 C227.678,17.35 228.49,17.79 229.639,18.451 C230.82,19.125 231.699,19.535 232.34,19.699 L232.397,19.713 L232.455,19.708 C233.104,19.65 233.666,19.386 234.125,18.925 C234.596,18.456 234.834,17.912 234.834,17.305 C234.834,16.529 234.428,15.719 233.613,14.887 C232.824,14.156 231.586,13.484 229.932,12.891 C228.285,12.3 226.565,12 224.797,12 C224.797,12 224.797,12 224.795,12 C222.955,12.079 221.293,12.486 219.861,13.205 C218.412,13.932 217.274,14.919 216.481,16.138 C215.682,17.366 215.276,18.72 215.276,20.169 C215.276,21.743 215.719,23.078 216.594,24.138 C217.443,25.173 218.438,25.986 219.541,26.552 C220.617,27.101 222.152,27.775 224.108,28.553 C226.039,29.322 227.391,29.948 228.137,30.423 C229.473,31.191 230.119,32.129 230.119,33.289 C230.119,34.496 229.608,35.357 228.553,35.916 C227.442,36.507 226.149,36.806 224.729,36.807 C223.221,36.708 221.957,36.366 220.934,35.775 C220.748,35.694 220.359,35.476 219.57,34.904 C218.904,34.42 218.334,34.045 217.869,33.789 C216.707,33.147 215.457,33.257 214.664,34.094 C214.223,34.567 214,35.133 214,35.822 C214.143,36.932 214.623,37.775 215.399,38.308 C217.891,40.43 221.059,41.506 224.809,41.506 L224.815,41.506 C227.121,41.472 229.094,41.053 230.68,40.258 C232.279,39.459 233.494,38.402 234.297,37.112 C235.096,35.827 235.524,34.418 235.57,32.916 C235.57,31.199 235.082,29.727 234.123,28.538" id="Fill-30" fill="#47BDB3"></path>
                    <path d="M104.644,41.828 C103.181,41.828 102,40.644 102,39.185 L102,2.642 C102,1.183 103.181,0 104.644,0 C106.103,0 107.287,1.183 107.287,2.642 L107.287,39.185 C107.287,40.644 106.103,41.828 104.644,41.828" id="Fill-31" fill="#47BDB3"></path>
                    <path d="M2.643,41.648 C1.184,41.648 0,40.464 0,39.005 L0,4.642 C0,3.183 1.184,2 2.643,2 C4.106,2 5.287,3.183 5.287,4.642 L5.287,39.005 C5.287,40.464 4.106,41.648 2.643,41.648" id="Fill-32" fill="#F7AE2E"></path>
                    <path d="M26.6637635,41.5670061 C26.0007635,41.5670061 25.3367635,41.3230061 24.8257635,40.8320061 L7.78676354,25.0480061 C6.75276354,24.0540061 6.73576354,22.4270061 7.74876354,21.4120061 L24.0987635,2.77200608 C25.1127635,1.75700608 26.7747635,1.74100608 27.8077635,2.73500608 C28.8427635,3.72800608 28.8607635,5.35800608 27.8467635,6.37200608 L13.3327635,23.1760061 L28.4987635,37.1610061 C29.5347635,38.1540061 29.5497635,39.7830061 28.5367635,40.7980061 C28.0227635,41.3100061 27.3427635,41.5670061 26.6637635,41.5670061" id="Fill-33" fill="#F7AE2E"></path>
                    <path d="M123.378023,41.9564519 C122.745023,41.9564519 122.112023,41.7304519 121.608023,41.2704519 L108.852023,29.6114519 C108.327023,29.1304519 108.020023,28.4554519 108.001023,27.7424519 C107.981023,27.0304519 108.255023,26.3414519 108.755023,25.8334519 L120.624023,13.7824519 C121.641023,12.7504519 123.301023,12.7374519 124.333023,13.7544519 C125.366023,14.7714519 125.378023,16.4324519 124.360023,17.4644519 L114.403023,27.5754519 L125.149023,37.3984519 C126.217023,38.3744519 126.294023,40.0334519 125.315023,41.1044519 C124.798023,41.6694519 124.089023,41.9564519 123.378023,41.9564519" id="Fill-34" fill="#47BDB3"></path>
                </g>
                <g id="ICON-LOGO" fill="#47BDB3" sketch:type="MSShapeGroup">
                    <path d="M33.8179545,55.6567176 C18.9256818,55.6567176 5.75568182,46.099542 1.04568182,31.8747328 C0.312045455,29.6577099 1.50045455,27.26 3.70136364,26.5200763 C5.89954545,25.7801527 8.28181818,26.9783206 9.01613636,29.1967176 C12.5793182,39.9596183 22.5468182,47.1912214 33.8179545,47.1912214 C45.0884091,47.1912214 55.0559091,39.9596183 58.6204545,29.1953435 C59.3554545,26.9783206 61.7370455,25.7787786 63.9352273,26.5207634 C66.1361364,27.26 67.3252273,29.6577099 66.5909091,31.8761069 C61.8795455,46.099542 48.7088636,55.6567176 33.8179545,55.6567176" id="Fill-3"></path>
                    <path d="M25.0340909,27.4324427 C22.7138636,27.4324427 20.8334091,25.5369466 20.8334091,23.1996947 L20.8334091,4.99427481 C20.8334091,2.65633588 22.7138636,0.761526718 25.0340909,0.761526718 C27.3543182,0.761526718 29.2347727,2.65633588 29.2347727,4.99427481 L29.2347727,23.1996947 C29.2347727,25.5369466 27.3543182,27.4324427 25.0340909,27.4324427" id="Fill-4"></path>
                    <path d="M43.2877273,25.3967939 C42.1825,25.3967939 41.0793182,24.9605344 40.2543182,24.0921374 L33.8472727,17.3531298 C32.3506818,15.7798473 32.2852273,13.3182443 33.6952273,11.6659542 L40.0102273,4.26396947 C41.5225,2.49076336 44.1761364,2.28946565 45.9338636,3.81396947 C47.6936364,5.33778626 47.8934091,8.01030534 46.3811364,9.78351145 L42.5513636,14.271145 L46.3204545,18.2352672 C47.9261364,19.9232824 47.8688636,22.6033588 46.1936364,24.2206107 C45.3788636,25.0065649 44.3329545,25.3967939 43.2877273,25.3967939" id="Fill-5"></path>
                </g>
            </g>
        </g>
    </g>
</svg>