<?xml version="1.0" encoding="UTF-8" standalone="no"?>
<svg width="188px" height="33px" viewBox="0 0 188 33" version="1.1" xmlns="http://www.w3.org/2000/svg" xmlns:xlink="http://www.w3.org/1999/xlink" xmlns:sketch="http://www.bohemiancoding.com/sketch/ns">
    <!-- Generator: Sketch 3.2.2 (9983) - http://www.bohemiancoding.com/sketch -->
    <title>LOGO 2</title>
    <desc>Created with Sketch.</desc>
    <defs>
        <linearGradient x1="50%" y1="2.66860651%" x2="50%" y2="100%" id="linearGradient-1">
            <stop stop-color="#00B8D4" offset="0%"></stop>
            <stop stop-color="#00D7B3" offset="100%"></stop>
        </linearGradient>
    </defs>
    <g id="Home" stroke="none" stroke-width="1" fill="none" fill-rule="evenodd" sketch:type="MSPage">
        <g id="Desktop-HD" sketch:type="MSArtboardGroup" transform="translate(-429.000000, -14.000000)" fill="#FFFFFF">
            <g id="LOGO-2" sketch:type="MSLayerGroup" transform="translate(429.000000, 14.000000)">
                <g id="TEXT" transform="translate(51.331343, 1.711111)" sketch:type="MSShapeGroup">
                    <path d="M20.7064597,1.15555556 C20.2674985,1.15555556 19.8864478,1.31733333 19.5789433,1.63626667 C19.266806,1.95346667 19.1104478,2.32728889 19.1104478,2.74617778 C19.1104478,3.16622222 19.2702806,3.54062222 19.5847343,3.86128889 C19.8991881,4.18137778 20.2767642,4.34431111 20.7064597,4.34431111 C21.1286269,4.34431111 21.4992537,4.18195556 21.8096537,3.86417778 C22.1194746,3.54582222 22.2764119,3.16911111 22.2764119,2.74617778 C22.2764119,2.32035556 22.1206328,1.94364444 21.8125493,1.62933333 C21.5050448,1.31502222 21.1321015,1.15555556 20.7064597,1.15555556" id="Fill-23"></path>
                    <path d="M20.6236478,6.93333333 C20.2072716,6.93333333 19.8453313,7.0824 19.5523045,7.37533333 C19.2581194,7.66884444 19.1104478,8.0704 19.1104478,8.57075556 L19.1104478,22.5281333 C19.1104478,23.0048 19.261594,23.3919111 19.5627284,23.6784889 C19.8609672,23.9627556 20.2188537,24.1054667 20.6236478,24.1054667 C21.0417612,24.1054667 21.4060179,23.9656444 21.7071522,23.6888889 C22.0123403,23.4063556 22.1675403,23.0157778 22.1675403,22.5281333 L22.1675403,8.51124444 C22.1675403,8.02417778 22.0158149,7.6336 21.7117851,7.35164444 C21.4141254,7.07431111 21.046394,6.93333333 20.6236478,6.93333333" id="Fill-24"></path>
                    <path d="M35.7608597,7.75897778 C34.8603522,7.28751111 33.8799284,7.04946667 32.8404358,7.04946667 C31.9393493,7.04946667 31.0724299,7.24244444 30.269791,7.62377778 C29.6055582,7.93751111 29.0252955,8.36737778 28.540006,8.90413333 L28.540006,8.56728889 C28.540006,8.05711111 28.3877015,7.65266667 28.0912,7.36551111 C27.7946985,7.07835556 27.4263881,6.93333333 26.9949552,6.93333333 C26.578,6.93333333 26.2183761,7.08297778 25.924191,7.37591111 C25.630006,7.66942222 25.480597,8.07097778 25.480597,8.57075556 L25.480597,22.5200444 C25.480597,23.0007556 25.6381134,23.3982667 25.9479343,23.7016 C26.256597,24.0037778 26.6289612,24.1586222 27.0551821,24.1586222 C27.4779284,24.1586222 27.8358149,24.0130222 28.1172597,23.7258667 C28.3975463,23.4381333 28.540006,23.0331111 28.540006,22.5194667 L28.540006,13.5668 C28.540006,12.7758222 28.7096836,12.0882667 29.0467224,11.5232 C29.3820239,10.9587111 29.826197,10.5305778 30.369397,10.2503556 C30.9143343,9.96897778 31.5102328,9.82568889 32.1379821,9.82568889 C33.1039284,9.82568889 33.9511582,10.1521333 34.6512955,10.7998222 C35.3514328,11.4417333 35.7052657,12.3517333 35.7052657,13.5067111 L35.7052657,22.5194667 C35.7052657,22.9828444 35.856991,23.3560889 36.1569672,23.6282222 C36.4488358,23.8945778 36.8073015,24.0315111 37.220203,24.0315111 C37.6464239,24.0315111 38.012997,23.8986222 38.3094985,23.6380444 C38.6112119,23.3705333 38.7652537,22.9949778 38.7652537,22.5200444 L38.7652537,13.4524 C38.7652537,12.0726667 38.4890209,10.8853333 37.9475582,9.92506667 C37.3997254,8.96075556 36.6671582,8.23217778 35.7608597,7.75897778" id="Fill-25"></path>
                    <path d="M52.7778448,15.6751111 C52.7529433,16.6764 52.5919522,17.628 52.3012418,18.5062222 C52.0151642,19.3671111 51.532191,20.0881778 50.8673791,20.6451556 C50.2089373,21.1963556 49.3321731,21.476 48.2672,21.476 C46.9155701,21.4234222 45.928197,20.8566222 45.2460119,19.7420889 C44.5568776,18.6148444 44.2065194,17.2276 44.2065194,15.6248444 C44.2291045,14.6692 44.3953075,13.7395556 44.7004955,12.8624889 C44.9981552,11.9987111 45.4741791,11.2718667 46.1158269,10.7021778 C46.7458925,10.1440444 47.5496896,9.86035556 48.505791,9.86035556 C49.3165373,9.86035556 50.0531582,10.0989778 50.6930687,10.5681333 C51.3399284,11.0413333 51.8547522,11.7288889 52.219009,12.6076889 C52.5896358,13.4986222 52.7778448,14.5316889 52.7778448,15.6751111 L52.7778448,15.6751111 Z M55.101791,0.410222222 C54.8035522,0.138666667 54.4277134,0 53.9846985,0 C53.5816418,0 53.2254925,0.138088889 52.9266746,0.409644444 C52.6249612,0.685822222 52.4709194,1.06657778 52.4709194,1.53977778 L52.4709194,9.05088889 C51.3613552,7.78555556 49.9286507,7.14364444 48.2023403,7.14364444 C47.164006,7.14364444 46.194006,7.37071111 45.3218746,7.81848889 C44.4520597,8.26453333 43.6951701,8.89084444 43.0720537,9.6772 C42.4535701,10.4595111 41.9659642,11.3885778 41.626609,12.4349333 C41.2884119,13.4778222 41.1164179,14.5917778 41.1164179,15.7490667 C41.1436358,17.3616444 41.4615642,18.8245778 42.0667284,20.0974222 C42.6747881,21.3777778 43.544603,22.3900444 44.6541672,23.1088 C45.7637313,23.8281333 47.0690328,24.1915556 48.5428537,24.1915556 C49.6900597,24.1568889 50.6195224,23.9153778 51.3017075,23.4774222 C51.7846806,23.1671556 52.1761552,22.8089333 52.4709194,22.4085333 L52.4709194,22.6777778 C52.4709194,23.1267111 52.6272776,23.4964889 52.9405731,23.7772889 C53.244603,24.0523111 53.5955403,24.1915556 53.9846985,24.1915556 C54.4132358,24.1915556 54.7838627,24.0523111 55.0907881,23.7755556 C55.400609,23.4936 55.5575463,23.1041778 55.5575463,22.6142222 L55.5575463,1.60102222 C55.5575463,1.08737778 55.4040836,0.687555556 55.101791,0.410222222 L55.101791,0.410222222 Z" id="Fill-26"></path>
                    <path d="M87.0231881,6.93333333 C86.6056537,6.93333333 86.2460299,7.07835556 85.9518448,7.3632 C85.6588179,7.64977778 85.5082507,8.03631111 85.5082507,8.5124 L85.5082507,17.4061333 C85.5082507,20.0032444 84.3222448,21.2656889 81.8813194,21.2656889 C80.7068955,21.2656889 79.8144955,20.9196 79.2330746,20.2360889 C78.6406507,19.5421778 78.342991,18.5894222 78.342991,17.4061333 L78.342991,8.5124 C78.342991,8.02533333 78.1895284,7.63417778 77.8849194,7.35337778 C77.588997,7.07431111 77.2224239,6.93333333 76.7967821,6.93333333 C76.3821433,6.93333333 76.0225194,7.0772 75.7294925,7.36262222 C75.4341493,7.64977778 75.2835821,8.03515556 75.2835821,8.51182222 L75.2835821,17.4598667 C75.2835821,18.6321778 75.5163821,19.7241778 75.9825612,20.7058222 C76.4498985,21.6961333 77.1836239,22.4998222 78.1634687,23.0920444 C79.1404179,23.6819556 80.3710149,23.9812444 81.8187761,23.9812444 C83.3551403,23.9812444 84.6442269,23.6750222 85.6518687,23.0695111 C86.6635642,22.4628444 87.4111881,21.6533778 87.8744716,20.6607556 C88.3337015,19.6802667 88.5659224,18.6032889 88.5659224,17.4598667 L88.5659224,8.51182222 C88.5659224,8.02475556 88.4130388,7.63417778 88.1101672,7.35222222 C87.8113493,7.07431111 87.4459343,6.93333333 87.0231881,6.93333333" id="Fill-27"></path>
                    <path d="M102.578513,15.6751111 C102.553612,16.6769778 102.394937,17.6303111 102.104227,18.5062222 C101.816991,19.3671111 101.335176,20.0881778 100.671522,20.6451556 C100.011922,21.1963556 99.1351582,21.476 98.0690269,21.476 C96.7185552,21.4228444 95.7288657,20.8566222 95.0478388,19.7420889 C94.3575463,18.6148444 94.0095045,17.2281778 94.0095045,15.6248444 C94.0320896,14.6674667 94.1982925,13.7384 94.5011642,12.8624889 C94.7999821,11.9987111 95.276006,11.2718667 95.9188119,10.7021778 C96.5488776,10.1440444 97.3503582,9.86035556 98.3087761,9.86035556 C99.1195224,9.86035556 99.8555642,10.0989778 100.496054,10.5681333 C101.144072,11.0430667 101.658896,11.7300444 102.023152,12.6076889 C102.391463,13.5003556 102.578513,14.5334222 102.578513,15.6751111 L102.578513,15.6751111 Z M103.787684,0 C103.384627,0 103.028478,0.138088889 102.72966,0.409644444 C102.427946,0.685822222 102.273904,1.06657778 102.273904,1.53977778 L102.273904,9.05088889 C101.16434,7.78555556 99.7304776,7.14364444 98.003009,7.14364444 C96.9658328,7.14364444 95.9975701,7.37071111 95.1237015,7.81848889 C94.2527284,8.26453333 93.4958388,8.89084444 92.8750388,9.6772 C92.2548179,10.4595111 91.7689493,11.3885778 91.4284358,12.4349333 C91.091397,13.4760889 90.919403,14.5906222 90.919403,15.7490667 C90.9454627,17.3599111 91.2645493,18.8228444 91.8685552,20.0974222 C92.4754567,21.3772 93.3452716,22.3900444 94.4548358,23.1088 C95.5644,23.8281333 96.8720179,24.1915556 98.3435224,24.1915556 C99.4918866,24.1568889 100.421349,23.9153778 101.103534,23.4774222 C101.586507,23.1671556 101.976824,22.8089333 102.273904,22.4085333 L102.273904,22.6777778 C102.273904,23.1267111 102.431421,23.4964889 102.7424,23.7772889 C103.047588,24.0523111 103.399684,24.1915556 103.787684,24.1915556 C104.215063,24.1915556 104.586848,24.0523111 104.891457,23.7755556 C105.203594,23.4930222 105.36169,23.1018667 105.36169,22.6142222 L105.36169,1.60102222 C105.36169,1.08737778 105.207069,0.687555556 104.904776,0.4108 C104.607696,0.138666667 104.231857,0 103.787684,0 L103.787684,0 Z" id="Fill-28"></path>
                    <path d="M112.78523,10.3896 C113.426878,9.89964444 114.204615,9.65004444 115.103964,9.65004444 C116.009104,9.65004444 116.789158,9.91062222 117.422699,10.4231111 C118.061451,10.9419556 118.551373,11.6485778 118.878567,12.5250667 C119.207499,13.4125333 119.37486,14.404 119.37486,15.4648 C119.349958,16.5435111 119.177964,17.5378667 118.864669,18.4201333 C118.558322,19.2856444 118.076507,19.9847556 117.429648,20.4995556 C116.791475,21.0085778 115.989415,21.2656889 115.043158,21.2656889 C113.58034,21.2656889 112.538531,20.6925333 111.852293,19.5138667 C111.156788,18.3161333 110.803534,16.9554667 110.803534,15.4688444 C110.803534,14.3572 110.973212,13.3420444 111.309093,12.4551556 C111.642078,11.5780889 112.137212,10.8836 112.78523,10.3896 L112.78523,10.3896 Z M119.008287,8.14435556 C117.896406,7.36262222 116.584734,6.95413333 115.106281,6.93333333 C113.699057,6.93333333 112.41634,7.306 111.293457,8.03977778 C110.171152,8.77297778 109.283385,9.802 108.656794,11.0985333 C108.030203,12.3910222 107.713433,13.8603111 107.713433,15.4688444 C107.713433,16.9728 108.012251,18.3918222 108.602937,19.6854667 C109.195361,20.9889333 110.06286,22.0416444 111.180531,22.8129778 C112.301099,23.5883556 113.620299,23.9812444 115.106281,23.9812444 C116.585893,23.9812444 117.902197,23.5924 119.015236,22.8239556 C120.125958,22.0595556 120.987666,21.0126222 121.578352,19.7114667 C122.163827,18.4184 122.461487,16.9907111 122.461487,15.4688444 C122.461487,13.9718222 122.163827,12.5597333 121.573719,11.2695556 C120.981875,9.97706667 120.119009,8.92551111 119.008287,8.14435556 L119.008287,8.14435556 Z" id="Fill-29"></path>
                    <path d="M135.581678,16.4886222 C135.035582,15.8108889 134.130442,15.2128889 132.903319,14.7154222 C132.627666,14.5854222 132.14006,14.404 131.415021,14.1578667 C130.714884,13.9186667 130.108561,13.6846667 129.616322,13.4633778 C129.13914,13.2478667 128.710603,12.9653333 128.342872,12.6244444 C127.989039,12.2956889 127.776507,11.9155111 127.694854,11.5093333 C127.729021,10.9864444 127.960663,10.5565778 128.410627,10.1960444 C128.862328,9.8332 129.5532,9.65004444 130.456024,9.65004444 C130.895564,9.66911111 131.263296,9.74653333 131.54474,9.88115556 C131.849349,10.0244444 132.319582,10.2786667 132.984973,10.6605778 C133.668896,11.05 134.177928,11.2868889 134.549134,11.3816444 L134.582143,11.3897333 L134.615731,11.3868444 C134.99157,11.3533333 135.317027,11.2008 135.582836,10.9344444 C135.855594,10.6634667 135.993421,10.3491556 135.993421,9.99844444 C135.993421,9.55008889 135.758304,9.08208889 135.286334,8.60137778 C134.829421,8.17902222 134.11249,7.79075556 133.154651,7.44813333 C132.200866,7.10666667 131.204806,6.93333333 130.180949,6.93333333 C130.180949,6.93333333 130.180949,6.93333333 130.179791,6.93333333 C129.114239,6.97897778 128.151767,7.21413333 127.32249,7.62955556 C126.483367,8.0496 125.824346,8.61986667 125.365116,9.32417778 C124.902412,10.0336889 124.667296,10.816 124.667296,11.6532 C124.667296,12.5626222 124.923839,13.3339556 125.430555,13.9464 C125.922215,14.5444 126.498424,15.0141333 127.137176,15.3411556 C127.760293,15.6583556 128.649218,16.0477778 129.781946,16.4972889 C130.900197,16.9416 131.683146,17.3032889 132.115158,17.5777333 C132.888842,18.0214667 133.262943,18.5634222 133.262943,19.2336444 C133.262943,19.9310222 132.967021,20.4284889 132.356066,20.7514667 C131.712681,21.0929333 130.963899,21.2656889 130.14157,21.2662667 C129.268281,21.2090667 128.536293,21.0114667 127.943869,20.67 C127.836155,20.6232 127.610884,20.4972444 127.15397,20.1667556 C126.768287,19.8871111 126.438197,19.6704444 126.168913,19.5225333 C125.495994,19.1516 124.772113,19.2151556 124.312884,19.6987556 C124.057499,19.9720444 123.928358,20.2990667 123.928358,20.6971556 C124.01117,21.3384889 124.28914,21.8255556 124.738525,22.1335111 C126.181654,23.3595556 128.016257,23.9812444 130.187899,23.9812444 L130.191373,23.9812444 C131.526788,23.9616 132.669361,23.7195111 133.587821,23.2601778 C134.513809,22.7985333 135.217421,22.1878222 135.682442,21.4424889 C136.145146,20.7000444 136.393003,19.8859556 136.419642,19.0181333 C136.419642,18.0260889 136.137039,17.1756 135.581678,16.4886222" id="Fill-30"></path>
                    <path d="M60.599809,24.1672889 C59.7525791,24.1672889 59.0686567,23.4832 59.0686567,22.6402222 L59.0686567,1.52648889 C59.0686567,0.683511111 59.7525791,0 60.599809,0 C61.4447224,0 62.1303821,0.683511111 62.1303821,1.52648889 L62.1303821,22.6402222 C62.1303821,23.4832 61.4447224,24.1672889 60.599809,24.1672889" id="Fill-31"></path>
                    <path d="M1.53057313,24.0632889 C0.685659701,24.0632889 0,23.3792 0,22.5362222 L0,2.68204444 C0,1.83906667 0.685659701,1.15555556 1.53057313,1.15555556 C2.37780299,1.15555556 3.06172537,1.83906667 3.06172537,2.68204444 L3.06172537,22.5362222 C3.06172537,23.3792 2.37780299,24.0632889 1.53057313,24.0632889" id="Fill-32"></path>
                    <path d="M15.4411049,24.0164924 C15.0571586,24.0164924 14.6726332,23.8755146 14.3767108,23.5918257 L4.50934963,14.4721813 C3.9105556,13.8978702 3.90071082,12.9578257 4.48734366,12.3713813 L13.9557019,1.60160351 C14.5429138,1.01515907 15.5053855,1.00591462 16.1036004,1.58022573 C16.7029735,2.15395907 16.7133974,3.09573685 16.1261855,3.68160351 L7.72106306,13.3905813 L16.5037616,21.4708035 C17.1037138,22.0445368 17.1124004,22.9857368 16.5257675,23.5721813 C16.2281078,23.8680035 15.8343168,24.0164924 15.4411049,24.0164924" id="Fill-33"></path>
                    <path d="M71.4487656,24.2415055 C71.0821925,24.2415055 70.7156193,24.1109278 70.4237507,23.84515 L63.036694,17.1088389 C62.7326641,16.8309278 62.554879,16.4409278 62.5438761,16.0289722 C62.532294,15.6175944 62.6909686,15.2195055 62.9805208,14.9259944 L69.8539119,7.96319444 C70.4428611,7.36692777 71.4041746,7.35941666 72.0018104,7.94701666 C72.6000253,8.53461666 72.6069746,9.49430555 72.0174462,10.0905722 L66.2513029,15.9324833 L72.4743596,21.6079944 C73.0928432,22.1719055 73.1374343,23.1304389 72.570491,23.7492389 C72.271094,24.0756833 71.8605089,24.2415055 71.4487656,24.2415055" id="Fill-34"></path>
                </g>
                <g id="ICON-LOGO" sketch:type="MSShapeGroup">
                    <path d="M19.9542782,32.1349924 C11.3300963,32.1349924 3.70329037,26.6130687 0.975708277,18.3942901 C0.550856174,17.1133435 1.2390692,15.728 2.51362551,15.3004885 C3.78660244,14.8729771 5.16618725,15.5652519 5.59143419,16.8469924 C7.65488874,23.0655573 13.4271126,27.2438168 19.9542782,27.2438168 C26.4810488,27.2438168 32.2532727,23.0655573 34.317517,16.8461985 C34.7431588,15.5652519 36.1223487,14.8721832 37.3953256,15.3008855 C38.669882,15.728 39.3584898,17.1133435 38.9332429,18.395084 C36.2048711,26.6130687 28.5776703,32.1349924 19.9542782,32.1349924" id="Fill-3"></path>
                    <path d="M14.8675034,15.8276336 C13.5238494,15.8276336 12.4348697,14.732458 12.4348697,13.3820458 L12.4348697,2.86335878 C12.4348697,1.51254962 13.5238494,0.417770992 14.8675034,0.417770992 C16.2111574,0.417770992 17.300137,1.51254962 17.300137,2.86335878 L17.300137,13.3820458 C17.300137,14.732458 16.2111574,15.8276336 14.8675034,15.8276336" id="Fill-4"></path>
                    <path d="M25.4382659,14.6514809 C24.7982239,14.6514809 24.1593664,14.3994198 23.6816052,13.8976794 L19.9712564,10.0040305 C19.1045739,9.0950229 19.0666689,7.67276336 19.8832062,6.71810687 L23.540251,2.44140458 C24.4160149,1.4168855 25.9527476,1.30058015 26.9706554,2.18140458 C27.9897476,3.06183206 28.1054369,4.6059542 27.229673,5.63047328 L25.0118345,8.22332824 L27.1945319,10.5137099 C28.1243894,11.4890076 28.0912225,13.0374962 27.1210909,13.9719084 C26.6492524,14.4260153 26.0435617,14.6514809 25.4382659,14.6514809" id="Fill-5"></path>
                </g>
            </g>
        </g>
    </g>
</svg>