<?xml version="1.0" encoding="UTF-8" standalone="no"?>
<svg width="20px" height="26px" viewBox="0 0 20 26" version="1.1" xmlns="http://www.w3.org/2000/svg" xmlns:xlink="http://www.w3.org/1999/xlink" xmlns:sketch="http://www.bohemiancoding.com/sketch/ns">
    <!-- Generator: Sketch 3.2.2 (9983) - http://www.bohemiancoding.com/sketch -->
    <title>noun_43062_cc</title>
    <desc>Created with Sketch.</desc>
    <defs></defs>
    <g id="BLOG" stroke="none" stroke-width="1" fill="none" fill-rule="evenodd" sketch:type="MSPage">
        <g id="Blog" sketch:type="MSArtboardGroup" transform="translate(-391.000000, -210.000000)">
            <g id="POST" sketch:type="MSLayerGroup" transform="translate(377.000000, 193.000000)">
                <g id="ARTICLE" transform="translate(0.000000, 7.000000)" sketch:type="MSShapeGroup">
                    <g id="noun_43062_cc" transform="translate(16.000000, 12.000000)">
                        <rect id="Rectangle-13" stroke="#7AB1CC" stroke-width="2" x="0" y="0" width="16" height="22" rx="1"></rect>
                        <path d="M13.1388571,6 L2.86114286,6 C2.55457143,6 2.306,5.7761194 2.306,5.5 C2.306,5.2238806 2.55457143,5 2.86114286,5 L13.1388571,5 C13.4454286,5 13.694,5.2238806 13.694,5.5 C13.694,5.7761194 13.4454286,6 13.1388571,6 L13.1388571,6 Z" id="Shape" fill="#7AB1CC"></path>
                        <path d="M13.1388571,9 L2.86114286,9 C2.55457143,9 2.306,8.7761194 2.306,8.5 C2.306,8.2238806 2.55457143,8 2.86114286,8 L13.1388571,8 C13.4454286,8 13.694,8.2238806 13.694,8.5 C13.694,8.7761194 13.4454286,9 13.1388571,9 L13.1388571,9 Z" id="Shape" fill="#7AB1CC"></path>
                        <path d="M13.1388571,12 L2.86114286,12 C2.55457143,12 2.306,11.7761194 2.306,11.5 C2.306,11.2238806 2.55457143,11 2.86114286,11 L13.1388571,11 C13.4454286,11 13.694,11.2238806 13.694,11.5 C13.694,11.7761194 13.4454286,12 13.1388571,12 L13.1388571,12 Z" id="Shape" fill="#7AB1CC"></path>
                        <path d="M13.1388571,15 L2.86114286,15 C2.55457143,15 2.306,14.7761194 2.306,14.5 C2.306,14.2238806 2.55457143,14 2.86114286,14 L13.1388571,14 C13.4454286,14 13.694,14.2238806 13.694,14.5 C13.694,14.7761194 13.4454286,15 13.1388571,15 L13.1388571,15 Z" id="Shape" fill="#7AB1CC"></path>
                        <path d="M13.1388571,18 L2.86114286,18 C2.55457143,18 2.306,17.7761194 2.306,17.5 C2.306,17.2238806 2.55457143,17 2.86114286,17 L13.1388571,17 C13.4454286,17 13.694,17.2238806 13.694,17.5 C13.694,17.7761194 13.4454286,18 13.1388571,18 L13.1388571,18 Z" id="Shape" fill="#7AB1CC"></path>
                    </g>
                </g>
            </g>
        </g>
    </g>
</svg>