<?xml version="1.0" encoding="UTF-8" standalone="no"?>
<svg width="22px" height="23px" viewBox="0 0 22 23" version="1.1" xmlns="http://www.w3.org/2000/svg" xmlns:xlink="http://www.w3.org/1999/xlink" xmlns:sketch="http://www.bohemiancoding.com/sketch/ns">
    <!-- Generator: Sketch 3.2.2 (9983) - http://www.bohemiancoding.com/sketch -->
    <title>Shape</title>
    <desc>Created with Sketch.</desc>
    <defs></defs>
    <g id="BLOG" stroke="none" stroke-width="1" fill="none" fill-rule="evenodd" sketch:type="MSPage">
        <g id="Blog" sketch:type="MSArtboardGroup" transform="translate(-389.000000, -1011.000000)" fill="#F38779">
            <g id="POST-2" sketch:type="MSLayerGroup" transform="translate(377.000000, 993.000000)">
                <g id="PLAYLIST" transform="translate(0.000000, 6.000000)" sketch:type="MSShapeGroup">
                    <path d="M34,12 C19.8064516,12 16.9677419,14.875 16.9677419,14.875 L16.9677419,28.1043125 C16.5419355,27.9605625 16.0451613,27.8125 15.5483871,27.8125 C13.5612903,27.8125 12,29.39375 12,31.40625 C12,33.41875 13.5612903,35 15.5483871,35 C17.5354839,35 19.0967742,33.41875 19.0967742,31.40625 L19.0967742,18.109375 C21.1548387,17.390625 24.9870968,16.5238125 31.8709677,16.3800625 L31.8709677,26.734375 C31.4451613,26.51875 30.9483871,26.4425625 30.4516129,26.4425625 C28.4645161,26.4425625 26.9032258,28.0238125 26.9032258,30.0363125 C26.9032258,32.0488125 28.4645161,33.6300625 30.4516129,33.6300625 C32.4387097,33.6300625 34,32.0488125 34,30.0363125 L34,12 L34,12 Z" id="Shape"></path>
                </g>
            </g>
        </g>
    </g>
</svg>