<?xml version="1.0" encoding="UTF-8" standalone="no"?>
<svg width="27px" height="27px" viewBox="0 0 27 27" version="1.1" xmlns="http://www.w3.org/2000/svg" xmlns:xlink="http://www.w3.org/1999/xlink" xmlns:sketch="http://www.bohemiancoding.com/sketch/ns">
    <!-- Generator: Sketch 3.2.2 (9983) - http://www.bohemiancoding.com/sketch -->
    <title>Group</title>
    <desc>Created with Sketch.</desc>
    <defs></defs>
    <g id="BLOG" stroke="none" stroke-width="1" fill="none" fill-rule="evenodd" sketch:type="MSPage">
        <g id="Blog" sketch:type="MSArtboardGroup" transform="translate(-388.000000, -1399.000000)" fill="#7ACC96">
            <g id="POST-3" sketch:type="MSLayerGroup" transform="translate(377.000000, 1383.000000)">
                <g id="LINK-2" transform="translate(0.000000, 6.000000)" sketch:type="MSShapeGroup">
                    <g id="Group" transform="translate(11.000000, 10.000000)">
                        <g id="Shape">
                            <path d="M11.04192,19.7019 C11.03274,19.71054 11.02626,19.7208 11.01708,19.73052 L7.87158,22.82202 C7.3575,23.32854 6.67602,23.60232 5.95512,23.59638 C5.23422,23.59044 4.55868,23.30316 4.05324,22.78962 C3.0105,21.72744 3.02562,20.01456 4.08726,18.97074 L7.2333,15.87924 C7.24248,15.87006 7.25382,15.86412 7.26408,15.8544 L11.00358,12.17916 C10.42254,11.98368 9.80964,11.87082 9.1773,11.86488 C7.59078,11.85084 6.09444,12.45618 4.96314,13.56696 L1.81656,16.65954 C-0.51948,18.95346 -0.55296,22.72212 1.74258,25.05924 C2.8539,26.19108 4.3416,26.82288 5.92758,26.83638 C7.51356,26.84988 9.01152,26.24562 10.14282,25.1343 L13.28832,22.04172 C14.42016,20.92986 15.05142,19.4427 15.066,17.8578 C15.07086,17.22492 14.96826,16.61202 14.78358,16.02558 L11.04192,19.7019 L11.04192,19.7019 Z"></path>
                            <path d="M25.27092,1.94076 C24.15744,0.80892 22.6719,0.1782 21.08592,0.16416 C19.49832,0.15012 18.00252,0.75492 16.87014,1.86732 L13.72464,4.95774 C12.08088,6.57288 11.583,8.91432 12.2283,10.97604 L15.96618,7.3035 C15.97698,7.29216 15.984,7.2792 15.9948,7.26894 L19.14084,4.17798 C19.656,3.67254 20.33532,3.39768 21.0573,3.40416 C21.7782,3.4101 22.4532,3.69738 22.95918,4.21146 C23.46462,4.72554 23.73948,5.40594 23.73354,6.12738 C23.72652,6.84828 23.43978,7.52436 22.92624,8.0298 L19.7802,11.12022 C19.77156,11.12886 19.76184,11.13372 19.7532,11.14236 L16.01046,14.81976 C16.59204,15.0147 17.20386,15.1281 17.83566,15.13404 C19.42218,15.147 20.91906,14.54274 22.05036,13.43088 L25.19694,10.34046 C26.32824,9.2286 26.9595,7.74198 26.97354,6.156 C26.98704,4.56894 26.38224,3.07152 25.27092,1.94076 L25.27092,1.94076 Z"></path>
                        </g>
                        <path d="M19.2186,7.88616 C19.85742,8.53578 19.75914,9.66762 18.9999,10.41336 L10.3248,18.93726 C9.5661,19.683 8.4321,19.76184 7.79328,19.11222 L7.79328,19.11222 C7.15608,18.4626 7.25436,17.33184 8.0136,16.58502 L16.6887,8.06166 C17.44848,7.31592 18.58032,7.23708 19.2186,7.88616 L19.2186,7.88616 L19.2186,7.88616 Z" id="Shape"></path>
                    </g>
                </g>
            </g>
        </g>
    </g>
</svg>